<svg width="25" height="30" viewBox="0 0 25 30" fill="none" xmlns="http://www.w3.org/2000/svg">
<g filter="url(#filter0_d_876_1479)">
<path d="M14.2061 17.4313C13.6107 17.4324 13.0228 17.3072 12.4863 17.065C11.9501 17.3071 11.3626 17.4323 10.7675 17.4313C10.1674 17.4305 9.57509 17.304 9.03373 17.0611C8.49237 16.8182 8.01565 16.465 7.63835 16.0273V19.7048C7.63701 19.9731 7.71186 20.2369 7.85521 20.4691C7.99856 20.7013 8.20524 20.8935 8.454 21.026C8.70277 21.1584 8.98466 21.2264 9.27069 21.2228C9.55672 21.2192 9.83658 21.1443 10.0815 21.0057L12.4863 19.6518L14.8932 21.0047C15.1385 21.1424 15.4183 21.2166 15.7042 21.2198C15.9901 21.2229 16.2717 21.1549 16.5204 21.0227C16.7691 20.8904 16.9759 20.6987 17.1198 20.467C17.2637 20.2353 17.3396 19.972 17.3396 19.7038V16.0273C16.9619 16.4645 16.4851 16.8171 15.9437 17.0594C15.4024 17.3018 14.8102 17.4278 14.2104 17.4283L14.2061 17.4313Z" fill="white"/>
<path d="M19.9706 7.05733C20.2403 6.73037 20.4098 6.34064 20.461 5.93007C20.5121 5.51949 20.443 5.1036 20.2609 4.72714C20.0789 4.35067 19.7909 4.02788 19.4279 3.79348C19.0649 3.55909 18.6406 3.42196 18.2007 3.39684C18.2431 2.98542 18.1641 2.57097 17.9725 2.19877C17.7808 1.82657 17.4838 1.51093 17.1138 1.28631C16.7439 1.0617 16.3152 0.936754 15.8747 0.925124C15.4342 0.913494 14.9988 1.01563 14.6159 1.22037C14.4149 0.852886 14.1097 0.544533 13.7339 0.329226C13.3581 0.113919 12.9262 0 12.4859 0C12.0455 0 11.6137 0.113919 11.2379 0.329226C10.8621 0.544533 10.5569 0.852886 10.3558 1.22037C9.97316 1.01725 9.53844 0.916425 9.09893 0.928865C8.65943 0.941304 8.23198 1.06653 7.86306 1.29092C7.49414 1.51531 7.19787 1.83028 7.00647 2.20158C6.81508 2.57287 6.73588 2.98628 6.7775 3.39684C6.33723 3.42128 5.91241 3.55792 5.5488 3.79204C5.18519 4.02617 4.89658 4.34891 4.71405 4.72549C4.53152 5.10207 4.46199 5.51823 4.51296 5.92913C4.56392 6.34003 4.73344 6.7301 5.00326 7.05733C4.64542 7.30013 4.3651 7.63002 4.19259 8.01136C4.02008 8.3927 3.96193 8.81101 4.02442 9.22109C4.08691 9.63118 4.26767 10.0175 4.54717 10.3382C4.82667 10.6589 5.19429 10.902 5.61032 11.041C5.44725 11.4251 5.39946 11.8438 5.47213 12.2516C5.5448 12.6594 5.73517 13.0407 6.02256 13.3542C6.30995 13.6677 6.6834 13.9014 7.10237 14.0299C7.52134 14.1584 7.96983 14.1768 8.39917 14.0831C8.48104 14.4892 8.68072 14.8663 8.97624 15.1728C9.27177 15.4794 9.6517 15.7036 10.0743 15.8208C10.4968 15.938 10.9456 15.9436 11.3714 15.837C11.7971 15.7305 12.1833 15.5159 12.4875 15.2169C12.7919 15.5159 13.1783 15.7305 13.6043 15.8368C14.0302 15.9432 14.4792 15.9373 14.9019 15.8198C15.3245 15.7023 15.7044 15.4777 15.9997 15.1708C16.295 14.8638 16.4944 14.4864 16.5758 14.0801C17.0051 14.1738 17.4536 14.1554 17.8726 14.0269C18.2916 13.8984 18.665 13.6647 18.9524 13.3512C19.2398 13.0377 19.4302 12.6564 19.5028 12.2486C19.5755 11.8408 19.5277 11.4221 19.3646 11.038C19.7799 10.8987 20.1468 10.6556 20.4257 10.3351C20.7047 10.0147 20.8851 9.62886 20.9475 9.21932C21.01 8.80978 20.9521 8.39201 20.7802 8.01104C20.6082 7.63006 20.3287 7.30032 19.9717 7.05733H19.9706ZM12.4864 12.8843C11.4476 12.8843 10.4321 12.5954 9.5684 12.054C8.70466 11.5127 8.03147 10.7433 7.63393 9.84317C7.2364 8.943 7.13239 7.95247 7.33505 6.99686C7.53771 6.04124 8.03794 5.16345 8.77249 4.47449C9.50703 3.78553 10.4429 3.31634 11.4617 3.12625C12.4806 2.93617 13.5366 3.03373 14.4964 3.40659C15.4561 3.77945 16.2764 4.41088 16.8535 5.22101C17.4307 6.03114 17.7387 6.9836 17.7387 7.95794C17.7387 9.26449 17.1853 10.5175 16.2003 11.4414C15.2153 12.3653 13.8794 12.8843 12.4864 12.8843Z" fill="white"/>
<path d="M16.1725 7.84878C15.228 7.85038 14.3213 7.50059 13.6513 6.87612C12.9813 6.25164 12.6027 5.40345 12.5985 4.51752C12.5998 4.50364 12.598 4.48966 12.5933 4.47646C12.5885 4.46326 12.5809 4.45113 12.5708 4.44087C12.5608 4.4306 12.5486 4.42241 12.5349 4.41683C12.5213 4.41125 12.5066 4.40839 12.4918 4.40845C12.4609 4.40845 12.4313 4.41994 12.4095 4.4404C12.3877 4.46085 12.3755 4.48859 12.3755 4.51752C12.3741 4.9563 12.2806 5.39053 12.1002 5.79541C11.9199 6.20029 11.6563 6.56789 11.3246 6.87723C10.9928 7.18657 10.5993 7.43158 10.1665 7.59828C9.73379 7.76498 9.27028 7.8501 8.80247 7.84878C8.78767 7.84753 8.77276 7.84919 8.75869 7.85365C8.74462 7.85812 8.73169 7.86529 8.72074 7.87471C8.70979 7.88413 8.70107 7.89559 8.69511 7.90836C8.68916 7.92112 8.68612 7.93492 8.68618 7.94885C8.68738 7.9779 8.69986 8.00554 8.72128 8.02656C8.7427 8.04757 8.77158 8.06051 8.80247 8.06293C9.27003 8.06095 9.73342 8.14546 10.1661 8.31161C10.5988 8.47777 10.9924 8.72231 11.3242 9.03124C11.6561 9.34018 11.9197 9.70745 12.1001 10.1121C12.2805 10.5167 12.3741 10.9506 12.3755 11.3892C12.3741 11.4031 12.3759 11.4171 12.3807 11.4303C12.3854 11.4435 12.3931 11.4556 12.4031 11.4658C12.4132 11.4761 12.4254 11.4843 12.439 11.4899C12.4526 11.4955 12.4673 11.4983 12.4822 11.4983C12.513 11.4983 12.5426 11.4868 12.5644 11.4663C12.5862 11.4459 12.5985 11.4181 12.5985 11.3892C12.5999 10.9506 12.6934 10.5167 12.8738 10.1121C13.0542 9.70745 13.3178 9.34018 13.6497 9.03124C13.9816 8.72231 14.3751 8.47777 14.8078 8.31161C15.2405 8.14546 15.7039 8.06095 16.1715 8.06293C16.2023 8.06293 16.2319 8.05144 16.2537 8.03098C16.2755 8.01053 16.2878 7.98278 16.2878 7.95385C16.2867 7.9258 16.2741 7.89922 16.2526 7.87965C16.2311 7.86008 16.2025 7.84902 16.1725 7.84878Z" fill="white"/>
</g>
<defs>
<filter id="filter0_d_876_1479" x="3.05176e-05" y="0" width="24.9719" height="29.2229" filterUnits="userSpaceOnUse" color-interpolation-filters="sRGB">
<feFlood flood-opacity="0" result="BackgroundImageFix"/>
<feColorMatrix in="SourceAlpha" type="matrix" values="0 0 0 0 0 0 0 0 0 0 0 0 0 0 0 0 0 0 127 0" result="hardAlpha"/>
<feOffset dy="4"/>
<feGaussianBlur stdDeviation="2"/>
<feComposite in2="hardAlpha" operator="out"/>
<feColorMatrix type="matrix" values="0 0 0 0 0 0 0 0 0 0 0 0 0 0 0 0 0 0 0.25 0"/>
<feBlend mode="normal" in2="BackgroundImageFix" result="effect1_dropShadow_876_1479"/>
<feBlend mode="normal" in="SourceGraphic" in2="effect1_dropShadow_876_1479" result="shape"/>
</filter>
</defs>
</svg>
