<svg width="339" height="120" viewBox="0 0 339 120" fill="none" xmlns="http://www.w3.org/2000/svg">
<rect opacity="0.15" width="339" height="120" rx="15" fill="white"/>
<path opacity="0.05" d="M212.33 16.8167C206.244 10.6147 198.195 6.8457 189.636 6.18972C181.077 5.53375 172.571 8.03403 165.652 13.2394C158.748 7.98982 150.233 5.45552 141.658 6.09791C133.083 6.7403 125.019 10.5167 118.933 16.7395C104.642 31.3779 106.915 59.055 118.494 74.0168C131.482 88.9464 146.284 102.108 162.538 113.181C163.479 113.821 164.583 114.162 165.712 114.16C166.841 114.158 167.945 113.815 168.884 113.173C185.097 102.067 199.884 88.9154 212.894 74.0281C224.485 59.1723 226.708 31.5496 212.33 16.8167Z" fill="white"/>
<path d="M173.608 59.2794C172.525 58.2213 171.101 57.5847 169.591 57.4846C168.081 57.3844 166.585 57.8273 165.372 58.7333C164.147 57.8403 162.642 57.4168 161.131 57.5401C159.621 57.6634 158.204 58.3252 157.14 59.405C154.642 61.945 155.083 66.7039 157.146 69.2611C159.458 71.8107 162.086 74.0534 164.968 75.9345C165.135 76.0432 165.33 76.1001 165.529 76.0982C165.728 76.0962 165.923 76.0355 166.087 75.9236C168.93 73.9885 171.518 71.7036 173.79 69.1226C175.812 66.5492 176.164 61.793 173.608 59.2794Z" fill="white"/>
<path d="M169.523 49.989C168.463 50.001 167.442 49.5891 166.683 48.8438C165.925 48.0985 165.493 47.0809 165.481 46.0148C165.48 45.9799 165.466 45.9466 165.441 45.9221C165.417 45.8976 165.383 45.884 165.349 45.8843C165.331 45.8845 165.315 45.888 165.299 45.8948C165.283 45.9016 165.269 45.9114 165.257 45.9237C165.245 45.9361 165.236 45.9507 165.229 45.9667C165.223 45.9827 165.22 45.9998 165.22 46.017C165.226 47.0835 164.81 48.1085 164.064 48.8665C163.318 49.6244 162.303 50.0534 161.242 50.0589C161.208 50.0592 161.175 50.0732 161.151 50.0978C161.127 50.1224 161.114 50.1556 161.114 50.1901L161.113 50.1902C161.113 50.2252 161.127 50.2587 161.152 50.2835C161.176 50.3082 161.21 50.3221 161.245 50.3222C161.77 50.3161 162.291 50.414 162.778 50.6104C163.266 50.8068 163.71 51.0979 164.085 51.4669C164.461 51.836 164.76 52.2758 164.967 52.7613C165.173 53.2468 165.283 53.7684 165.289 54.2963C165.289 54.3136 165.292 54.3306 165.298 54.3465C165.305 54.3624 165.315 54.3769 165.327 54.389C165.339 54.4012 165.353 54.4108 165.369 54.4173C165.385 54.4238 165.402 54.427 165.419 54.4269C165.454 54.4266 165.487 54.4124 165.511 54.3875C165.536 54.3627 165.549 54.3291 165.549 54.2942C165.546 53.7662 165.647 53.2428 165.845 52.7539C166.043 52.265 166.335 51.8202 166.704 51.4448C167.074 51.0695 167.513 50.771 167.997 50.5664C168.481 50.3618 169 50.2551 169.525 50.2523C169.56 50.252 169.593 50.2379 169.618 50.213C169.642 50.1881 169.655 50.1545 169.655 50.1196C169.654 50.0846 169.64 50.0512 169.615 50.0268C169.59 50.0023 169.557 49.9888 169.522 49.9891L169.523 49.989Z" fill="white"/>
<path d="M127.904 79.7899C127.417 79.4513 127.006 79.014 126.699 78.5063C126.392 77.9986 126.195 77.432 126.121 76.8432C126.047 76.2544 126.098 75.6566 126.27 75.0887C126.442 74.5208 126.732 73.9956 127.121 73.547L127.374 73.2534C129.135 71.2187 130.79 69.0945 132.333 66.8891C132.92 66.0427 133.584 65.2391 134.122 64.8774C135.469 63.9743 140.127 61.0398 140.127 61.0398L145.603 59.431C146.005 59.3144 146.43 59.3071 146.835 59.41C148.168 59.7529 151.228 60.5358 151.687 60.5385C152.27 60.5477 151.054 62.6823 149.269 62.7013C147.485 62.7203 146.135 62.7772 146.135 62.7772L142.513 63.7433C142.513 63.7433 148.335 63.1998 149.605 63.4488C150.874 63.6979 154.638 63.3076 154.638 63.3076C154.638 63.3076 160.67 61.6729 161.754 61.7194C162.837 61.7659 164.101 62.7706 160.797 63.7597C157.493 64.7487 155.872 65.8543 155.333 65.8727C154.793 65.8911 150.56 66.8009 150.56 66.8009L158.912 65.5348C158.912 65.5348 164.073 63.6698 165.361 65.2176C166.648 66.7654 162.046 66.9891 161.11 67.6799C161.11 67.6799 159.093 69.3429 157.969 69.8378C157.022 70.2743 156.142 70.8433 155.356 71.5277C154.99 71.8662 153.561 72.3179 153.561 72.3179C153.561 72.3179 153.266 73.6873 152.046 74.2183C150.826 74.7492 146.923 76.3066 146.923 76.3066L136.889 76.9692C135.598 77.6389 134.403 78.4797 133.336 79.4688C132.628 80.1305 131.716 80.5308 130.749 80.6038C129.783 80.6768 128.821 80.4181 128.021 79.8704L127.904 79.7899Z" fill="#E3A981"/>
<path d="M150.278 70.3306L156.837 69.2889L161.11 67.6803" fill="#E3A981"/>
<path d="M204.339 55.7587C204.771 56.1649 205.114 56.6576 205.343 57.2047C205.573 57.7519 205.685 58.3413 205.672 58.9346C205.659 59.5279 205.521 60.1118 205.268 60.6483C205.014 61.1849 204.651 61.6621 204.201 62.049L203.908 62.3025C201.868 64.0577 199.919 65.917 198.071 67.873C197.367 68.6245 196.593 69.3224 196.007 69.6014C194.542 70.2978 189.505 72.5196 189.505 72.5196L183.853 73.3101C183.439 73.3667 183.017 73.3117 182.631 73.1506C181.362 72.6165 178.45 71.3944 177.996 71.3247C177.421 71.2303 178.936 69.2965 180.704 69.5387C182.472 69.7809 183.816 69.922 183.816 69.922L187.54 69.496C187.54 69.496 181.701 69.1822 180.482 68.7502C179.263 68.3181 175.482 68.1537 175.482 68.1537C175.482 68.1537 169.276 68.8886 168.211 68.6841C167.145 68.4796 166.042 67.3009 169.455 66.8056C172.868 66.3104 174.634 65.4539 175.17 65.5146C175.706 65.5753 180.027 65.2944 180.027 65.2944L171.58 65.3254C171.58 65.3254 166.201 66.4154 165.154 64.696C164.107 62.9765 168.692 63.4283 169.719 62.8819C169.719 62.8819 171.957 61.5317 173.142 61.2065C174.142 60.9132 175.096 60.479 175.974 59.9169C176.386 59.6357 177.865 59.3978 177.865 59.3978C177.865 59.3978 178.357 58.0862 179.642 57.7394C180.926 57.3926 185.016 56.4229 185.016 56.4229L195.038 57.2349C196.413 56.7613 197.719 56.1043 198.919 55.2818C199.716 54.7309 200.677 54.4683 201.644 54.5374C202.61 54.6065 203.524 55.0032 204.235 55.662L204.339 55.7587Z" fill="#E3A981"/>
<path d="M181.171 61.9607L174.53 62.0318L170.067 62.9981" fill="#E3A981"/>
</svg>
