<svg width="44" height="38" viewBox="0 0 44 38" fill="none" xmlns="http://www.w3.org/2000/svg">
<path d="M21.8174 38C21.0407 38.0013 20.2713 37.8492 19.5536 37.5523C18.8358 37.2555 18.1838 36.8198 17.6349 36.2702L3.88637 22.5197C1.46253 20.11 0.0699191 16.8527 0.0025618 13.4355C-0.0647955 10.0183 1.19837 6.70863 3.52537 4.20527C5.85237 1.7019 9.0611 0.200739 12.4741 0.0187146C15.8871 -0.16331 19.2373 0.988047 21.8174 3.22971C24.3974 0.988047 27.7476 -0.16331 31.1606 0.0187146C34.5737 0.200739 37.7824 1.7019 40.1094 4.20527C42.4364 6.70863 43.6995 10.0183 43.6322 13.4355C43.5648 16.8527 42.1722 20.11 39.7484 22.5197L25.9999 36.2708C25.4509 36.8203 24.7989 37.2559 24.0811 37.5526C23.3634 37.8494 22.5941 38.0014 21.8174 38Z" fill="white"/>
<path d="M18.8452 24.8837C18.6472 24.8839 18.4537 24.8247 18.2897 24.7138C18.1257 24.603 17.9986 24.4455 17.9249 24.2618L14.7831 16.4029L13.7923 18.3922C13.7096 18.5577 13.5823 18.6968 13.4247 18.7937C13.2671 18.8906 13.0855 18.9414 12.9005 18.9404H1.01317C0.750404 18.9404 0.498397 18.836 0.312591 18.6502C0.126785 18.4644 0.0223999 18.2124 0.0223999 17.9496C0.0223999 17.6868 0.126785 17.4348 0.312591 17.249C0.498397 17.0632 0.750404 16.9588 1.01317 16.9588H12.289L13.9955 13.5432C14.0774 13.3694 14.2097 13.2242 14.3752 13.1265C14.5407 13.0287 14.7317 12.9829 14.9235 12.9951C15.1143 13.0029 15.2987 13.0658 15.4546 13.176C15.6105 13.2862 15.7313 13.4391 15.8023 13.6163L18.7112 20.8896L22.354 8.74788C22.4143 8.54722 22.5367 8.37084 22.7035 8.24409C22.8704 8.11735 23.0731 8.04677 23.2826 8.0425C23.4914 8.04121 23.6956 8.10458 23.8669 8.22393C24.0383 8.34328 24.1685 8.51274 24.2397 8.70906L27.9284 19.3636L28.8565 17.5063C28.9387 17.3416 29.0652 17.203 29.2218 17.1062C29.3784 17.0094 29.5589 16.9581 29.743 16.9582H42.6212C42.8839 16.9582 43.1359 17.0626 43.3217 17.2484C43.5075 17.4342 43.6119 17.6862 43.6119 17.9489C43.6119 18.2117 43.5075 18.4637 43.3217 18.6495C43.1359 18.8353 42.8839 18.9397 42.6212 18.9397H30.3546L28.6526 22.3547C28.5675 22.5309 28.4311 22.6773 28.2614 22.7747C28.0916 22.872 27.8964 22.9158 27.7013 22.9002C27.5067 22.8875 27.3202 22.8177 27.1652 22.6995C27.0101 22.5812 26.8934 22.4199 26.8296 22.2356L23.3706 12.256L19.7939 24.1777C19.7348 24.3748 19.6158 24.5486 19.4535 24.675C19.2911 24.8014 19.0934 24.8741 18.8879 24.8831L18.8452 24.8837Z" fill="#44006B"/>
</svg>
