<svg width="198" height="22" viewBox="0 0 198 22" fill="none" xmlns="http://www.w3.org/2000/svg">
<path d="M0.249333 1.816V1.72H12.0333V5.008H11.9373C11.9053 4.976 11.6973 4.808 11.3133 4.504C10.9293 4.2 10.5613 3.928 10.2093 3.688C9.87333 3.448 9.44133 3.216 8.91333 2.992C8.40133 2.768 7.92133 2.656 7.47333 2.656H3.99333V9.664H5.45733C5.88933 9.664 6.35333 9.616 6.84933 9.52C7.34533 9.424 7.76133 9.328 8.09733 9.232C8.43333 9.12 8.77733 9 9.12933 8.872C9.49733 8.744 9.70533 8.672 9.75333 8.656H9.84933V11.536H9.75333C9.70533 11.52 9.55333 11.464 9.29733 11.368C9.04133 11.272 8.78533 11.184 8.52933 11.104C8.28933 11.008 7.99333 10.912 7.64133 10.816C7.28933 10.72 6.92133 10.648 6.53733 10.6C6.16933 10.536 5.80933 10.504 5.45733 10.504H3.99333V19H0.249333V18.904C0.249333 18.888 0.305333 18.664 0.417333 18.232C0.529333 17.784 0.625333 17.312 0.705333 16.816C0.785333 16.304 0.825333 15.824 0.825333 15.376V5.344C0.825333 4.896 0.785333 4.424 0.705333 3.928C0.625333 3.416 0.529333 2.944 0.417333 2.512C0.305333 2.064 0.249333 1.832 0.249333 1.816ZM11.4217 15.496C11.4217 14.216 11.9337 13.256 12.9577 12.616C13.9977 11.976 15.1017 11.656 16.2697 11.656C16.6057 11.656 16.9497 11.68 17.3017 11.728C17.8617 11.776 18.3817 11.88 18.8617 12.04V10.552C18.8617 9.688 18.7177 9.016 18.4297 8.536C18.1417 8.056 17.7497 7.816 17.2537 7.816C16.6137 7.816 15.7177 8.216 14.5657 9.016C13.4137 9.8 12.6857 10.4 12.3817 10.816H12.2617V7.744C14.2297 7.136 15.9497 6.832 17.4217 6.832C18.8777 6.832 19.9817 7.184 20.7337 7.888C21.4857 8.576 21.8617 9.512 21.8617 10.696V16.072C21.8617 17.08 22.1577 17.584 22.7497 17.584C22.9257 17.584 23.1337 17.536 23.3737 17.44L23.4217 17.512C23.2937 18.008 23.0377 18.408 22.6537 18.712C22.2697 19 21.7977 19.144 21.2377 19.144C20.6297 19.144 20.1257 18.984 19.7257 18.664C19.3257 18.344 19.0617 17.896 18.9337 17.32C18.0697 18.568 16.8537 19.192 15.2857 19.192C14.0857 19.192 13.1417 18.832 12.4537 18.112C11.7657 17.376 11.4217 16.504 11.4217 15.496ZM15.2377 16.864C15.6697 17.328 16.2137 17.56 16.8697 17.56C17.6057 17.56 18.2697 17.224 18.8617 16.552V12.736C18.6857 12.736 18.5497 12.728 18.4537 12.712C18.1017 12.664 17.7737 12.64 17.4697 12.64C16.7177 12.64 16.0457 12.848 15.4537 13.264C14.8617 13.664 14.5657 14.28 14.5657 15.112C14.5657 15.816 14.7897 16.4 15.2377 16.864ZM25.0563 15.376V10.6C25.0563 9.88 24.8643 8.704 24.4803 7.072V6.976H28.0323V8.872C29.0243 7.512 30.2403 6.832 31.6803 6.832C32.4643 6.832 33.1603 7.032 33.7683 7.432C34.3763 7.816 34.8163 8.392 35.0883 9.16C36.1603 7.608 37.4403 6.832 38.9283 6.832C39.9843 6.832 40.8643 7.176 41.5683 7.864C42.2723 8.536 42.6243 9.544 42.6243 10.888V15.376C42.6243 16.096 42.8163 17.272 43.2003 18.904V19H39.0723V18.904C39.4563 17.272 39.6483 16.096 39.6483 15.376V11.272C39.6483 10.456 39.4243 9.84 38.9763 9.424C38.5283 9.008 37.9843 8.8 37.3443 8.8C36.6723 8.8 35.9683 9.096 35.2323 9.688C35.3123 10.088 35.3523 10.488 35.3523 10.888V15.376C35.3523 16.096 35.5443 17.272 35.9283 18.904V19H31.8243V18.904C32.2083 17.272 32.4003 16.096 32.4003 15.376V11.272C32.4003 10.456 32.1683 9.84 31.7043 9.424C31.2563 9.008 30.7043 8.8 30.0483 8.8C29.3923 8.8 28.7203 9.072 28.0323 9.616V15.376C28.0323 15.84 28.0723 16.32 28.1523 16.816C28.2323 17.312 28.3203 17.784 28.4163 18.232L28.5843 18.904V19H24.4803V18.904C24.8643 17.272 25.0563 16.096 25.0563 15.376ZM44.8983 7.072V6.976H48.4503V15.376C48.4503 16.096 48.6423 17.272 49.0263 18.904V19H44.8983V18.904C44.8983 18.888 44.9543 18.664 45.0663 18.232C45.1783 17.784 45.2743 17.312 45.3543 16.816C45.4343 16.304 45.4743 15.824 45.4743 15.376V10.6C45.4743 9.88 45.2823 8.704 44.8983 7.072ZM44.8743 2.848C44.8743 2.32 45.0663 1.872 45.4503 1.504C45.8343 1.12 46.2983 0.927999 46.8423 0.927999C47.3863 0.927999 47.8503 1.12 48.2343 1.504C48.6183 1.872 48.8103 2.32 48.8103 2.848C48.8103 3.376 48.6183 3.832 48.2343 4.216C47.8343 4.6 47.3703 4.792 46.8423 4.792C46.3143 4.792 45.8503 4.6 45.4503 4.216C45.0663 3.832 44.8743 3.376 44.8743 2.848ZM50.6818 1.648V1.552L54.3298 1.096V15.376C54.3298 16.096 54.5218 17.272 54.9058 18.904V19H50.7538V18.904C51.1378 17.272 51.3298 16.096 51.3298 15.376V5.104C51.3298 3.952 51.1138 2.8 50.6818 1.648ZM56.3771 1.648V1.552L60.0251 1.096V15.376C60.0251 16.096 60.2171 17.272 60.6011 18.904V19H56.4491V18.904C56.8331 17.272 57.0251 16.096 57.0251 15.376V5.104C57.0251 3.952 56.8091 2.8 56.3771 1.648ZM63.5124 8.512C64.6004 7.392 66.0084 6.832 67.7364 6.832C69.4644 6.832 70.7844 7.392 71.6964 8.512C72.6084 9.616 73.0644 11.008 73.0644 12.688H65.1444C65.2404 14.064 65.6084 15.168 66.2484 16C66.9044 16.816 67.8324 17.224 69.0324 17.224C70.3124 17.224 71.5924 16.696 72.8724 15.64L72.9684 15.712C72.5684 16.688 71.9044 17.52 70.9764 18.208C70.0644 18.88 68.9764 19.216 67.7124 19.216C66.1124 19.216 64.7364 18.664 63.5844 17.56C62.4324 16.456 61.8564 14.936 61.8564 13C61.8564 11.128 62.4084 9.632 63.5124 8.512ZM65.1204 12.04V12.088L70.0404 11.512C70.0084 10.408 69.8004 9.504 69.4164 8.8C69.0484 8.08 68.4724 7.72 67.6884 7.72C66.8084 7.72 66.1604 8.128 65.7444 8.944C65.3284 9.76 65.1204 10.752 65.1204 11.92C65.1204 11.952 65.1204 11.992 65.1204 12.04ZM75.0798 16.072C75.4478 15.72 75.8878 15.544 76.3998 15.544C76.9918 15.544 77.4878 15.776 77.8878 16.24C78.3038 16.704 78.5118 17.288 78.5118 17.992C78.5118 18.808 78.2318 19.584 77.6718 20.32C77.1278 21.072 76.4078 21.592 75.5118 21.88H74.7438C75.3838 21.528 75.8478 21.088 76.1358 20.56C76.4398 20.048 76.5918 19.592 76.5918 19.192L76.5438 19.216C76.4958 19.216 76.4478 19.216 76.3998 19.216C75.8718 19.216 75.4158 19.048 75.0318 18.712C74.6638 18.36 74.4798 17.912 74.4798 17.368C74.4958 16.856 74.6958 16.424 75.0798 16.072ZM85.8701 14.368L89.4941 4.36C89.6061 4.04 89.6621 3.712 89.6621 3.376C89.6621 2.88 89.5341 2.352 89.2781 1.792V1.72H93.0221L98.1341 15.256C98.7101 16.84 99.3021 18.064 99.9101 18.928V19H94.9421V18.904C95.0381 18.792 95.0861 18.416 95.0861 17.776C95.0861 17.68 95.0781 17.4 95.0621 16.936C95.0621 16.472 94.9341 15.896 94.6781 15.208L93.8861 13.12H87.4541L86.9501 14.512C86.7421 15.072 86.6301 15.552 86.6141 15.952C86.6141 16.336 86.6141 16.584 86.6141 16.696C86.6141 17.192 86.6461 17.616 86.7101 17.968C86.7741 18.32 86.8541 18.624 86.9501 18.88V19H83.8781V18.928C84.4861 17.904 85.1501 16.384 85.8701 14.368ZM87.8141 12.112H93.5261L90.5981 4.336L87.8141 12.112ZM101.486 15.376V10.6C101.486 9.88 101.294 8.704 100.91 7.072V6.976H104.462V8.872C105.454 7.512 106.67 6.832 108.11 6.832C108.894 6.832 109.59 7.032 110.198 7.432C110.806 7.816 111.246 8.392 111.518 9.16C112.59 7.608 113.87 6.832 115.358 6.832C116.414 6.832 117.294 7.176 117.998 7.864C118.702 8.536 119.054 9.544 119.054 10.888V15.376C119.054 16.096 119.246 17.272 119.63 18.904V19H115.502V18.904C115.886 17.272 116.078 16.096 116.078 15.376V11.272C116.078 10.456 115.854 9.84 115.406 9.424C114.958 9.008 114.414 8.8 113.774 8.8C113.102 8.8 112.398 9.096 111.662 9.688C111.742 10.088 111.782 10.488 111.782 10.888V15.376C111.782 16.096 111.974 17.272 112.358 18.904V19H108.254V18.904C108.638 17.272 108.83 16.096 108.83 15.376V11.272C108.83 10.456 108.598 9.84 108.134 9.424C107.686 9.008 107.134 8.8 106.478 8.8C105.822 8.8 105.15 9.072 104.462 9.616V15.376C104.462 15.84 104.502 16.32 104.582 16.816C104.662 17.312 104.75 17.784 104.846 18.232L105.014 18.904V19H100.91V18.904C101.294 17.272 101.486 16.096 101.486 15.376ZM121.328 7.072V6.976H124.88V15.376C124.88 16.096 125.072 17.272 125.456 18.904V19H121.328V18.904C121.328 18.888 121.384 18.664 121.496 18.232C121.608 17.784 121.704 17.312 121.784 16.816C121.864 16.304 121.904 15.824 121.904 15.376V10.6C121.904 9.88 121.712 8.704 121.328 7.072ZM121.304 2.848C121.304 2.32 121.496 1.872 121.88 1.504C122.264 1.12 122.728 0.927999 123.272 0.927999C123.816 0.927999 124.28 1.12 124.664 1.504C125.048 1.872 125.24 2.32 125.24 2.848C125.24 3.376 125.048 3.832 124.664 4.216C124.264 4.6 123.8 4.792 123.272 4.792C122.744 4.792 122.28 4.6 121.88 4.216C121.496 3.832 121.304 3.376 121.304 2.848ZM128.095 16.072C128.463 15.72 128.903 15.544 129.415 15.544C130.007 15.544 130.503 15.776 130.903 16.24C131.319 16.704 131.527 17.288 131.527 17.992C131.527 18.808 131.247 19.584 130.687 20.32C130.143 21.072 129.423 21.592 128.527 21.88H127.759C128.399 21.528 128.863 21.088 129.151 20.56C129.455 20.048 129.607 19.592 129.607 19.192L129.559 19.216C129.511 19.216 129.463 19.216 129.415 19.216C128.887 19.216 128.431 19.048 128.047 18.712C127.679 18.36 127.495 17.912 127.495 17.368C127.511 16.856 127.711 16.424 128.095 16.072ZM137.566 6.424C137.566 5.064 138.126 3.904 139.246 2.944C140.366 1.968 141.886 1.48 143.806 1.48C145.614 1.48 147.566 1.96 149.662 2.92V6.448H149.542C148.87 5.728 148.262 5.12 147.718 4.624C147.174 4.128 146.486 3.648 145.654 3.184C144.838 2.72 144.078 2.488 143.374 2.488C142.494 2.488 141.774 2.728 141.214 3.208C140.67 3.688 140.398 4.272 140.398 4.96C140.398 5.76 140.806 6.432 141.622 6.976C142.454 7.52 143.702 8.096 145.366 8.704C148.662 10 150.31 11.832 150.31 14.2C150.31 15.832 149.702 17.088 148.486 17.968C147.286 18.848 145.806 19.288 144.046 19.288C142.238 19.288 140.142 18.744 137.758 17.656V14.008H137.902C138.494 14.648 138.958 15.144 139.294 15.496C139.646 15.832 140.126 16.256 140.734 16.768C141.342 17.264 141.934 17.632 142.51 17.872C143.102 18.112 143.702 18.232 144.31 18.232C145.206 18.232 145.95 17.984 146.542 17.488C147.134 16.992 147.43 16.32 147.43 15.472C147.43 14.528 147.038 13.768 146.254 13.192C145.486 12.616 144.326 12.056 142.774 11.512C139.302 10.344 137.566 8.648 137.566 6.424ZM151.765 15.496C151.765 14.216 152.277 13.256 153.301 12.616C154.341 11.976 155.445 11.656 156.613 11.656C156.949 11.656 157.293 11.68 157.645 11.728C158.205 11.776 158.725 11.88 159.205 12.04V10.552C159.205 9.688 159.061 9.016 158.773 8.536C158.485 8.056 158.093 7.816 157.597 7.816C156.957 7.816 156.061 8.216 154.909 9.016C153.757 9.8 153.029 10.4 152.725 10.816H152.605V7.744C154.573 7.136 156.293 6.832 157.765 6.832C159.221 6.832 160.325 7.184 161.077 7.888C161.829 8.576 162.205 9.512 162.205 10.696V16.072C162.205 17.08 162.501 17.584 163.093 17.584C163.269 17.584 163.477 17.536 163.717 17.44L163.765 17.512C163.637 18.008 163.381 18.408 162.997 18.712C162.613 19 162.141 19.144 161.581 19.144C160.973 19.144 160.469 18.984 160.069 18.664C159.669 18.344 159.405 17.896 159.277 17.32C158.413 18.568 157.197 19.192 155.629 19.192C154.429 19.192 153.485 18.832 152.797 18.112C152.109 17.376 151.765 16.504 151.765 15.496ZM155.581 16.864C156.013 17.328 156.557 17.56 157.213 17.56C157.949 17.56 158.613 17.224 159.205 16.552V12.736C159.029 12.736 158.893 12.728 158.797 12.712C158.445 12.664 158.117 12.64 157.813 12.64C157.061 12.64 156.389 12.848 155.797 13.264C155.205 13.664 154.909 14.28 154.909 15.112C154.909 15.816 155.133 16.4 155.581 16.864ZM164.824 18.904C165.208 17.272 165.4 16.096 165.4 15.376V10.6C165.4 9.88 165.208 8.704 164.824 7.072V6.976H168.4V9.04C169.392 7.568 170.68 6.832 172.264 6.832C173.384 6.832 174.32 7.176 175.072 7.864C175.824 8.536 176.2 9.544 176.2 10.888V15.376C176.2 16.096 176.392 17.272 176.776 18.904V19H172.648V18.904C172.648 18.888 172.704 18.664 172.816 18.232C172.928 17.784 173.024 17.312 173.104 16.816C173.184 16.304 173.224 15.824 173.224 15.376V11.272C173.224 10.424 173 9.792 172.552 9.376C172.12 8.96 171.576 8.744 170.92 8.728C170.072 8.728 169.232 9.08 168.4 9.784V15.376C168.4 15.84 168.44 16.32 168.52 16.816C168.6 17.312 168.696 17.784 168.808 18.232L168.952 18.904V19H164.824V18.904ZM182.073 3.184H182.265V6.976H185.553V7.96H182.265V15.304C182.265 16.568 182.825 17.2 183.945 17.2C184.617 17.2 185.281 17 185.937 16.6C185.617 17.368 185.153 18 184.545 18.496C183.937 18.976 183.201 19.216 182.337 19.216C181.377 19.216 180.625 18.896 180.081 18.256C179.537 17.616 179.265 16.736 179.265 15.616V7.96H177.513V7.12C179.401 6.4 180.921 5.088 182.073 3.184ZM186.591 13C186.591 11.128 187.135 9.632 188.223 8.512C189.327 7.392 190.743 6.832 192.471 6.832C194.199 6.832 195.519 7.392 196.431 8.512C197.343 9.616 197.799 11.008 197.799 12.688H189.879C189.975 14.064 190.343 15.168 190.983 16C191.639 16.816 192.567 17.224 193.767 17.224C195.047 17.224 196.327 16.696 197.607 15.64L197.703 15.712C197.303 16.688 196.639 17.52 195.711 18.208C194.799 18.88 193.711 19.216 192.447 19.216C190.847 19.216 189.471 18.664 188.319 17.56C187.167 16.456 186.591 14.936 186.591 13ZM189.855 12.04V12.088L194.775 11.512C194.743 10.408 194.535 9.504 194.151 8.8C193.783 8.08 193.207 7.72 192.423 7.72C191.543 7.72 190.895 8.128 190.479 8.944C190.063 9.76 189.855 10.752 189.855 11.92C189.855 11.952 189.855 11.992 189.855 12.04ZM188.823 4.912L194.055 1.072L196.119 3.184L189.207 5.296L188.823 4.912Z" fill="white"/>
</svg>
