<svg width="15" height="26" viewBox="0 0 15 26" fill="none" xmlns="http://www.w3.org/2000/svg">
<path d="M1.75597 12.2634C1.69532 12.3302 1.6482 12.3984 1.60998 12.4631C1.37097 12.8654 1.41758 13.3888 1.75065 13.7433L1.75064 13.7433L1.75252 13.7453L12.0748 24.6114C12.4866 25.0462 13.181 25.0526 13.5991 24.6125C14.0064 24.1865 13.9707 23.5269 13.5878 23.1266C13.5875 23.1264 13.5873 23.1261 13.5871 23.1259L3.97191 13.0017L13.5982 2.87179C13.5984 2.87149 13.5987 2.87119 13.599 2.87089C13.9849 2.46731 14.0111 1.80899 13.6115 1.3865L13.6116 1.38649L13.6091 1.38393C13.1911 0.948249 12.4979 0.954367 12.0861 1.38879C12.0861 1.38888 12.086 1.38896 12.0859 1.38905L1.76362 12.2552L1.76353 12.2551L1.75597 12.2634Z" fill="white" stroke="white"/>
</svg>
