<svg width="22" height="22" viewBox="0 0 22 22" fill="none" xmlns="http://www.w3.org/2000/svg">
<path d="M3.29585 16.7522L2.9956 16.3639C1.90557 14.9543 1.23248 13.2673 1.05268 11.4945C0.872887 9.72166 1.19359 7.93393 1.97841 6.33414C2.76323 4.73436 3.98074 3.38658 5.49279 2.44374C7.00476 1.50094 8.7507 1.00078 10.5325 1L3.29585 16.7522ZM3.29585 16.7522H3.78668M3.29585 16.7522H3.78668M3.78668 16.7522H17.289H17.7798M3.78668 16.7522H17.7798M17.7798 16.7522L18.0801 16.3639M17.7798 16.7522L18.0801 16.3639M18.0801 16.3639C19.1706 14.9536 19.8438 13.2657 20.0233 11.4919C20.2027 9.71816 19.8811 7.92965 19.095 6.3295L18.1974 6.77042M18.0801 16.3639L18.1974 6.77042M18.1974 6.77042L19.095 6.3295C18.3089 4.72936 17.0899 3.38171 15.5763 2.43963M18.1974 6.77042L15.5763 2.43963M16.1962 10.5707L16.202 10.5648L16.1962 10.5707ZM16.1962 10.5707L16.1879 10.5791L16.1962 10.5707ZM15.5763 2.43963C14.0628 1.4976 12.3155 0.998843 10.5328 1L15.5763 2.43963Z" stroke="#D9D9D9" stroke-width="2"/>
<path d="M17.6401 16.1682H3.41594C2.77519 16.1682 2.16069 16.4227 1.70761 16.8758C1.25453 17.3288 1 17.9433 1 18.5841C1 19.2248 1.25454 19.8393 1.70761 20.2924C2.16069 20.7455 2.77519 21 3.41594 21H17.6401C18.2808 21 18.8953 20.7455 19.3484 20.2924C19.8015 19.8393 20.056 19.2248 20.056 18.5841C20.056 17.9433 19.8015 17.3288 19.3484 16.8758C18.8953 16.4227 18.2808 16.1682 17.6401 16.1682Z" stroke="#D9D9D9" stroke-width="2"/>
</svg>
