<svg xmlns="http://www.w3.org/2000/svg" viewBox="0 0 889.87 889.87"><defs><style>.cls-1{fill:#fff;}</style></defs><g id="Layer_2" data-name="Layer 2"><g id="Layer_1-2" data-name="Layer 1"><path class="cls-1" d="M857.29,277.5a444.81,444.81,0,0,0-727-147.18A444.93,444.93,0,1,0,759.55,759.55a445.44,445.44,0,0,0,97.74-482ZM758.85,758.85c-83.85,83.84-195.33,130-313.91,130S214.87,842.69,131,758.85,1,563.52,1,444.93,47.17,214.87,131,131,326.36,1,444.94,1,675,47.17,758.85,131s130,195.33,130,313.91S842.7,675,758.85,758.85Z"/><path class="cls-1" d="M807.93,297.55A391.56,391.56,0,0,0,168,168,391.67,391.67,0,1,0,721.89,721.89a392.11,392.11,0,0,0,86-424.34ZM721.54,720.83l-.35.36-.36.35a390.68,390.68,0,0,1-551.79,0l-.35-.35-.35-.36a390.66,390.66,0,0,1,0-551.79l.35-.36.35-.35A388.1,388.1,0,0,1,343.36,67.78l1-.26a393.52,393.52,0,0,1,201.23,0l1,.26A388.18,388.18,0,0,1,720.83,168.33l.36.35.35.36A388.18,388.18,0,0,1,822.09,343.35c.09.32.18.65.26,1a393.52,393.52,0,0,1,0,201.23c-.08.32-.17.65-.26,1A388.12,388.12,0,0,1,721.54,720.83Z"/><path class="cls-1" d="M764.25,359.89c-.09-.33-.18-.65-.26-1a328.25,328.25,0,0,0-85.15-147.18l-.35-.36-.36-.35A328.25,328.25,0,0,0,531,125.88l-1-.26a334.55,334.55,0,0,0-170.09,0l-1,.26A328.28,328.28,0,0,0,211.74,211l-.36.35-.35.35a328.15,328.15,0,0,0-85.14,147.2c-.09.32-.18.64-.26,1a334.51,334.51,0,0,0,0,170.08c.08.32.17.64.26,1A328.2,328.2,0,0,0,211,678.14l.35.35.36.35A328.17,328.17,0,0,0,358.93,764l1,.26a334.55,334.55,0,0,0,170.09,0l1-.26a328.17,328.17,0,0,0,147.19-85.14l.36-.35.35-.36A328.3,328.3,0,0,0,764,531c.09-.32.17-.65.26-1a334.55,334.55,0,0,0,0-170.09Zm-1,169.83c-.08.32-.17.65-.26,1a327.33,327.33,0,0,1-84.88,146.74l-.35.35-.36.36A327.36,327.36,0,0,1,530.69,763l-1,.26a333.42,333.42,0,0,1-169.57,0l-1-.26a327.15,327.15,0,0,1-146.74-84.88l-.36-.35-.35-.35a327.19,327.19,0,0,1-84.69-146.8c-.09-.32-.17-.65-.25-1a331.5,331.5,0,0,1,0-169.45c.08-.33.16-.65.25-1a327.2,327.2,0,0,1,84.69-146.8l.35-.36.35-.35a327.36,327.36,0,0,1,146.75-84.88l1-.26a333.42,333.42,0,0,1,169.57,0l1,.26a327.29,327.29,0,0,1,146.74,84.88l.36.35.35.36A327.29,327.29,0,0,1,763,359.18c.09.32.18.65.26,1a333.42,333.42,0,0,1,0,169.57Z"/><path class="cls-1" d="M444.94,595.65a150.31,150.31,0,0,1-106.63-44.09c-58.79-58.79-58.79-154.46,0-213.25a150.78,150.78,0,0,1,213.25,0c58.8,58.79,58.8,154.46,0,213.25A150.3,150.3,0,0,1,444.94,595.65Zm0-300.44A149.3,149.3,0,0,0,339,339c-58.41,58.4-58.41,153.43,0,211.83s153.43,58.41,211.83,0,58.41-153.43,0-211.83A149.29,149.29,0,0,0,444.94,295.21Z"/><path class="cls-1" d="M384.85,384.15,169,168.32l-.7.71L384.15,384.85l.34-.36Z"/><path class="cls-1" d="M505,505.72,720.84,721.55l.71-.71L505.72,505l-.34.36Z"/><path class="cls-1" d="M546.54,67.69l-1-.26-79,294.82,1,.26Z"/><path class="cls-1" d="M343.34,822.18l1,.26,79-294.82-1-.26Z"/><path class="cls-1" d="M344.3,67.43l-1,.26,79,294.82,1-.26Z"/><path class="cls-1" d="M545.57,822.44l1-.26-79-294.82-1,.26Z"/><path class="cls-1" d="M67.43,545.57l.26,1,294.82-79c-.09-.32-.18-.64-.26-1Z"/><path class="cls-1" d="M822.44,344.3l-.26-1-294.82,79c.09.32.18.64.26,1Z"/><path class="cls-1" d="M67.69,343.33l-.26,1,294.82,79c.08-.33.17-.65.26-1Z"/><path class="cls-1" d="M527.36,467.54l294.82,79,.26-1-294.82-79C527.54,466.9,527.45,467.22,527.36,467.54Z"/><path class="cls-1" d="M505.72,384.85,721.55,169l-.71-.71L505,384.15l.36.34Z"/><path class="cls-1" d="M384.15,505,168.33,720.84l.7.71L384.85,505.72l-.36-.34Z"/><path class="cls-1" d="M444.94,530.92a86,86,0,1,1,60.79-146.78h0a86,86,0,0,1-60.79,146.78Zm0-171A85,85,0,1,0,505,384.84h0A84.42,84.42,0,0,0,444.94,360Z"/><g id="Layer_2-2" data-name="Layer 2"><g id="OBJECTS"><path class="cls-1" d="M444.9,248.4a3.43,3.43,0,0,1-3.42-3.43v0c0-57.49-14.58-69.13-20.83-71.6a12.37,12.37,0,0,0-13.38,3.21,9.91,9.91,0,0,0-2.13,11.06,9.43,9.43,0,0,0,8.32,5.7c3,0,4.18-1.85,4.21-3.46,0-.69-.23-3-3.54-3.12a3.41,3.41,0,0,1-3.33-3.48,1,1,0,0,1,0-.17,3.45,3.45,0,0,1,3.54-3.32,9.9,9.9,0,0,1,10.17,9.62,3.69,3.69,0,0,1,0,.47,10.54,10.54,0,0,1-10.85,10.22h-.21a16.23,16.23,0,0,1-14.6-9.74A16.8,16.8,0,0,1,402.1,172a19.17,19.17,0,0,1,21-5.06c11.53,4.26,25.24,21.43,25.24,78a3.43,3.43,0,0,1-3.4,3.46Z"/><path class="cls-1" d="M444.9,248.4a3.43,3.43,0,0,1-3.42-3.43v0c0-56.58,13.82-73.67,25.24-78a19.17,19.17,0,0,1,21,5.06A16.82,16.82,0,0,1,491,190.32a16.24,16.24,0,0,1-14.6,9.74,10.54,10.54,0,0,1-11.06-10,1.55,1.55,0,0,0,0-.22A9.91,9.91,0,0,1,475,179.76h.47a3.43,3.43,0,0,1,3.54,3.31h0a3.4,3.4,0,0,1-3.26,3.54h-.06c-3.32,0-3.54,2.43-3.54,3.12,0,1.61,1.16,3.46,4.21,3.46a9.44,9.44,0,0,0,8.29-5.7,9.89,9.89,0,0,0-2.13-11.06,12.37,12.37,0,0,0-13.38-3.21c-6.25,2.38-20.82,14.11-20.82,71.6a3.43,3.43,0,0,1-3.29,3.56Z"/></g></g><g id="Layer_2-3" data-name="Layer 2"><g id="OBJECTS-2" data-name="OBJECTS"><path class="cls-1" d="M281.73,574.21a3.69,3.69,0,0,1-4.45,2.57l-14-3.77-3.53,13.21a3.64,3.64,0,0,1-7-1.88l3.54-13.21L214.6,560l9,15.54a3.65,3.65,0,0,1-6.3,3.65L204.47,557a3.67,3.67,0,0,1,1.33-5l21.3-12.3a3.65,3.65,0,0,1,3.67,6.3h0l-12.67,7.31,40,10.72,3.45-12.88a3.68,3.68,0,0,1,4.46-2.57,3.69,3.69,0,0,1,2.54,4.47L265.1,566l14.06,3.77a3.61,3.61,0,0,1,2.2,1.7A3.74,3.74,0,0,1,281.73,574.21Z"/></g></g><g id="Layer_2-4" data-name="Layer 2"><g id="OBJECTS-3" data-name="OBJECTS"><path class="cls-1" d="M646.5,548.86a19.53,19.53,0,1,1,7.19,26.68l0,0A19.56,19.56,0,0,1,646.5,548.86ZM674,564.76a12.26,12.26,0,1,0-16.74,4.48h0A12.29,12.29,0,0,0,674,564.76Z"/><path class="cls-1" d="M607.19,571.15l.31-.53A16.22,16.22,0,0,1,619.42,564c11.24-.57,23.11,11.22,33.61,21.64,3.93,3.89,7.63,7.54,11,10.24a10.73,10.73,0,0,0,11.34,2,11.7,11.7,0,0,0,7.16-9.55c.63-5.58-2.75-11.24-9.52-16a3.64,3.64,0,1,1,4.16-6h0c12.14,8.63,13.07,18,12.54,22.85a18.92,18.92,0,0,1-11.63,15.47,18.1,18.1,0,0,1-18.67-3.05c-3.59-2.91-7.41-6.71-11.49-10.75-8.93-8.87-20.07-19.93-28-19.57a9.08,9.08,0,0,0-6.64,3.83,3.62,3.62,0,0,1-6-4.11Z"/></g></g><g id="Layer_2-5" data-name="Layer 2"><g id="OBJECTS-4" data-name="OBJECTS"><path class="cls-1" d="M673.51,427.83a17.55,17.55,0,1,1,17.55,17.54h-.15A17.55,17.55,0,0,1,673.51,427.83Zm27.55,0a10.15,10.15,0,1,0-10.29,10h.14A10.15,10.15,0,0,0,701.06,427.83Z"/><path class="cls-1" d="M696.29,417.3a3.66,3.66,0,0,1,6.06-2.75c23.39,20.47,7.51,69.16,6.84,71.24a3.65,3.65,0,0,1-6.9-2.4c.14-.35,15-46.15-4.8-63.37A3.67,3.67,0,0,1,696.29,417.3Z"/><path class="cls-1" d="M656.87,470.87a17.55,17.55,0,1,1,17.55,17.55A17.54,17.54,0,0,1,656.87,470.87Zm27.55,0A10.15,10.15,0,1,0,674.27,481h0A10.14,10.14,0,0,0,684.42,470.87Z"/><path class="cls-1" d="M650.17,448.77a127.82,127.82,0,0,1,5.85-36,3.63,3.63,0,0,1,6.9,2.28c-.14.46-15,46.26,4.74,63.49a3.63,3.63,0,1,1-4.79,5.46C653,475.44,650.17,461.81,650.17,448.77Z"/></g></g><g id="Layer_2-6" data-name="Layer 2"><g id="OBJECTS-5" data-name="OBJECTS"><path class="cls-1" d="M251.42,318.06a3.29,3.29,0,0,0,0-.94A3,3,0,0,1,251.42,318.06Z"/><path class="cls-1" d="M263.35,295.83l-16.42,4.4,4.39,16.39v0a3.89,3.89,0,0,1,.09.47,3.29,3.29,0,0,1,0,.94,3.55,3.55,0,0,1-.09.47v0a3.49,3.49,0,0,1-.27.7,1.14,1.14,0,0,1-.1.19.46.46,0,0,1-.08.13,1.05,1.05,0,0,1-.18.25s0,0,0,0a2.67,2.67,0,0,1-.31.36,3.68,3.68,0,0,1-.37.32l-.24.16a1.35,1.35,0,0,1-.26.15,4.26,4.26,0,0,1-.62.26l-.06,0h0s0,0,0,0l-16.45,4.39,4.33,16.22a.85.85,0,0,1,.06.17,3.61,3.61,0,0,1-.37,2.85,3.68,3.68,0,0,1-2.2,1.7l-16.44,4.38,4.4,16.42a3.64,3.64,0,0,1-7,1.89l-6.29-23.45,20-5.36-5.35-20,20-5.34-5.37-20,23.45-6.28a3.64,3.64,0,1,1,1.89,7Z"/><path class="cls-1" d="M251.06,319.25a1.3,1.3,0,0,1-.08.17l0,0A1.14,1.14,0,0,0,251.06,319.25Z"/><path class="cls-1" d="M268.5,329.53a0,0,0,0,1,0,0l-.18.28A3.21,3.21,0,0,0,268.5,329.53Z"/><path class="cls-1" d="M280.87,306l-16.42,4.4,4.4,16.41a3.49,3.49,0,0,1,0,1.95,3.12,3.12,0,0,1-.15.43,3.49,3.49,0,0,1-.19.39,3.21,3.21,0,0,1-.19.31,3.79,3.79,0,0,1-.76.79,3.47,3.47,0,0,1-1.28.62l-16.42,4.4,4.38,16.44a.25.25,0,0,1,0,.12.51.51,0,0,1,0,.13,3.51,3.51,0,0,1-.39,2.55,3.64,3.64,0,0,1-2.23,1.68L235.22,361l4.4,16.42a3.63,3.63,0,1,1-7,1.9l-6.28-23.45,20-5.35-5.35-20,20-5.32-5.36-20L279,298.93a3.63,3.63,0,0,1,1.86,7Z"/></g></g><g id="Layer_2-7" data-name="Layer 2"><g id="OBJECTS-6" data-name="OBJECTS"><path class="cls-1" d="M424.94,663.09a3.28,3.28,0,0,1,2.62,5,21.16,21.16,0,1,0,35.24,0,3.26,3.26,0,1,1,5.42-3.61,27.67,27.67,0,1,1-46.08,0A3.21,3.21,0,0,1,424.94,663.09Z"/><path class="cls-1" d="M401.59,663.09h23.32a3.27,3.27,0,1,1,.59,6.52H401.59a3.27,3.27,0,0,1,0-6.52Z"/><path class="cls-1" d="M465.55,663.09h23.38a3.27,3.27,0,0,1,0,6.52H465.55a3.27,3.27,0,0,1,0-6.52Z"/><path class="cls-1" d="M401.59,682.12h87.34a3.27,3.27,0,0,1,0,6.52H401.59a3.27,3.27,0,0,1,0-6.52Z"/></g></g><g id="Layer_2-8" data-name="Layer 2"><g id="OBJECTS-7" data-name="OBJECTS"><path class="cls-1" d="M365.6,267.45a4.11,4.11,0,0,1-.75.63,3.6,3.6,0,0,1-4.23-.43,114.22,114.22,0,0,1-21.9-25.75L321,252.12a114.46,114.46,0,0,1,11.47,32,3.63,3.63,0,0,1-1.92,3.74,3.64,3.64,0,0,1-5.44-2.63,109.27,109.27,0,0,0-10.59-29.39l-6.3,3.64a3.63,3.63,0,0,1-3.63-6.28l6.31-3.64a108.76,108.76,0,0,0-20.27-24.05,3.6,3.6,0,0,1-.33-5.08l.06-.07a3.65,3.65,0,0,1,5.13-.29,114.09,114.09,0,0,1,21.88,25.75l17.71-10.22a114,114,0,0,1-11.45-32,3.62,3.62,0,1,1,7.18-1A109.33,109.33,0,0,0,341.41,232l6.91-4a3.62,3.62,0,1,1,3.62,6.28l-6.91,4a109,109,0,0,0,20.27,24.06A3.65,3.65,0,0,1,365.6,267.45Z"/></g></g><g id="Layer_2-9" data-name="Layer 2"><g id="OBJECTS-8" data-name="OBJECTS"><path class="cls-1" d="M667.62,321a105.25,105.25,0,0,1-13.07-34.8,3.66,3.66,0,0,1,7.21-1h0a109.23,109.23,0,0,0,34.48,59.72,3.63,3.63,0,1,1-4.84,5.42h0A118.61,118.61,0,0,1,667.62,321Z"/><path class="cls-1" d="M605,316.36a3.66,3.66,0,0,1,5.58-4.55,114.53,114.53,0,0,1,37,64.06,3.66,3.66,0,0,1-7.12,1.66,3.52,3.52,0,0,1-.09-.64,109.26,109.26,0,0,0-34.48-59.72A3.06,3.06,0,0,1,605,316.36Z"/><path class="cls-1" d="M614.61,325.17a3.66,3.66,0,0,1,1.33-4.95L659.65,295a3.66,3.66,0,0,1,3.64,6.31l-43.71,25.24A3.66,3.66,0,0,1,614.61,325.17Z"/><path class="cls-1" d="M637.9,365.52a3.66,3.66,0,0,1,1.33-4.95l43.71-25.24a3.65,3.65,0,0,1,3.64,6.3l-43.71,25.24A3.66,3.66,0,0,1,637.9,365.52Z"/></g></g><g id="Layer_2-10" data-name="Layer 2"><g id="OBJECTS-9" data-name="OBJECTS"><path class="cls-1" d="M238.51,430.38A13.75,13.75,0,0,0,228.64,407h0a13.75,13.75,0,0,0-13.72,13.78,13.59,13.59,0,0,0,1.76,6.71H197.48a23.41,23.41,0,0,0-17.31,39.16,20.59,20.59,0,0,0-9.52,17.15,3.52,3.52,0,1,0,7,0c0-7.64,5.83-11.13,8.62-12.29a23.36,23.36,0,0,0,11.17,2.83h30.63a3.51,3.51,0,0,0,0-7H197.48a16.29,16.29,0,0,1-8.15-2.17,12.7,12.7,0,0,1-1.47-.95,16.42,16.42,0,0,1,9.62-29.72H227.8q.44,0,.87,0a13.45,13.45,0,0,0,2.21-.18c4.57.26,5.26,5.59,5.26,8.82a3.51,3.51,0,0,0,7,0C243.13,437.57,241.44,433.11,238.51,430.38Zm-9.87-2.85a6.77,6.77,0,1,1,6.77-6.76A6.76,6.76,0,0,1,228.64,427.53Z"/><path class="cls-1" d="M189.33,465.19a12.7,12.7,0,0,1-1.47-.95A3.66,3.66,0,0,1,189.33,465.19Z"/></g></g><g id="Layer_2-11" data-name="Layer 2"><g id="OBJECTS-10" data-name="OBJECTS"><path class="cls-1" d="M322.88,608.55a14,14,0,0,1,7.14,14,19.71,19.71,0,0,1-2.66,8l-22.08,38.24a6.85,6.85,0,1,0,11.38,7.61,6.06,6.06,0,0,0,.45-.78l23.06-39.94a3.65,3.65,0,0,1,6.3,3.64l-23.05,39.94A14.12,14.12,0,0,1,299,665.22L321.06,627a12.45,12.45,0,0,0,1.7-5.06,6.68,6.68,0,0,0-3.5-7.09,3.62,3.62,0,0,1,3.62-6.28Z"/><path class="cls-1" d="M345.15,634.44a3.62,3.62,0,0,1,1.32,4.95l-23.05,39.94a6.85,6.85,0,1,0,11.38,7.61,7.44,7.44,0,0,0,.44-.78l23.06-39.94a3.66,3.66,0,0,1,6.31,3.64L341.55,689.8a14.12,14.12,0,0,1-24.44-14.11l23.06-39.94a3.63,3.63,0,0,1,4.95-1.32Z"/><path class="cls-1" d="M336.12,688.8a3.61,3.61,0,0,1,1.73,3.83,7.6,7.6,0,0,0,3.44,7.8,3.65,3.65,0,0,1-3.64,6.3,14.93,14.93,0,0,1-6.93-15.48,3.63,3.63,0,0,1,4.2-2.94H335A3.31,3.31,0,0,1,336.12,688.8Z"/><path class="cls-1" d="M327.17,602.76a3.45,3.45,0,0,1,1.31,1.29,3.65,3.65,0,0,1,0,3.66l-7.05,12.21a3.65,3.65,0,0,1-6.32,0l-6.78-12.12a3.66,3.66,0,0,1,3.13-5.42l13.88-.19A3.66,3.66,0,0,1,327.17,602.76Zm-8.88,8.07.7-1.21-1.36,0Z"/></g></g><g id="Layer_2-12" data-name="Layer 2"><g id="OBJECTS-11" data-name="OBJECTS"><path class="cls-1" d="M521.66,640.1a14,14,0,0,1,15.71.83,19.57,19.57,0,0,1,5.64,6.33l22.08,38.24a6.85,6.85,0,1,0,12.28-6.06,6.71,6.71,0,0,0-.45-.77l-23.06-39.94a3.66,3.66,0,0,1,6.31-3.64L583.23,675a14.13,14.13,0,0,1-24.44,14.11L536.71,650.9a12.36,12.36,0,0,0-3.53-4,6.66,6.66,0,0,0-7.89-.51,3.63,3.63,0,1,1-3.63-6.28Z"/><path class="cls-1" d="M555.21,633.76a3.64,3.64,0,0,1,5,1.33L583.23,675a6.84,6.84,0,0,0,12.27-6,6.06,6.06,0,0,0-.45-.78L572,628.26a3.66,3.66,0,0,1,6.31-3.64l23.06,39.94a14.12,14.12,0,0,1-24.44,14.11l-23.06-39.94a3.62,3.62,0,0,1,1.33-5Z"/><path class="cls-1" d="M597.75,668.77a3.64,3.64,0,0,1,4.21.4,7.57,7.57,0,0,0,8.47.92,3.66,3.66,0,0,1,3.64,6.31,14.93,14.93,0,0,1-16.87-1.74,3.62,3.62,0,0,1-.45-5.11l.06-.07A3.43,3.43,0,0,1,597.75,668.77Z"/><path class="cls-1" d="M545.16,626.53a3.63,3.63,0,0,1,4.47,5.63c-15.26,16.34-11.39,35.55-4.94,41.68a5.24,5.24,0,0,0,7.34,1,5.86,5.86,0,0,0,1-1,3.63,3.63,0,1,1,5.19,5.07h0a12.37,12.37,0,0,1-17.45,1.29,10.19,10.19,0,0,1-1.1-1.08c-9.48-9.05-13.32-32.83,4.66-51.93A3.51,3.51,0,0,1,545.16,626.53Z"/></g></g><g id="Layer_2-13" data-name="Layer 2"><g id="OBJECTS-12" data-name="OBJECTS"><path class="cls-1" d="M610.52,231.54c-1.83-1.32-3.13-8.56-3.09-14.24a3.6,3.6,0,0,0-1.8-3.13,3.71,3.71,0,0,0-3.61-.06L580.52,226a24.69,24.69,0,0,0-8.3-4.8l-.59-24.65a3.52,3.52,0,0,0-1.84-3.08,3.61,3.61,0,0,0-3.61,0c-5,2.79-11.82,5.37-13.91,4.43a3.63,3.63,0,0,0-2.95,6.64c4.36,2,10.5,0,15.16-2.05l.29,17.05a28.68,28.68,0,1,0,20.82,12l14.91-8.28c.48,5,2,11.31,5.78,14.14a3.59,3.59,0,0,0,5-.72l.05-.06a3.65,3.65,0,0,0-.83-5.1Zm-29.8,27.17a21.41,21.41,0,1,1-7.83-29.24h0A21.4,21.4,0,0,1,580.72,258.71Z"/></g></g><path class="cls-1" d="M448.48,320.5a3.41,3.41,0,0,1-3.42-3.4h0a.12.12,0,0,0-.12-.12h0a.11.11,0,0,0-.11.12h0a3.41,3.41,0,0,1-3.42,3.4h0a.11.11,0,0,0-.11.11h0a.11.11,0,0,0,.11.11h0a3.41,3.41,0,0,1,3.42,3.4h0a.11.11,0,0,0,.11.11h0a.11.11,0,0,0,.12-.11h0a3.41,3.41,0,0,1,3.42-3.4h0a.11.11,0,0,0,.11-.11h0a.11.11,0,0,0-.11-.11Z"/><path class="cls-1" d="M510.11,339.11a3.41,3.41,0,0,1-1.26-4.65h0a.13.13,0,0,0,0-.16h0a.11.11,0,0,0-.15,0h0a3.42,3.42,0,0,1-4.67,1.24h0a.11.11,0,0,0-.15,0h0a.11.11,0,0,0,0,.15h0a3.41,3.41,0,0,1,1.26,4.66h0a.11.11,0,0,0,0,.15h0a.11.11,0,0,0,.15,0h0a3.4,3.4,0,0,1,4.66-1.23h0a.11.11,0,0,0,.15,0h0a.12.12,0,0,0,0-.16Z"/><path class="cls-1" d="M554.47,385.77a3.41,3.41,0,0,1,1.24-4.66h0a.11.11,0,0,0,0-.15h0a.11.11,0,0,0-.16,0h0a3.4,3.4,0,0,1-4.65-1.27h0a.11.11,0,0,0-.15,0h0a.11.11,0,0,0,0,.16h0a3.41,3.41,0,0,1-1.24,4.66h0a.11.11,0,0,0,0,.15h0a.1.1,0,0,0,.15,0h0a3.42,3.42,0,0,1,4.66,1.26h0a.11.11,0,0,0,.15,0h0a.12.12,0,0,0,0-.16Z"/><path class="cls-1" d="M569.37,448.47a3.42,3.42,0,0,1,3.41-3.42h0a.11.11,0,0,0,.11-.11h0a.11.11,0,0,0-.11-.11h0a3.42,3.42,0,0,1-3.41-3.42h0a.11.11,0,0,0-.11-.11h0a.11.11,0,0,0-.11.11h0a3.41,3.41,0,0,1-3.4,3.42h0a.11.11,0,0,0-.11.11h0a.11.11,0,0,0,.11.11h0a3.41,3.41,0,0,1,3.4,3.42h0a.11.11,0,0,0,.11.11h0a.11.11,0,0,0,.11-.11Z"/><path class="cls-1" d="M504.08,554.44a3.41,3.41,0,0,1,4.66,1.23h0a.1.1,0,0,0,.15,0h0a.11.11,0,0,0,.05-.15h0a3.41,3.41,0,0,1,1.26-4.66h0a.11.11,0,0,0,0-.15h0a.11.11,0,0,0-.15,0h0a3.42,3.42,0,0,1-4.67-1.23h0a.1.1,0,0,0-.15,0h0a.11.11,0,0,0,0,.15h0a3.41,3.41,0,0,1-1.26,4.65h0a.1.1,0,0,0,0,.15h0a.11.11,0,0,0,.15,0Z"/><path class="cls-1" d="M550.91,510.2a3.41,3.41,0,0,1,4.66-1.26h0a.11.11,0,0,0,.15,0h0a.1.1,0,0,0,0-.15h0a3.42,3.42,0,0,1-1.23-4.67h0a.11.11,0,0,0,0-.15h0a.13.13,0,0,0-.16,0h0a3.4,3.4,0,0,1-4.65,1.26h0a.11.11,0,0,0-.15,0h0a.11.11,0,0,0,0,.16h0a3.41,3.41,0,0,1,1.23,4.66h0a.11.11,0,0,0,0,.15h0a.11.11,0,0,0,.15,0Z"/><path class="cls-1" d="M441.5,569.37a3.41,3.41,0,0,1,3.42,3.4h0a.11.11,0,0,0,.11.12h0a.11.11,0,0,0,.11-.12h0a3.42,3.42,0,0,1,3.42-3.4h0a.11.11,0,0,0,.11-.11h0a.11.11,0,0,0-.12-.11h0a3.41,3.41,0,0,1-3.42-3.4h0a.11.11,0,0,0-.11-.11h0a.11.11,0,0,0-.11.11h0a3.41,3.41,0,0,1-3.42,3.4h0a.11.11,0,0,0-.11.11h0a.11.11,0,0,0,.11.11Z"/><path class="cls-1" d="M379.64,551a3.41,3.41,0,0,1,1.26,4.65h0a.13.13,0,0,0,0,.16h0a.11.11,0,0,0,.15,0h0a3.42,3.42,0,0,1,4.67-1.24h0a.11.11,0,0,0,.15,0h0a.11.11,0,0,0,0-.15h0a3.41,3.41,0,0,1-1.26-4.66h0a.11.11,0,0,0,0-.15h0a.11.11,0,0,0-.15,0h0a3.4,3.4,0,0,1-4.66,1.23h0a.11.11,0,0,0-.15,0h0a.12.12,0,0,0,0,.16Z"/><path class="cls-1" d="M320.5,441.4a3.41,3.41,0,0,1-3.4,3.42h0a.11.11,0,0,0-.11.11h0a.11.11,0,0,0,.11.11h0a3.41,3.41,0,0,1,3.4,3.42h0a.11.11,0,0,0,.11.11h0a.11.11,0,0,0,.11-.11h0a3.41,3.41,0,0,1,3.4-3.42h0a.11.11,0,0,0,.11-.11h0a.11.11,0,0,0-.11-.11h0a3.41,3.41,0,0,1-3.4-3.42h0a.11.11,0,0,0-.11-.11h0a.11.11,0,0,0-.11.11Z"/><path class="cls-1" d="M335.39,504.1a3.4,3.4,0,0,1-1.23,4.66h0a.11.11,0,0,0,0,.15h0a.11.11,0,0,0,.15,0h0a3.41,3.41,0,0,1,4.66,1.26h0a.11.11,0,0,0,.15,0h0a.11.11,0,0,0,0-.15h0a3.42,3.42,0,0,1,1.23-4.67h0a.1.1,0,0,0,0-.15h0a.11.11,0,0,0-.15,0h0a3.41,3.41,0,0,1-4.65-1.26h0a.11.11,0,0,0-.16,0h0a.11.11,0,0,0,0,.15Z"/><path class="cls-1" d="M338.93,379.65a3.41,3.41,0,0,1-4.66,1.26h0a.11.11,0,0,0-.15,0h0a.11.11,0,0,0,0,.15h0a3.41,3.41,0,0,1,1.24,4.66h0a.11.11,0,0,0,.05.15h0a.1.1,0,0,0,.15,0h0a3.41,3.41,0,0,1,4.65-1.26h0a.12.12,0,0,0,.16,0h0a.11.11,0,0,0,0-.15h0a3.42,3.42,0,0,1-1.24-4.67h0a.11.11,0,0,0,0-.15h0a.11.11,0,0,0-.15,0Z"/><path class="cls-1" d="M385.77,335.39a3.41,3.41,0,0,1-4.66-1.23h0a.1.1,0,0,0-.15,0h0a.11.11,0,0,0,0,.15h0a3.41,3.41,0,0,1-1.26,4.66h0a.11.11,0,0,0,0,.15h0a.11.11,0,0,0,.15,0h0a3.42,3.42,0,0,1,4.67,1.23h0a.1.1,0,0,0,.15,0h0a.11.11,0,0,0,0-.15h0a3.41,3.41,0,0,1,1.26-4.65h0a.1.1,0,0,0,0-.15h0a.11.11,0,0,0-.15,0Z"/><path class="cls-1" d="M456.83,26.75a11.46,11.46,0,0,1-11.49-11.43h0A.38.38,0,0,0,445,15h0a.37.37,0,0,0-.37.37h0a11.46,11.46,0,0,1-11.5,11.43h0a.38.38,0,0,0-.38.37h0a.38.38,0,0,0,.38.38h0a11.47,11.47,0,0,1,11.5,11.43h0a.36.36,0,0,0,.37.37h0a.37.37,0,0,0,.38-.37h0A11.47,11.47,0,0,1,456.83,27.5h0a.38.38,0,0,0,.37-.37h0a.38.38,0,0,0-.38-.38Z"/><path class="cls-1" d="M664,89.31a11.46,11.46,0,0,1-4.24-15.64h0a.37.37,0,0,0-.14-.51h0a.37.37,0,0,0-.51.14h0a11.45,11.45,0,0,1-15.67,4.15h0a.37.37,0,0,0-.51.14h0a.37.37,0,0,0,.14.51h0a11.48,11.48,0,0,1,4.24,15.65h0a.37.37,0,0,0,.13.51h0a.38.38,0,0,0,.51-.14h0A11.47,11.47,0,0,1,663.59,90h0a.36.36,0,0,0,.51-.13h0a.39.39,0,0,0-.14-.52Z"/><path class="cls-1" d="M813,246.12a11.45,11.45,0,0,1,4.15-15.67h0a.36.36,0,0,0,.13-.51h0a.37.37,0,0,0-.51-.14h0a11.47,11.47,0,0,1-15.65-4.24h0a.38.38,0,0,0-.51-.13h0a.36.36,0,0,0-.13.51h0a11.47,11.47,0,0,1-4.15,15.67h0a.38.38,0,0,0-.14.51h0a.36.36,0,0,0,.51.13h0a11.48,11.48,0,0,1,15.65,4.24h0a.36.36,0,0,0,.51.13h0a.37.37,0,0,0,.14-.51Z"/><path class="cls-1" d="M863.12,456.81a11.47,11.47,0,0,1,11.43-11.5h0a.38.38,0,0,0,.37-.37h0a.38.38,0,0,0-.37-.37h0a11.47,11.47,0,0,1-11.43-11.5h0a.37.37,0,0,0-.37-.37h0a.38.38,0,0,0-.38.37h0a11.47,11.47,0,0,1-11.43,11.5h0a.37.37,0,0,0-.37.37h0a.37.37,0,0,0,.37.37h0a11.47,11.47,0,0,1,11.43,11.5h0a.37.37,0,0,0,.37.37h0a.38.38,0,0,0,.38-.37Z"/><path class="cls-1" d="M643.69,812.92a11.47,11.47,0,0,1,15.67,4.16h0a.37.37,0,0,0,.51.13h0a.37.37,0,0,0,.14-.51h0a11.46,11.46,0,0,1,4.24-15.65h0a.37.37,0,0,0,.14-.51h0a.36.36,0,0,0-.51-.13h0a11.46,11.46,0,0,1-15.67-4.16h0a.39.39,0,0,0-.52-.13h0a.37.37,0,0,0-.14.51h0a11.46,11.46,0,0,1-4.24,15.65h0a.37.37,0,0,0-.14.51h0a.38.38,0,0,0,.52.13Z"/><path class="cls-1" d="M801.08,664.27A11.47,11.47,0,0,1,816.73,660h0a.36.36,0,0,0,.51-.13h0a.37.37,0,0,0-.13-.51h0A11.45,11.45,0,0,1,813,643.7h0a.37.37,0,0,0-.14-.51h0a.37.37,0,0,0-.51.14h0a11.46,11.46,0,0,1-15.65,4.24h0a.37.37,0,0,0-.51.14h0a.37.37,0,0,0,.14.51h0a11.47,11.47,0,0,1,4.15,15.67h0a.37.37,0,0,0,.14.51h0a.36.36,0,0,0,.51-.13Z"/><path class="cls-1" d="M433.39,863.12a11.46,11.46,0,0,1,11.49,11.43h0a.38.38,0,0,0,.38.37h0a.37.37,0,0,0,.37-.37h0a11.46,11.46,0,0,1,11.5-11.43h0a.38.38,0,0,0,.38-.38h0a.38.38,0,0,0-.38-.37h0a11.47,11.47,0,0,1-11.5-11.43h0a.37.37,0,0,0-.37-.38h0a.38.38,0,0,0-.38.38h0a11.47,11.47,0,0,1-11.49,11.43h0a.37.37,0,0,0-.37.37h0a.38.38,0,0,0,.38.38Z"/><path class="cls-1" d="M225.5,801.26a11.46,11.46,0,0,1,4.24,15.65h0a.37.37,0,0,0,.14.51h0a.36.36,0,0,0,.51-.13h0a11.45,11.45,0,0,1,15.67-4.15h0a.37.37,0,0,0,.5-.14h0a.36.36,0,0,0-.13-.51h0a11.46,11.46,0,0,1-4.24-15.65h0a.37.37,0,0,0-.14-.51h0a.39.39,0,0,0-.52.14h0a11.47,11.47,0,0,1-15.67,4.15h0a.38.38,0,0,0-.51.14h0a.37.37,0,0,0,.14.51Z"/><path class="cls-1" d="M26.75,433.06a11.46,11.46,0,0,1-11.43,11.5h0a.38.38,0,0,0-.37.37h0a.38.38,0,0,0,.37.37h0a11.46,11.46,0,0,1,11.43,11.5h0a.37.37,0,0,0,.38.37h0a.38.38,0,0,0,.37-.37h0a11.47,11.47,0,0,1,11.43-11.5h0a.38.38,0,0,0,.38-.37h0a.38.38,0,0,0-.38-.37h0a11.47,11.47,0,0,1-11.43-11.5h0a.36.36,0,0,0-.37-.37h0a.38.38,0,0,0-.38.37Z"/><path class="cls-1" d="M76.81,643.76a11.45,11.45,0,0,1-4.15,15.67h0a.38.38,0,0,0-.14.51h0a.36.36,0,0,0,.51.13h0a11.46,11.46,0,0,1,15.64,4.25h0a.35.35,0,0,0,.5.13h0a.37.37,0,0,0,.14-.51h0a11.47,11.47,0,0,1,4.15-15.67h0a.37.37,0,0,0,.14-.51h0a.38.38,0,0,0-.51-.14h0a11.46,11.46,0,0,1-15.65-4.24h0a.38.38,0,0,0-.51-.14h0a.37.37,0,0,0-.14.51Z"/><path class="cls-1" d="M88.69,225.55A11.47,11.47,0,0,1,73,229.79h0a.37.37,0,0,0-.51.14h0a.37.37,0,0,0,.14.51h0a11.47,11.47,0,0,1,4.15,15.67h0a.36.36,0,0,0,.13.51h0a.38.38,0,0,0,.52-.14h0a11.47,11.47,0,0,1,15.64-4.24h0a.36.36,0,0,0,.51-.13h0a.38.38,0,0,0-.14-.51h0a11.45,11.45,0,0,1-4.15-15.67h0a.37.37,0,0,0-.14-.51h0a.37.37,0,0,0-.51.14Z"/><path class="cls-1" d="M246.11,76.81a11.45,11.45,0,0,1-15.67-4.15h0a.38.38,0,0,0-.51-.14h0a.36.36,0,0,0-.13.51h0a11.47,11.47,0,0,1-4.24,15.64h0a.35.35,0,0,0-.13.5h0a.37.37,0,0,0,.51.14h0a11.47,11.47,0,0,1,15.67,4.15h0a.37.37,0,0,0,.51.14h0a.37.37,0,0,0,.14-.51h0a11.47,11.47,0,0,1,4.24-15.65h0a.38.38,0,0,0,.13-.51h0a.37.37,0,0,0-.51-.14Z"/><path class="cls-1" d="M444.43,464a21.71,21.71,0,0,1-21.77-21.65h0a.7.7,0,0,0-.71-.7h0a.7.7,0,0,0-.71.7h0A21.7,21.7,0,0,1,399.46,464h0a.7.7,0,0,0-.7.71h0a.71.71,0,0,0,.71.71h0a21.7,21.7,0,0,1,21.77,21.65h0a.71.71,0,0,0,.71.71h0a.71.71,0,0,0,.71-.71h0a21.71,21.71,0,0,1,21.77-21.65h0a.71.71,0,0,0,.71-.7h0a.72.72,0,0,0-.72-.72Z"/><path class="cls-1" d="M450.54,478.51a8.46,8.46,0,0,1-8.48-8.43h0a.28.28,0,0,0-.27-.28h0a.28.28,0,0,0-.27.28h0a8.46,8.46,0,0,1-8.48,8.43h0a.27.27,0,0,0-.27.27h0a.28.28,0,0,0,.27.28h0a8.45,8.45,0,0,1,8.48,8.42h0a.28.28,0,0,0,.27.28h0a.28.28,0,0,0,.27-.28h0a8.45,8.45,0,0,1,8.48-8.42h0a.28.28,0,0,0,.27-.28h0a.27.27,0,0,0-.27-.27Z"/><path class="cls-1" d="M460.06,488.47h29L454.66,401.4H432.83v.36a26.31,26.31,0,0,1,2.16,9.6,14.61,14.61,0,0,1-.72,4.67l-8,22.3c-.06,1.2-.08,2.31-.08,3.3a19,19,0,0,0,1.88,8.24l12.12-34.07L459.7,468a22.46,22.46,0,0,1,1.56,6.89q.12,3.06.12,4.26a31.22,31.22,0,0,1-.3,4.62C460.88,485.06,460.06,488.47,460.06,488.47Z"/><path class="cls-1" d="M415.68,78.48v-.07l6.71-.43a5.43,5.43,0,0,1,3.73,1,3.94,3.94,0,0,1,1.65,3,3.73,3.73,0,0,1-.71,2.52,5.55,5.55,0,0,1-2.2,1.71,6.34,6.34,0,0,1,2.95,1.36,3.79,3.79,0,0,1,1.31,2.75,3.88,3.88,0,0,1-1.5,3.45,7.24,7.24,0,0,1-4.2,1.48l-6.63.42v-.07a15.21,15.21,0,0,0,.25-3.26l-.68-10.64A14.54,14.54,0,0,0,415.68,78.48Zm2.61.6.46,7.14L422.1,86a3.57,3.57,0,0,0,2.63-1.16,3.71,3.71,0,0,0,.78-2.74,3.62,3.62,0,0,0-1.05-2.45,3.27,3.27,0,0,0-2.63-.8Zm.51,8,.49,7.54,3.47-.22c2.9-.19,4.28-1.51,4.12-4a3.55,3.55,0,0,0-1.39-2.8,4.85,4.85,0,0,0-3.22-.8l-1.84.12Z"/><path class="cls-1" d="M432.26,84.42a5,5,0,0,1,3.84-1.78,4.55,4.55,0,0,1,3.66,1.48,6,6,0,0,1,1.48,4l-8.26.22a6.14,6.14,0,0,0,1.2,3.67,3.57,3.57,0,0,0,3.09,1.35,5.69,5.69,0,0,0,4-2l.09,0a5.67,5.67,0,0,1-1.91,2.43,5.08,5.08,0,0,1-2.94,1,5.2,5.2,0,0,1-4-1.58,7,7,0,0,1-.26-8.85Zm.48-3.66,4.91-3.32,1.6,1.54-6.12,2.13Zm6.39,6.58a5.73,5.73,0,0,0-.92-2.91,2.36,2.36,0,0,0-2.09-1,2.62,2.62,0,0,0-2.25,1.26,5.9,5.9,0,0,0-.88,3.09Z"/><path class="cls-1" d="M443,77.2v-.1l.45,0,2.09-.35,0,14.52a15.32,15.32,0,0,0,.47,3.24v.07h-2.91v-.07a15.1,15.1,0,0,0,.45-3.24l0-10.9A8.27,8.27,0,0,0,443,77.2Z"/><path class="cls-1" d="M448.25,94.48a14.74,14.74,0,0,0,.49-3.23l.07-5.26a14.85,14.85,0,0,0-.42-3.24v-.07l2.4,0-.1,8.56a15.46,15.46,0,0,0,.41,3.25v.07l-2.85,0Zm.52-17.22a1.47,1.47,0,0,1,1-.4,1.51,1.51,0,0,1,1.05.43,1.43,1.43,0,0,1,.42,1,1.38,1.38,0,0,1-.45,1,1.42,1.42,0,0,1-1.06.41,1.4,1.4,0,0,1-1-.43,1.35,1.35,0,0,1-.42-1A1.37,1.37,0,0,1,448.77,77.26Z"/><path class="cls-1" d="M453.1,88.64a6.19,6.19,0,0,1,1.7-4.33,5.1,5.1,0,0,1,4-1.54,4.56,4.56,0,0,1,3.57,1.7,6,6,0,0,1,1.22,4.14l-8.26-.3a6.14,6.14,0,0,0,1,3.75,3.64,3.64,0,0,0,3,1.54,5.7,5.7,0,0,0,4.1-1.78l.09.05a5.61,5.61,0,0,1-2.07,2.32,5.08,5.08,0,0,1-3,.79,5.2,5.2,0,0,1-3.86-1.82A6.22,6.22,0,0,1,453.1,88.64Zm8.39-1a5.62,5.62,0,0,0-.73-3,2.37,2.37,0,0,0-2-1.15,2.63,2.63,0,0,0-2.32,1.11,6,6,0,0,0-1.07,3Z"/><path class="cls-1" d="M465.81,83.3v-.07l2.41.16-.12,1.91A3.94,3.94,0,0,1,470,83.73a4.6,4.6,0,0,1,1.8-.33,4.48,4.48,0,0,1,1.21.27L472.54,86h-.07a3.27,3.27,0,0,0-1.1-.74,3.77,3.77,0,0,0-.88-.21,4,4,0,0,0-1.06.11,3,3,0,0,0-1.36.81l-.39,6a14.49,14.49,0,0,0,.24,3.26v.07L465,95.08V95a15.16,15.16,0,0,0,.66-3.2l.34-5.25A14.49,14.49,0,0,0,465.81,83.3Z"/><path class="cls-1" d="M612.05,117.14l-1.36,2.8-.08,0q0-.08-.33-.78c-.19-.48-.36-.86-.5-1.15a5.76,5.76,0,0,0-.64-1,2.77,2.77,0,0,0-.93-.78l-1.79-.87-5.73,11.81a14.4,14.4,0,0,0-1,3.11l0,.07L596.93,129l0-.07a14.64,14.64,0,0,0,1.83-2.71l5.73-11.81-1.82-.88a2.71,2.71,0,0,0-1.19-.25,5.6,5.6,0,0,0-1.17.1c-.31.07-.72.18-1.2.32a7.87,7.87,0,0,1-.82.23l-.09,0,1.36-2.8Z"/><path class="cls-1" d="M604.89,129.17a3.05,3.05,0,0,1,2.86-1.82,7.25,7.25,0,0,1,3.43.77,10.67,10.67,0,0,1,1.41.93,4.1,4.1,0,0,1,.58.5l.73-1.41a3,3,0,0,0,.38-2.13,2.16,2.16,0,0,0-1.15-1.41,4.25,4.25,0,0,0-2.54-.29A8.8,8.8,0,0,0,608,125l-.06,0,1.19-2.28a12.19,12.19,0,0,1,4.47,1.24,4.71,4.71,0,0,1,2.32,2.28,3.29,3.29,0,0,1-.22,2.88l-2.9,5.52c-.24.47-.31.82-.18,1.06a1.08,1.08,0,0,0,.45.49,1.81,1.81,0,0,0,.54.18v.07a1.73,1.73,0,0,1-2,.14,1.8,1.8,0,0,1-.91-1,1.86,1.86,0,0,1,.08-1.38,4.46,4.46,0,0,1-4.11-.12,3.78,3.78,0,0,1-2-2.21A3.31,3.31,0,0,1,604.89,129.17Zm2,.83a2.32,2.32,0,0,0-.16,2,2.65,2.65,0,0,0,1.31,1.5,3.43,3.43,0,0,0,3.16-.08l1.71-3.25a.46.46,0,0,1-.18-.12,8.25,8.25,0,0,0-1.33-.88,4.63,4.63,0,0,0-2.48-.52A2.33,2.33,0,0,0,606.84,130Z"/><path class="cls-1" d="M619.61,127.26l2.13,1.21-3.81,6.72a2.94,2.94,0,0,0-.43,2.29,2.59,2.59,0,0,0,1.29,1.59,4.62,4.62,0,0,0,3.48.24,7.43,7.43,0,0,1,.35-.66l2.52-4.45a15.33,15.33,0,0,0,1.2-3l0-.06,2.13,1.2-4.22,7.46a14.51,14.51,0,0,0-1.2,3l0,.06-1.88-1.06A11.31,11.31,0,0,1,622,140a5,5,0,0,1-4.49-.06,4.07,4.07,0,0,1-1.92-2.24,3.86,3.86,0,0,1,.54-3.26l2.28-4a14.86,14.86,0,0,0,1.2-3.05Z"/><path class="cls-1" d="M630.74,133.73l0-.06,2.07,1.25-1,1.65a3.87,3.87,0,0,1,2.37-.54,4.69,4.69,0,0,1,1.75.54,4.44,4.44,0,0,1,.95.8l-1.45,1.82-.06,0a3.27,3.27,0,0,0-.63-1.15,2.93,2.93,0,0,0-.69-.6,4.13,4.13,0,0,0-1-.39,3,3,0,0,0-1.59.09l-3.12,5.15a14.34,14.34,0,0,0-1.3,3l0,.07-2.47-1.5,0-.06a15,15,0,0,0,2.07-2.53l2.73-4.5A14.68,14.68,0,0,0,630.74,133.73Z"/><path class="cls-1" d="M634.54,142.87a6.19,6.19,0,0,1,3.68-2.85,5.06,5.06,0,0,1,4.19.71A4.57,4.57,0,0,1,644.6,144a6,6,0,0,1-1.07,4.18l-6.94-4.48a6.11,6.11,0,0,0-1.08,3.72,3.57,3.57,0,0,0,1.78,2.85,5.67,5.67,0,0,0,4.43.57l.06.1a5.7,5.7,0,0,1-3,.93,5.11,5.11,0,0,1-3-.85,5.24,5.24,0,0,1-2.39-3.54A6.24,6.24,0,0,1,634.54,142.87Zm7.71,3.44a5.63,5.63,0,0,0,.89-2.91,2.38,2.38,0,0,0-1.15-2,2.65,2.65,0,0,0-2.57-.23A6,6,0,0,0,637,143.2Z"/><path class="cls-1" d="M643.24,151.64a3.08,3.08,0,0,1,3.07-1.45,7.12,7.12,0,0,1,3.3,1.2,9.1,9.1,0,0,1,1.29,1.1,4.53,4.53,0,0,1,.51.56l.9-1.3a2.91,2.91,0,0,0,.64-2.07,2.2,2.2,0,0,0-1-1.55,4.36,4.36,0,0,0-2.49-.6,8.83,8.83,0,0,0-2.68.34l-.05,0,1.46-2.11a12.3,12.3,0,0,1,4.29,1.79,4.72,4.72,0,0,1,2,2.55,3.28,3.28,0,0,1-.58,2.83L650.39,158c-.3.43-.41.77-.32,1a1.06,1.06,0,0,0,.4.55,1.79,1.79,0,0,0,.5.24l0,.07a1.72,1.72,0,0,1-2-.11,1.79,1.79,0,0,1-.78-1.08,1.86,1.86,0,0,1,.26-1.36,4.41,4.41,0,0,1-4.06-.63,3.82,3.82,0,0,1-1.71-2.44A3.38,3.38,0,0,1,643.24,151.64Zm1.83,1.07a2.38,2.38,0,0,0-.4,1.94,2.68,2.68,0,0,0,1.12,1.65,3.45,3.45,0,0,0,3.14.32l2.1-3a.66.66,0,0,1-.17-.14,7.56,7.56,0,0,0-1.2-1,4.63,4.63,0,0,0-2.4-.82A2.35,2.35,0,0,0,645.07,152.71Z"/><path class="cls-1" d="M658.08,151.58l2,1.46-4.62,6.2a3,3,0,0,0-.71,2.22,2.64,2.64,0,0,0,1.08,1.74,4.69,4.69,0,0,0,3.43.67,6.81,6.81,0,0,1,.42-.61l3.06-4.1a14.86,14.86,0,0,0,1.57-2.87l0-.06,2,1.46-5.13,6.87a15.42,15.42,0,0,0-1.57,2.87l0,.06-1.73-1.29a11.31,11.31,0,0,1,1-1.73,4.93,4.93,0,0,1-4.45-.62,4.07,4.07,0,0,1-1.63-2.46,3.94,3.94,0,0,1,1-3.17l2.77-3.71a15.42,15.42,0,0,0,1.57-2.87Z"/><path class="cls-1" d="M734.81,232.28a8.83,8.83,0,0,1,6.59-1.67,7.78,7.78,0,0,1,5.44,3.3,12.78,12.78,0,0,1,2.09,5.22l-2.48,1.74-.08-.11a9.66,9.66,0,0,0,.63-3.22,5,5,0,0,0-.89-3.12.05.05,0,0,1,0,0,5,5,0,0,0-4.2-2.1,9.4,9.4,0,0,0-5.65,2,9.2,9.2,0,0,0-3.75,4.74,5.15,5.15,0,0,0,.52,4.69,6.83,6.83,0,0,0,3.11,2.36l2.61-1.83a7.25,7.25,0,0,0,2.07-2.64l.08-.05,2.16,3.06-.08.05a10,10,0,0,0-3,1.31l-3,2.14a15.91,15.91,0,0,1-4.74-4.07,7.52,7.52,0,0,1-1.18-6.1A9,9,0,0,1,734.81,232.28Z"/><path class="cls-1" d="M746.6,246.29a5,5,0,0,1,3.52,2.36,4.56,4.56,0,0,1,.65,3.89,6,6,0,0,1-2.7,3.37L743.59,249a6.08,6.08,0,0,0-2.51,2.93,3.61,3.61,0,0,0,.45,3.34,5.73,5.73,0,0,0,3.8,2.35v.1a5.66,5.66,0,0,1-3.08-.37,5,5,0,0,1-2.36-2,5.23,5.23,0,0,1-.72-4.21,7,7,0,0,1,7.42-4.83Zm1.09,7.39a5.68,5.68,0,0,0,2-2.3,2.35,2.35,0,0,0-.21-2.32,2.66,2.66,0,0,0-2.25-1.26,5.89,5.89,0,0,0-3.1.86ZM750,244.8l5.39,2.46-.49,2.17-5-4.12Z"/><path class="cls-1" d="M753.86,254.79l.06,0,1.22,2.09-1.38.82a4.4,4.4,0,0,1,3.2,2,4,4,0,0,1,.55,2,3.12,3.12,0,0,1-.71,2,4.64,4.64,0,0,1,3.69,2.07,3.67,3.67,0,0,1,.44,2.74,4.09,4.09,0,0,1-2.13,2.5l-4,2.33a14.9,14.9,0,0,0-2.57,2l-.06,0-1.46-2.49.07,0a14.86,14.86,0,0,0,3-1.24l3.79-2.22a3,3,0,0,0,1.51-1.76,2.47,2.47,0,0,0-.26-1.95,4.19,4.19,0,0,0-2.48-1.58,5,5,0,0,1-1.12.85l-4,2.33a15,15,0,0,0-2.57,2l-.06,0-1.46-2.48.07,0a14.81,14.81,0,0,0,3-1.25l3.79-2.22a3,3,0,0,0,1.52-1.76,2.48,2.48,0,0,0-.27-1.94,3.74,3.74,0,0,0-2.29-1.53l-5.3,3.11a14.41,14.41,0,0,0-2.56,2l-.06,0-1.46-2.48.06,0a14.74,14.74,0,0,0,3-1.24l4.53-2.66A15.41,15.41,0,0,0,753.86,254.79Z"/><path class="cls-1" d="M758.09,273.8a6.19,6.19,0,0,1,4.6-.69,5,5,0,0,1,3.31,2.66,4.55,4.55,0,0,1,.31,3.94,6,6,0,0,1-3,3.12l-3.86-7.29a6,6,0,0,0-2.76,2.71,3.62,3.62,0,0,0,.16,3.36,5.71,5.71,0,0,0,3.59,2.66v.11a5.66,5.66,0,0,1-3-.63,5.39,5.39,0,0,1-2.53-6.45A6.2,6.2,0,0,1,758.09,273.8Zm5,6.77a5.68,5.68,0,0,0,2.2-2.11,2.36,2.36,0,0,0,0-2.33,2.62,2.62,0,0,0-2.12-1.45,5.88,5.88,0,0,0-3.17.59Z"/><path class="cls-1" d="M761.41,285.73a3.08,3.08,0,0,1,3.39.23,7.2,7.2,0,0,1,2.29,2.66,8.75,8.75,0,0,1,.59,1.59,3.7,3.7,0,0,1,.17.74l1.43-.69a2.94,2.94,0,0,0,1.56-1.5,2.13,2.13,0,0,0-.08-1.81,4.32,4.32,0,0,0-1.87-1.75,9,9,0,0,0-2.51-1l0-.06,2.31-1.12a12.31,12.31,0,0,1,2.87,3.64,4.77,4.77,0,0,1,.51,3.21,3.29,3.29,0,0,1-1.89,2.19l-5.61,2.73c-.48.23-.73.48-.78.74a1.13,1.13,0,0,0,.08.67,1.37,1.37,0,0,0,.33.45l-.06.06a1.73,1.73,0,0,1-1.66-1.06,1.81,1.81,0,0,1-.16-1.33,1.88,1.88,0,0,1,.89-1.06,4.43,4.43,0,0,1-3.23-2.53,3.79,3.79,0,0,1-.3-3A3.33,3.33,0,0,1,761.41,285.73Zm1.08,1.83a2.39,2.39,0,0,0-1.3,1.5,2.63,2.63,0,0,0,.17,2,3.44,3.44,0,0,0,2.59,1.81l3.3-1.6a.63.63,0,0,1-.07-.21,8.51,8.51,0,0,0-.55-1.5,4.61,4.61,0,0,0-1.69-1.88A2.32,2.32,0,0,0,762.49,287.56Z"/><path class="cls-1" d="M774.39,292.92l1,2.24-7.06,3.15a2.94,2.94,0,0,0-1.71,1.59,2.6,2.6,0,0,0,.1,2,4.64,4.64,0,0,0,2.66,2.26c.18-.1.41-.21.67-.33l4.67-2.08a14.81,14.81,0,0,0,2.77-1.74l.07,0,1,2.24-7.82,3.49a14.49,14.49,0,0,0-2.77,1.74l-.07,0-.88-2a12.43,12.43,0,0,1,1.73-1,4.91,4.91,0,0,1-3.57-2.71,4,4,0,0,1-.22-2.94,3.91,3.91,0,0,1,2.37-2.31l4.23-1.88a15.35,15.35,0,0,0,2.77-1.74Z"/><path class="cls-1" d="M780.72,307.47l-.07,0a1.21,1.21,0,0,0-.35.09,4,4,0,0,0-1.65,1.68l-1.58,2.55,3.36.89a3.05,3.05,0,0,0,1.85,0,1,1,0,0,0,.39-.26l.06,0,.92,2.27-.06,0a13,13,0,0,0-2.72-1.08l-4.26-1.12-2.22,3.54a19.8,19.8,0,0,0-1.59,3.23l-.09,0-1.43-3.54.07,0a1.14,1.14,0,0,0,.37-.1,4,4,0,0,0,1.64-1.64l1.46-2.35-3.37-.89a3.08,3.08,0,0,0-1.84,0,1.28,1.28,0,0,0-.39.24l-.07,0-.92-2.27.09,0a10.92,10.92,0,0,0,2.71,1.08l4.26,1.12,2.32-3.73a15.73,15.73,0,0,0,1.64-3.13l.09,0Z"/><path class="cls-1" d="M809.36,410.25a7.42,7.42,0,0,1,3,5.47,14.14,14.14,0,0,1-.76,5.4l-2.94.25v-.14a8.91,8.91,0,0,0,2.14-2.41,4.77,4.77,0,0,0-1.94-6.81,9.78,9.78,0,0,0-5.78-1.14,9.58,9.58,0,0,0-5.54,2.16,4.89,4.89,0,0,0-2,4.2,4.83,4.83,0,0,0,1.18,2.68,8.83,8.83,0,0,0,2.52,2.1v.14l-2.94.25a13.93,13.93,0,0,1-1.67-5.26,7.37,7.37,0,0,1,2.05-5.82,10,10,0,0,1,12.75-1.07Z"/><path class="cls-1" d="M798.71,424.05a3.1,3.1,0,0,1,3,1.55,7.17,7.17,0,0,1,1,3.36,9.82,9.82,0,0,1-.09,1.68,4,4,0,0,1-.14.75l1.58-.07a2.92,2.92,0,0,0,2-.75,2.17,2.17,0,0,0,.65-1.7,4.29,4.29,0,0,0-1-2.34,8.63,8.63,0,0,0-1.9-1.92v-.07l2.56-.12a12.18,12.18,0,0,1,1.19,4.49,4.7,4.7,0,0,1-.81,3.15,3.27,3.27,0,0,1-2.6,1.25l-6.23.28a1.23,1.23,0,0,0-1,.37,1.12,1.12,0,0,0-.2.65,1.89,1.89,0,0,0,.12.54l-.07,0a1.72,1.72,0,0,1-1.1-1.63,1.79,1.79,0,0,1,.39-1.28,1.83,1.83,0,0,1,1.23-.62,4.41,4.41,0,0,1-2-3.61,3.8,3.8,0,0,1,.9-2.84A3.34,3.34,0,0,1,798.71,424.05Zm.27,2.1a2.37,2.37,0,0,0-1.79.86,2.64,2.64,0,0,0-.64,1.89,3.48,3.48,0,0,0,1.66,2.69l3.67-.17a.66.66,0,0,1,0-.21,8.08,8.08,0,0,0,.1-1.59,4.8,4.8,0,0,0-.8-2.41A2.34,2.34,0,0,0,799,426.15Z"/><path class="cls-1" d="M799.22,436.85l5.25-.05a15.43,15.43,0,0,0,3.24-.48h.07l0,2.43-2,0a4.8,4.8,0,0,1,2.2,3.89,4.06,4.06,0,0,1-1,2.77,4,4,0,0,1-3.1,1.16l-4.61,0a14.74,14.74,0,0,0-3.23.49H796l0-2.88h.07a14.78,14.78,0,0,0,3.24.42l4.39,0a3,3,0,0,0,2.22-.79,2.58,2.58,0,0,0,.73-1.9,4.53,4.53,0,0,0-1.59-3.15l-5.81.05a14.91,14.91,0,0,0-3.23.49h-.07l0-2.88H796A14.93,14.93,0,0,0,799.22,436.85Z"/><path class="cls-1" d="M806.34,450.36a5.34,5.34,0,0,1,1.53,4.07,8.46,8.46,0,0,1-1.27,4l-2.69,0v-.12q3.14-1.72,3.19-3.83a2.86,2.86,0,0,0-1.36-2.56,6.32,6.32,0,0,0-3.48-1,5.93,5.93,0,0,0-3.73,1,3.6,3.6,0,0,0-1.48,3,5.48,5.48,0,0,0,1.64,3.88l0,.05a5.38,5.38,0,0,1-2.24-2,4.86,4.86,0,0,1-.77-2.81,5.19,5.19,0,0,1,1.77-3.87,6.24,6.24,0,0,1,4.51-1.48A6.16,6.16,0,0,1,806.34,450.36Z"/><path class="cls-1" d="M801.65,460.13a6.25,6.25,0,0,1,4.3,1.79,5.12,5.12,0,0,1,1.45,4,4.54,4.54,0,0,1-1.77,3.53,6,6,0,0,1-4.16,1.13l.46-8.24a6,6,0,0,0-3.76.9,3.58,3.58,0,0,0-1.6,3,5.67,5.67,0,0,0,1.69,4.13l0,.09a5.6,5.6,0,0,1-2.28-2.11,5.1,5.1,0,0,1-.73-3,5.2,5.2,0,0,1,1.9-3.82A6.19,6.19,0,0,1,801.65,460.13Zm.82,8.41a5.63,5.63,0,0,0,3-.67,2.37,2.37,0,0,0,1.2-2,2.68,2.68,0,0,0-1.07-2.35,6,6,0,0,0-3-1.13Z"/><path class="cls-1" d="M806.73,473h.07l-.2,2.41-1.92-.16a4,4,0,0,1,1.54,1.89,4.55,4.55,0,0,1,.29,1.81,3.78,3.78,0,0,1-.3,1.2l-2.27-.48v-.07a3.11,3.11,0,0,0,.75-1.08,3.62,3.62,0,0,0,.24-.89,4.26,4.26,0,0,0-.09-1.05,3,3,0,0,0-.79-1.38l-6-.52a15.18,15.18,0,0,0-3.27.18h-.07L795,472H795a14.41,14.41,0,0,0,3.19.73l5.23.45A15.18,15.18,0,0,0,806.73,473Z"/><path class="cls-1" d="M756.83,606.4a15.86,15.86,0,0,0,2.64,1.93l9.4,5a15.51,15.51,0,0,0,3.07,1.13l.06,0-1.43,2.67-.06,0a14.58,14.58,0,0,0-2.64-1.93L756.28,609l-1.84,3.43a3,3,0,0,0-.32,1.24,5.94,5.94,0,0,0,0,1.2c0,.31.1.73.21,1.27s.17.82.18.84l0,.09-2.67-1.43,5-9.29Z"/><path class="cls-1" d="M750.94,617.25a14.9,14.9,0,0,0,2.59,2l4.57,2.6a14.74,14.74,0,0,0,3,1.2l.07,0L760,625.16l-7.45-4.23a14.74,14.74,0,0,0-3-1.2l-.07,0,1.42-2.48ZM765.77,626a1.53,1.53,0,0,1-1,1.82,1.4,1.4,0,0,1-1.1-.13,1.37,1.37,0,0,1-.68-.88,1.45,1.45,0,0,1,.16-1.13A1.43,1.43,0,0,1,764,625a1.39,1.39,0,0,1,1.11.13A1.44,1.44,0,0,1,765.77,626Z"/><path class="cls-1" d="M753.76,624.3a5.93,5.93,0,0,1,2.93,3.68,5.93,5.93,0,0,1-4.24,7,5.92,5.92,0,0,1-4.62-.84,6.1,6.1,0,0,1-3-3.72,5.52,5.52,0,0,1,.66-4.4,5.42,5.42,0,0,1,3.56-2.63A6.12,6.12,0,0,1,753.76,624.3Zm-4.92.76a2.85,2.85,0,0,0-2.62,1.39,2.93,2.93,0,0,0,0,3,6.94,6.94,0,0,0,2.77,2.8,6.85,6.85,0,0,0,3.72,1.11,3,3,0,0,0,2.64-1.43,2.9,2.9,0,0,0,0-3,6.86,6.86,0,0,0-2.73-2.76A7.12,7.12,0,0,0,748.84,625.06Z"/><path class="cls-1" d="M744.46,634.48l4.41,2.87a14.87,14.87,0,0,0,3,1.38l.06,0-1.32,2-1.69-1.1a4.81,4.81,0,0,1-.33,4.46,4,4,0,0,1-2.34,1.77,3.93,3.93,0,0,1-3.22-.75l-3.86-2.52a15.14,15.14,0,0,0-3-1.38l-.06,0,1.57-2.41.06,0A14.85,14.85,0,0,0,740.2,641l3.68,2.39a3,3,0,0,0,2.28.57,2.61,2.61,0,0,0,1.67-1.18,4.47,4.47,0,0,0,.42-3.5l-4.86-3.17a14.94,14.94,0,0,0-3-1.39l-.06,0,1.57-2.41.06,0A15.13,15.13,0,0,0,744.46,634.48Z"/><path class="cls-1" d="M654.48,748l-2.91,1.91-.05-.08a2.67,2.67,0,0,0-.38-.78,7.24,7.24,0,0,0-1.83-1.78l-10.45-7.63,2.94,11.81a8,8,0,0,0,1,2.48,4.63,4.63,0,0,0,.91,1l0,.08-2,1.35,0-.06a19.64,19.64,0,0,0-.63-4l-3.47-13.87,1.64-1.09,12,8.71a17.75,17.75,0,0,0,3.16,1.88Z"/><path class="cls-1" d="M631.37,742.49a14.67,14.67,0,0,0,1.32,3l2.77,4.47a14.76,14.76,0,0,0,2.09,2.51l0,.06-2,1.27L631,746.51a14.39,14.39,0,0,0-2.09-2.52l0-.06,2.43-1.5Zm8.82,14.8a1.53,1.53,0,0,1-1.79,1.1,1.42,1.42,0,0,1-1.07-1.74,1.45,1.45,0,0,1,.68-.91,1.4,1.4,0,0,1,1.09-.19,1.37,1.37,0,0,1,.91.64A1.42,1.42,0,0,1,640.19,757.29Z"/><path class="cls-1" d="M630.42,750a6.26,6.26,0,0,1,.89,4.57,5.11,5.11,0,0,1-2.52,3.43,4.57,4.57,0,0,1-3.92.48,6,6,0,0,1-3.25-2.84l7.12-4.18a6.13,6.13,0,0,0-2.83-2.64,3.6,3.6,0,0,0-3.35.32,5.67,5.67,0,0,0-2.51,3.69H620a5.62,5.62,0,0,1,.5-3.06,5.05,5.05,0,0,1,2.09-2.28,5.26,5.26,0,0,1,4.24-.54A6.24,6.24,0,0,1,630.42,750Zm-6.55,5.35a5.65,5.65,0,0,0,2.21,2.1,2.39,2.39,0,0,0,2.33-.11,2.64,2.64,0,0,0,1.35-2.19A5.93,5.93,0,0,0,629,752Z"/><path class="cls-1" d="M622.54,761.38l0,.06-2.12,1.17-.93-1.68a3.91,3.91,0,0,1-.72,2.32,4.65,4.65,0,0,1-1.34,1.25,4.27,4.27,0,0,1-1.17.42l-.85-2.16.06,0a2.93,2.93,0,0,0,1.31,0,3.51,3.51,0,0,0,.87-.29,4.07,4.07,0,0,0,.83-.66,3,3,0,0,0,.71-1.42l-2.9-5.28a14.57,14.57,0,0,0-2-2.62l0-.07,2.52-1.38,0,.06a15,15,0,0,0,1.15,3.06l2.54,4.61A14.79,14.79,0,0,0,622.54,761.38Z"/><path class="cls-1" d="M609,755.7a1.87,1.87,0,0,1,1.64,1.14,2.29,2.29,0,0,1-.57,2.9,3.78,3.78,0,0,1,3.3,2.16,3.7,3.7,0,0,1,.11,3.35,5.11,5.11,0,0,1-2.41,2.53,5.44,5.44,0,0,1-2.71.61,2.86,2.86,0,0,1-1.63,2.54c-.19.09-.4.18-.62.26l-.47-1.7,0,0a2.72,2.72,0,0,0,1.34-.29,3,3,0,0,0,1-.81,3.81,3.81,0,0,1-3.05-2.1,3.72,3.72,0,0,1-.12-3.4,5.11,5.11,0,0,1,2.44-2.54,5.48,5.48,0,0,1,2.15-.6,1.61,1.61,0,0,0,.5-.75,1.06,1.06,0,0,0-.07-.82c-.31-.61-1-.62-2.2,0l-3.46,1.78a3.75,3.75,0,0,1-2.6.42,2.88,2.88,0,0,1-1.89-1.6,3,3,0,0,1-.33-1.92,3.13,3.13,0,0,1,.88-1.67,9.31,9.31,0,0,1,1.41-1.25,11.16,11.16,0,0,1,1.5-.93,11,11,0,0,1,1.56-.65,9.46,9.46,0,0,1,1.65-.37,3,3,0,0,1,1.59.18,2.18,2.18,0,0,1,1.11,1A2.66,2.66,0,0,1,609,755.7Zm-2.82-2.65a6.42,6.42,0,0,0-5.16,2.58,1.91,1.91,0,0,0-.19,1.92,1.56,1.56,0,0,0,1,.82,2,2,0,0,0,1.47-.23l3.65-1.88a6.54,6.54,0,0,1,1.38-.52,2.3,2.3,0,0,0-.27-1.42l0,0A2.21,2.21,0,0,0,606.16,753.05Zm3.55,7.86a2.33,2.33,0,0,0-2.15.06,2.42,2.42,0,0,0-1.32,1.72,3.93,3.93,0,0,0,.48,2.59,4.09,4.09,0,0,0,1.82,1.93,2.46,2.46,0,0,0,2.18-.07,2.34,2.34,0,0,0,1.3-1.73,4.63,4.63,0,0,0-2.31-4.5Z"/><path class="cls-1" d="M602.26,765.45a6.2,6.2,0,0,1,.47,4.63,5.06,5.06,0,0,1-2.8,3.19,4.57,4.57,0,0,1-3.95.12,6,6,0,0,1-3-3.11l7.47-3.53a6.1,6.1,0,0,0-2.59-2.88,3.6,3.6,0,0,0-3.36,0,5.69,5.69,0,0,0-2.83,3.46h-.1a5.61,5.61,0,0,1,.77-3,5.09,5.09,0,0,1,2.29-2.08,5.21,5.21,0,0,1,4.27-.16A6.25,6.25,0,0,1,602.26,765.45Zm-7,4.74a5.76,5.76,0,0,0,2,2.29,2.36,2.36,0,0,0,2.33.09,2.66,2.66,0,0,0,1.55-2.06,6,6,0,0,0-.45-3.19Z"/><path class="cls-1" d="M486.22,810.81v.07l-6.69.64a5.4,5.4,0,0,1-3.76-.92,3.89,3.89,0,0,1-1.73-2.91,3.75,3.75,0,0,1,.62-2.53,5.61,5.61,0,0,1,2.15-1.78,6.33,6.33,0,0,1-3-1.27,3.73,3.73,0,0,1-1.39-2.7,3.89,3.89,0,0,1,1.4-3.5,7.22,7.22,0,0,1,4.15-1.6l6.62-.63v.07a14.88,14.88,0,0,0-.15,3.27l1,10.61A14.81,14.81,0,0,0,486.22,810.81Zm-3.39-8.53-.71-7.52-3.47.32c-2.9.28-4.23,1.64-4,4.1a3.53,3.53,0,0,0,1.48,2.75,4.81,4.81,0,0,0,3.24.71l1.84-.18Zm.76,8-.68-7.12-3.34.31a3.57,3.57,0,0,0-2.6,1.24,3.76,3.76,0,0,0-.69,2.76,3.61,3.61,0,0,0,1.12,2.42,3.29,3.29,0,0,0,2.65.72Z"/><path class="cls-1" d="M470.84,798.28a3.07,3.07,0,0,1-1.52,3A7.16,7.16,0,0,1,466,802.4a8.92,8.92,0,0,1-1.69-.07,3.56,3.56,0,0,1-.75-.13l.09,1.58a3,3,0,0,0,.78,2,2.15,2.15,0,0,0,1.7.62,4.34,4.34,0,0,0,2.34-1.06,8.45,8.45,0,0,0,1.89-1.92h.07l.15,2.56a12.18,12.18,0,0,1-4.47,1.24,4.74,4.74,0,0,1-3.16-.77,3.29,3.29,0,0,1-1.29-2.58l-.35-6.23c0-.53-.16-.86-.38-1a1.06,1.06,0,0,0-.65-.19,1.88,1.88,0,0,0-.55.12l0-.07a1.74,1.74,0,0,1,1.62-1.12,1.82,1.82,0,0,1,1.29.37,1.85,1.85,0,0,1,.63,1.22,4.41,4.41,0,0,1,3.59-2,3.79,3.79,0,0,1,2.85.87A3.35,3.35,0,0,1,470.84,798.28Zm-2.1.28a2.35,2.35,0,0,0-.88-1.77,2.61,2.61,0,0,0-1.9-.61,3.43,3.43,0,0,0-2.67,1.69l.21,3.66h.22a8,8,0,0,0,1.59.08,4.62,4.62,0,0,0,2.39-.83A2.34,2.34,0,0,0,468.74,798.56Z"/><path class="cls-1" d="M459,812.92v.1l-.45.06-2.08.4L456,799a14.8,14.8,0,0,0-.56-3.22v-.07l2.9-.1v.07a15.52,15.52,0,0,0-.35,3.25l.36,10.9A8.07,8.07,0,0,0,459,812.92Z"/><path class="cls-1" d="M454.07,799.08a3.07,3.07,0,0,1-1.66,3A7.16,7.16,0,0,1,449,803a8.32,8.32,0,0,1-1.68-.15,3.66,3.66,0,0,1-.74-.16v1.59a3,3,0,0,0,.68,2A2.19,2.19,0,0,0,449,807a4.39,4.39,0,0,0,2.37-1,8.6,8.6,0,0,0,2-1.83h.07l0,2.57a12.22,12.22,0,0,1-4.53,1,4.72,4.72,0,0,1-3.12-.91,3.28,3.28,0,0,1-1.16-2.64l-.06-6.24c0-.53-.12-.87-.34-1a1.09,1.09,0,0,0-.63-.22,1.66,1.66,0,0,0-.56.1l0-.07a1.74,1.74,0,0,1,1.67-1.05,1.79,1.79,0,0,1,1.26.43,1.82,1.82,0,0,1,.58,1.25,4.45,4.45,0,0,1,3.68-1.83,3.79,3.79,0,0,1,2.8,1A3.32,3.32,0,0,1,454.07,799.08Zm-2.11.19a2.32,2.32,0,0,0-.8-1.81,2.59,2.59,0,0,0-1.86-.7,3.47,3.47,0,0,0-2.75,1.56l0,3.67.21,0a7.54,7.54,0,0,0,1.59.15,4.52,4.52,0,0,0,2.43-.72A2.33,2.33,0,0,0,452,799.27Z"/><path class="cls-1" d="M441.25,799.14l-.13,5.25a15.13,15.13,0,0,0,.38,3.25v.08l-2.43-.07.05-2a4.78,4.78,0,0,1-4,2.06,4.06,4.06,0,0,1-2.74-1.06,4,4,0,0,1-1.05-3.14l.12-4.6a14.46,14.46,0,0,0-.38-3.25v-.08l2.88.08v.07a15.19,15.19,0,0,0-.53,3.22l-.11,4.39a2.94,2.94,0,0,0,.71,2.24,2.59,2.59,0,0,0,1.88.81,4.56,4.56,0,0,0,3.2-1.48l.15-5.81a15.13,15.13,0,0,0-.38-3.25v-.07l2.88.07v.07A16.07,16.07,0,0,0,441.25,799.14Z"/><path class="cls-1" d="M427.51,805.79a5.34,5.34,0,0,1-4.12,1.39,8.43,8.43,0,0,1-4-1.41l.14-2.68h.12q1.6,3.2,3.72,3.32a2.82,2.82,0,0,0,2.6-1.26,6.37,6.37,0,0,0,1.11-3.45,5.93,5.93,0,0,0-.89-3.76,3.59,3.59,0,0,0-2.93-1.58,5.49,5.49,0,0,0-3.93,1.5l-.05,0a5.51,5.51,0,0,1,2-2.18,4.94,4.94,0,0,1,2.84-.66,5.2,5.2,0,0,1,3.81,1.9,6.22,6.22,0,0,1,1.32,4.56A6.16,6.16,0,0,1,427.51,805.79Z"/><path class="cls-1" d="M417.9,800.76A6.19,6.19,0,0,1,416,805a5.08,5.08,0,0,1-4,1.32,4.57,4.57,0,0,1-3.47-1.9,6,6,0,0,1-1-4.2l8.22.76a6.14,6.14,0,0,0-.76-3.8,3.61,3.61,0,0,0-2.9-1.7,5.71,5.71,0,0,0-4.19,1.55l-.1-.06a5.72,5.72,0,0,1,2.19-2.2,5.4,5.4,0,0,1,6.79,1.41A6.19,6.19,0,0,1,417.9,800.76Zm-8.43.53a5.58,5.58,0,0,0,.57,3,2.4,2.4,0,0,0,2,1.27,2.66,2.66,0,0,0,2.37-1,5.84,5.84,0,0,0,1.24-3Z"/><path class="cls-1" d="M299.39,781.77a6.2,6.2,0,0,1-4.33-.5,12,12,0,0,1-4.51-3.78l1.12-2.52.09,0q1.23,4.37,3.86,5.54a4,4,0,0,0,2.7.31,2.47,2.47,0,0,0,1.77-1.43,2.68,2.68,0,0,0-.27-2.54,13.11,13.11,0,0,0-2.68-3.08,9.23,9.23,0,0,1-2.57-3.5,4.35,4.35,0,0,1,.16-3.39,4.2,4.2,0,0,1,3-2.6,6.67,6.67,0,0,1,4.27.56,13.73,13.73,0,0,1,4.8,4.12l-1.22,2.72-.08,0a17,17,0,0,0-1.46-3.8,5.08,5.08,0,0,0-2.45-2.21,4.14,4.14,0,0,0-2.87-.32,2.92,2.92,0,0,0-1.94,1.71,3,3,0,0,0,.1,2.7,11.35,11.35,0,0,0,2.49,3q4.17,3.69,2.8,6.73A4.15,4.15,0,0,1,299.39,781.77Z"/><path class="cls-1" d="M289.18,770.71a5.29,5.29,0,0,1-4.33-.31,8.46,8.46,0,0,1-3.1-2.84l1.16-2.42.11.05q.25,3.59,2.14,4.51a2.86,2.86,0,0,0,2.89-.16,6.32,6.32,0,0,0,2.36-2.74,6,6,0,0,0,.64-3.82,3.61,3.61,0,0,0-2.08-2.59,5.47,5.47,0,0,0-4.21-.14l0,0a5.35,5.35,0,0,1,2.72-1.21,4.9,4.9,0,0,1,2.87.49,5.17,5.17,0,0,1,2.78,3.22,6.21,6.21,0,0,1-.56,4.72A6.08,6.08,0,0,1,289.18,770.71Z"/><path class="cls-1" d="M282.25,762.37a6,6,0,0,1-3.52,3.11,5.92,5.92,0,0,1-7.23-3.87,6,6,0,0,1,.61-4.66,6.1,6.1,0,0,1,3.57-3.15,5.79,5.79,0,0,1,7.23,3.85A6.1,6.1,0,0,1,282.25,762.37Zm-1-4.87a2.83,2.83,0,0,0-1.51-2.55,2.93,2.93,0,0,0-3,.14,7.81,7.81,0,0,0-3.57,6.68,2.92,2.92,0,0,0,4.51,2.42,8,8,0,0,0,3.57-6.69Z"/><path class="cls-1" d="M267.81,761.19l0,.06-2.1-1.2.95-1.67a3.91,3.91,0,0,1-2.36.6,4.48,4.48,0,0,1-1.76-.5,4.12,4.12,0,0,1-1-.77l1.39-1.86.06,0a3.23,3.23,0,0,0,.66,1.14,3.62,3.62,0,0,0,.71.58,3.79,3.79,0,0,0,1,.36,2.88,2.88,0,0,0,1.58-.13l3-5.22a15.22,15.22,0,0,0,1.22-3l0-.06,2.5,1.43,0,.06a14.67,14.67,0,0,0-2,2.59L269,758.16A14.9,14.9,0,0,0,267.81,761.19Z"/><path class="cls-1" d="M259.82,756.45l-1.84-.9.83-1.35a4.27,4.27,0,0,1-3.9-.36,4.2,4.2,0,0,1-2-3.1,6.6,6.6,0,0,1,1.14-4.36,6.73,6.73,0,0,1,3.72-3.18,4.77,4.77,0,0,1,3.94.47,4.11,4.11,0,0,1,1.93,2.73l1.38-2.25a14.63,14.63,0,0,0,1.3-3l0-.06,2.48,1.52,0,.06a14.87,14.87,0,0,0-2.09,2.53l-5.15,8.4a10.38,10.38,0,0,0-1.24,3l0,.08Zm-.51-3.07,3.82-6.24a3.42,3.42,0,0,0-1.55-2.24,3,3,0,0,0-2.93-.16,7.65,7.65,0,0,0-3.83,6,2.68,2.68,0,0,0,1.34,2.42A3.59,3.59,0,0,0,259.31,753.38Z"/><path class="cls-1" d="M245.9,754.4a1.53,1.53,0,0,1-1.75-1.14,1.42,1.42,0,0,1,1.11-1.72,1.5,1.5,0,0,1,1.12.23,1.42,1.42,0,0,1,.63.91,1.36,1.36,0,0,1-.19,1.09A1.39,1.39,0,0,1,245.9,754.4Zm9.63-14.29a15,15,0,0,0-2.14,2.47L250.53,747a15,15,0,0,0-1.38,3l0,.06-2-1.31,4.67-7.19a15.14,15.14,0,0,0,1.38-3l0-.06,2.4,1.55Z"/><path class="cls-1" d="M248.29,742.49a5.92,5.92,0,0,1-3.85,2.7,5.9,5.9,0,0,1-6.75-4.64,5.94,5.94,0,0,1,1.12-4.56,6.06,6.06,0,0,1,3.89-2.75,5.5,5.5,0,0,1,4.34.92,5.44,5.44,0,0,1,2.42,3.71A6.12,6.12,0,0,1,248.29,742.49Zm-.48-5a2.85,2.85,0,0,0-1.23-2.71,2.94,2.94,0,0,0-3-.19,7,7,0,0,0-3,2.6,6.86,6.86,0,0,0-1.32,3.65,2.92,2.92,0,0,0,4.22,2.9,6.87,6.87,0,0,0,2.92-2.56A7.08,7.08,0,0,0,247.81,737.54Z"/><path class="cls-1" d="M238.68,732.61l-3.12,4.23a15.28,15.28,0,0,0-1.56,2.88l0,.06-2-1.44,1.2-1.63a4.78,4.78,0,0,1-4.43-.58,4,4,0,0,1-1.63-2.44,3.93,3.93,0,0,1,.94-3.17l2.74-3.71a14.76,14.76,0,0,0,1.55-2.88l.05,0,2.31,1.71,0,0a15.25,15.25,0,0,0-2.29,2.34l-2.61,3.53a3,3,0,0,0-.7,2.25,2.62,2.62,0,0,0,1.07,1.73,4.54,4.54,0,0,0,3.48.63l3.45-4.68a15.47,15.47,0,0,0,1.56-2.87l0-.06,2.32,1.71-.05.06A15.28,15.28,0,0,0,238.68,732.61Z"/><path class="cls-1" d="M158.21,673.54a6.16,6.16,0,0,1-3.59-2.47,12,12,0,0,1-2.2-5.46l2.18-1.69.06.07c-.65,3-.38,5.19.79,6.71a4.09,4.09,0,0,0,2.24,1.55,2.49,2.49,0,0,0,2.24-.44,2.71,2.71,0,0,0,1-2.37,13,13,0,0,0-.93-4,9.28,9.28,0,0,1-.61-4.3,4.41,4.41,0,0,1,1.73-2.92,4.22,4.22,0,0,1,3.84-.9,6.65,6.65,0,0,1,3.5,2.5,13.69,13.69,0,0,1,2.3,5.9l-2.35,1.82-.06-.07a16.85,16.85,0,0,0,.5-4,5.11,5.11,0,0,0-1.12-3.11,4.15,4.15,0,0,0-2.38-1.62,3.09,3.09,0,0,0-3.7,3,11.28,11.28,0,0,0,.81,3.79q1.94,5.21-.69,7.25A4.13,4.13,0,0,1,158.21,673.54Z"/><path class="cls-1" d="M161.07,656.17a3.09,3.09,0,0,1-3.38.35,7.17,7.17,0,0,1-2.71-2.24,8.77,8.77,0,0,1-.85-1.46,4.59,4.59,0,0,1-.29-.7l-1.29.93a2.91,2.91,0,0,0-1.29,1.74,2.17,2.17,0,0,0,.39,1.77,4.36,4.36,0,0,0,2.14,1.4,8.86,8.86,0,0,0,2.65.57l0,.06-2.09,1.5A12.21,12.21,0,0,1,151,657a4.69,4.69,0,0,1-1-3.08,3.24,3.24,0,0,1,1.49-2.47l5.06-3.64c.43-.31.65-.6.64-.86a1.09,1.09,0,0,0-.18-.65,1.9,1.9,0,0,0-.4-.4l0-.06a1.75,1.75,0,0,1,1.82.76,1.82,1.82,0,0,1,.37,1.29,1.85,1.85,0,0,1-.69,1.19,4.43,4.43,0,0,1,3.62,2,3.83,3.83,0,0,1,.8,2.87A3.37,3.37,0,0,1,161.07,656.17Zm-1.37-1.61a2.35,2.35,0,0,0,1-1.7,2.63,2.63,0,0,0-.5-1.93,3.47,3.47,0,0,0-2.86-1.35l-3,2.15a.8.8,0,0,1,.11.19,7.56,7.56,0,0,0,.79,1.38,4.65,4.65,0,0,0,2,1.57A2.33,2.33,0,0,0,159.7,654.56Z"/><path class="cls-1" d="M155.88,643.71a1.86,1.86,0,0,1-.93,1.76,2.3,2.3,0,0,1-2.95-.23,3.78,3.78,0,0,1-1.77,3.53,3.73,3.73,0,0,1-3.31.5,5.1,5.1,0,0,1-2.79-2.11,5.4,5.4,0,0,1-.92-2.62,2.84,2.84,0,0,1-2.71-1.33,4.59,4.59,0,0,1-.34-.59l1.64-.66,0,0a2.71,2.71,0,0,0,.43,1.3,2.91,2.91,0,0,0,.92.85,3.81,3.81,0,0,1,1.74-3.27,3.73,3.73,0,0,1,3.35-.51,5.2,5.2,0,0,1,2.82,2.13,5.6,5.6,0,0,1,.83,2.07,1.65,1.65,0,0,0,.81.41,1.06,1.06,0,0,0,.8-.16c.58-.38.5-1.11-.22-2.19l-2.16-3.23a3.72,3.72,0,0,1-.72-2.54,2.87,2.87,0,0,1,1.37-2.06,3,3,0,0,1,1.86-.55,3.14,3.14,0,0,1,1.77.68,10.42,10.42,0,0,1,1.41,1.25,13,13,0,0,1,1.09,1.4,10,10,0,0,1,.82,1.46,10.45,10.45,0,0,1,.57,1.6,2.9,2.9,0,0,1,0,1.6,2.14,2.14,0,0,1-.92,1.22A2.63,2.63,0,0,1,155.88,643.71ZM150.79,645a2.37,2.37,0,0,0-.3-2.14,2.42,2.42,0,0,0-1.87-1.1,3.93,3.93,0,0,0-2.51.77,4,4,0,0,0-1.7,2,2.39,2.39,0,0,0,.32,2.15,2.32,2.32,0,0,0,1.86,1.09,4,4,0,0,0,2.52-.79A3.92,3.92,0,0,0,150.79,645Zm7.4-4.43a5.08,5.08,0,0,0-1-2.84,5.25,5.25,0,0,0-2.13-2,1.89,1.89,0,0,0-1.93,0,1.62,1.62,0,0,0-.7,1.05,2,2,0,0,0,.4,1.43l2.29,3.41a6.5,6.5,0,0,1,.67,1.31,2.29,2.29,0,0,0,1.38-.43l0,0A2.18,2.18,0,0,0,158.19,640.61Z"/><path class="cls-1" d="M135.25,643.24a1.39,1.39,0,0,1-.9-.65,1.44,1.44,0,0,1-.21-1.12,1.37,1.37,0,0,1,.63-.91,1.39,1.39,0,0,1,1.09-.18,1.42,1.42,0,0,1,.92.67,1.44,1.44,0,0,1,.2,1.09,1.35,1.35,0,0,1-.63.91A1.38,1.38,0,0,1,135.25,643.24Zm14.71-9a15.56,15.56,0,0,0-3,1.35l-4.44,2.82a15.15,15.15,0,0,0-2.49,2.12l-.06,0-1.28-2,7.23-4.59a14.83,14.83,0,0,0,2.49-2.12l.06,0,1.53,2.41Z"/><path class="cls-1" d="M137.72,636.59a4.2,4.2,0,0,0-2.19-1.21,6.69,6.69,0,0,0-2.61.11l-.15-.25,2.81-1.71-1.74-2.87.72-.43,1.74,2.87,6.61-4.05c1.19-.73,1.48-1.59.86-2.6a3.78,3.78,0,0,0-1.86-1.54,4,4,0,0,1,2.06.33,3.41,3.41,0,0,1,1.52,1.34,2.52,2.52,0,0,1,.32,2.21,3.63,3.63,0,0,1-1.64,1.82l-6.85,4.17.92,1.49Z"/><path class="cls-1" d="M133.25,629.21a4.24,4.24,0,0,0-2.17-1.26,6.75,6.75,0,0,0-2.6,0l-.15-.25,2.85-1.64-1.67-2.92.72-.41,1.68,2.91,6.71-3.89c1.2-.7,1.51-1.56.92-2.59a3.93,3.93,0,0,0-1.83-1.58,4,4,0,0,1,2,.39,3.35,3.35,0,0,1,1.49,1.37,2.49,2.49,0,0,1,.26,2.22,3.59,3.59,0,0,1-1.67,1.78l-7,4,.88,1.52Z"/><path class="cls-1" d="M136,617.36a3.07,3.07,0,0,1-3.39-.09,7.23,7.23,0,0,1-2.4-2.57,8.6,8.6,0,0,1-.65-1.56,3.41,3.41,0,0,1-.2-.73l-1.4.75a2.89,2.89,0,0,0-1.5,1.56,2.14,2.14,0,0,0,.15,1.81,4.4,4.4,0,0,0,2,1.66,8.64,8.64,0,0,0,2.54.91l0,.06-2.26,1.22a12.27,12.27,0,0,1-3-3.53,4.75,4.75,0,0,1-.64-3.18,3.26,3.26,0,0,1,1.8-2.26l5.49-3c.47-.25.71-.51.75-.77a1.19,1.19,0,0,0-.1-.67,2,2,0,0,0-.35-.44l.05-.05a1.71,1.71,0,0,1,1.71,1,1.79,1.79,0,0,1,.2,1.32,1.82,1.82,0,0,1-.84,1.09,4.45,4.45,0,0,1,3.34,2.4,3.79,3.79,0,0,1,.41,2.95A3.3,3.3,0,0,1,136,617.36Zm-1.15-1.78a2.38,2.38,0,0,0,1.24-1.55,2.65,2.65,0,0,0-.25-2,3.47,3.47,0,0,0-2.66-1.7L130,612.09a.91.91,0,0,1,.08.2,8.78,8.78,0,0,0,.6,1.48,4.66,4.66,0,0,0,1.77,1.81A2.35,2.35,0,0,0,134.85,615.58Z"/><path class="cls-1" d="M117.48,612.24a1.44,1.44,0,0,1-.83-.74,1.49,1.49,0,0,1-.11-1.13,1.43,1.43,0,0,1,1.82-.93,1.53,1.53,0,0,1,.86.76,1.42,1.42,0,0,1,.09,1.11,1.36,1.36,0,0,1-.72.84A1.39,1.39,0,0,1,117.48,612.24ZM133,604.72a15.72,15.72,0,0,0-3.1,1.06l-4.68,2.38a14.76,14.76,0,0,0-2.69,1.87l-.06,0-1.09-2.14,7.65-3.87a15.64,15.64,0,0,0,2.68-1.87l.06,0,1.29,2.55Z"/><path class="cls-1" d="M120.15,605.34l-.06,0-1-2.18,1.72-.83a4,4,0,0,1-2.28-.85,4.37,4.37,0,0,1-1.17-1.4,4.13,4.13,0,0,1-.36-1.19l2.2-.74,0,.06a3.27,3.27,0,0,0-.1,1.32,3.48,3.48,0,0,0,.25.88,4.35,4.35,0,0,0,.62.86,3,3,0,0,0,1.38.79l5.42-2.62a14.53,14.53,0,0,0,2.72-1.82l.07,0,1.25,2.59-.07,0a14.46,14.46,0,0,0-3.11,1l-4.74,2.28A15.4,15.4,0,0,0,120.15,605.34Z"/><path class="cls-1" d="M122,595.62a6.18,6.18,0,0,1-4.64.38,5.1,5.1,0,0,1-3.13-2.87,4.56,4.56,0,0,1,0-4,6,6,0,0,1,3.17-2.92l3.38,7.53a6,6,0,0,0,2.93-2.52,3.61,3.61,0,0,0,.06-3.37,5.7,5.7,0,0,0-3.4-2.89v-.11a5.75,5.75,0,0,1,3,.83,5.11,5.11,0,0,1,2,2.34,5.17,5.17,0,0,1,.07,4.27A6.17,6.17,0,0,1,122,595.62Zm-4.59-7.09a5.61,5.61,0,0,0-2.33,2,2.36,2.36,0,0,0-.14,2.33,2.67,2.67,0,0,0,2,1.59,6,6,0,0,0,3.2-.38Z"/><path class="cls-1" d="M83.77,500.1a7.39,7.39,0,0,1-3.25-5.3,14.26,14.26,0,0,1,.45-5.44l2.93-.4,0,.14a8.67,8.67,0,0,0-2,2.52,4.76,4.76,0,0,0,2.31,6.69,9.78,9.78,0,0,0,5.84.82,9.6,9.6,0,0,0,5.41-2.46,4.56,4.56,0,0,0,.47-6.91,8.74,8.74,0,0,0-2.63-2l0-.14,2.92-.41a13.53,13.53,0,0,1,2,5.16,7.34,7.34,0,0,1-1.72,5.92,10,10,0,0,1-12.67,1.77Z"/><path class="cls-1" d="M93.64,485.76a3.07,3.07,0,0,1-3.09-1.39,7.25,7.25,0,0,1-1.24-3.29,8.7,8.7,0,0,1,0-1.69,3.43,3.43,0,0,1,.09-.76l-1.58.16a3,3,0,0,0-2,.86,2.22,2.22,0,0,0-.55,1.73,4.37,4.37,0,0,0,1.16,2.29,8.66,8.66,0,0,0,2,1.81v.07l-2.56.26a12.36,12.36,0,0,1-1.43-4.42,4.72,4.72,0,0,1,.64-3.18,3.23,3.23,0,0,1,2.52-1.4l6.21-.62q.8-.07,1-.42a1.13,1.13,0,0,0,.16-.66,1.91,1.91,0,0,0-.15-.54l.07,0a1.72,1.72,0,0,1,1.19,1.57,1.83,1.83,0,0,1-.31,1.3,1.89,1.89,0,0,1-1.2.68,4.49,4.49,0,0,1,2.16,3.5,3.87,3.87,0,0,1-.75,2.89A3.34,3.34,0,0,1,93.64,485.76Zm-.38-2.08a2.4,2.4,0,0,0,1.74-1,2.64,2.64,0,0,0,.53-1.92,3.46,3.46,0,0,0-1.8-2.6l-3.65.37a.72.72,0,0,1,0,.21,8.62,8.62,0,0,0,0,1.6,4.7,4.7,0,0,0,.94,2.35A2.34,2.34,0,0,0,93.26,483.68Z"/><path class="cls-1" d="M84.09,473.66l-.32-2,1.58-.11a4.41,4.41,0,0,1-.6-6.85A6.47,6.47,0,0,1,89,463.1a6.69,6.69,0,0,1,4.75,1.2,4.75,4.75,0,0,1,1.88,3.49,4,4,0,0,1-1.12,3.15l2.64-.17a15.27,15.27,0,0,0,3.2-.67h.07l.19,2.9h-.07a14.49,14.49,0,0,0-3.26-.24l-9.85.64a10.55,10.55,0,0,0-3.15.7h-.09Zm2.22-2.19,7.3-.48a3.42,3.42,0,0,0,.94-2.56A3,3,0,0,0,93,466a6.45,6.45,0,0,0-3.74-.71,6.58,6.58,0,0,0-3.39,1.06,2.68,2.68,0,0,0-1.21,2.49A3.61,3.61,0,0,0,86.31,471.47Z"/><path class="cls-1" d="M83.24,461.51h-.07l-.09-2.42L85,459a3.93,3.93,0,0,1-1.75-1.69,4.55,4.55,0,0,1-.51-1.76,4.41,4.41,0,0,1,.15-1.23l2.31.21v.07a3.12,3.12,0,0,0-.74,2.07,3.82,3.82,0,0,0,.22,1,3,3,0,0,0,.94,1.28l6-.22a15,15,0,0,0,3.23-.57h.07l.1,2.88H95a14.79,14.79,0,0,0-3.26-.34l-5.25.19A14.91,14.91,0,0,0,83.24,461.51Z"/><path class="cls-1" d="M77.46,452.16a1.48,1.48,0,0,1-.43-1,1.46,1.46,0,0,1,.41-1.06,1.34,1.34,0,0,1,1-.45,1.38,1.38,0,0,1,1,.41,1.47,1.47,0,0,1,.43,1.05,1.39,1.39,0,0,1-.4,1,1.36,1.36,0,0,1-1,.45A1.4,1.4,0,0,1,77.46,452.16Zm17.23,0a14.64,14.64,0,0,0-3.24-.4l-5.26.08a15.7,15.7,0,0,0-3.23.51h-.07l0-2.4,8.56-.13a15.78,15.78,0,0,0,3.24-.51h.07l0,2.85Z"/><path class="cls-1" d="M84.29,445.93a5.31,5.31,0,0,1-1.6-4.05,8.52,8.52,0,0,1,1.2-4h2.69V438c-2.07,1.18-3.11,2.48-3.12,3.88a2.85,2.85,0,0,0,1.39,2.54,6.4,6.4,0,0,0,3.5.93,6,6,0,0,0,3.72-1.08,3.6,3.6,0,0,0,1.42-3,5.48,5.48,0,0,0-1.7-3.86l0-.05a5.47,5.47,0,0,1,2.28,1.93,4.93,4.93,0,0,1,.8,2.8,5.15,5.15,0,0,1-1.7,3.9,6.22,6.22,0,0,1-4.48,1.55A6.12,6.12,0,0,1,84.29,445.93Z"/><path class="cls-1" d="M88.79,436.09a6,6,0,0,1-4.33-1.82,5.9,5.9,0,0,1,.35-8.19,6,6,0,0,1,4.46-1.48,6.11,6.11,0,0,1,4.39,1.84,5.8,5.8,0,0,1-.33,8.19A6.13,6.13,0,0,1,88.79,436.09Zm3.95-3a2.86,2.86,0,0,0,1.63-2.48A2.93,2.93,0,0,0,93,427.94a7,7,0,0,0-3.78-1.13,6.82,6.82,0,0,0-3.79.82,3,3,0,0,0-1.63,2.51,2.91,2.91,0,0,0,1.41,2.6,6.8,6.8,0,0,0,3.72,1.12A7.1,7.1,0,0,0,92.74,433.06Z"/><path class="cls-1" d="M83.58,422.57H83.5l.18-2.41,1.91.13A4,4,0,0,1,84,418.41a4.57,4.57,0,0,1-.32-1.8A4.15,4.15,0,0,1,84,415.4l2.28.45v.08a3.24,3.24,0,0,0-.74,1.09,3.4,3.4,0,0,0-.22.88,4.47,4.47,0,0,0,.11,1.06,3,3,0,0,0,.8,1.37l6,.43a15.71,15.71,0,0,0,3.27-.23h.07l-.21,2.87h-.07a15.14,15.14,0,0,0-3.2-.68l-5.24-.38A15,15,0,0,0,83.58,422.57Z"/><path class="cls-1" d="M92.72,414l-5.23-.54a15.36,15.36,0,0,0-3.27.13h-.07l.25-2.41,2,.21a4.78,4.78,0,0,1-1.75-4.11,4,4,0,0,1,1.27-2.65,3.93,3.93,0,0,1,3.2-.81l4.59.47a15.36,15.36,0,0,0,3.27-.13h.07L96.76,407h-.07a14.44,14.44,0,0,0-3.18-.78l-4.37-.45a3,3,0,0,0-2.29.54,2.62,2.62,0,0,0-.94,1.81,4.52,4.52,0,0,0,1.23,3.31l5.78.59a15.36,15.36,0,0,0,3.27-.13h.07L96,414.78H95.9A14.44,14.44,0,0,0,92.72,414Z"/><path class="cls-1" d="M91.33,401.9a6.18,6.18,0,0,1-4.14-2.13,5.07,5.07,0,0,1-1.14-4.09,4.55,4.55,0,0,1,2-3.37,6,6,0,0,1,4.24-.81l-1.12,8.18a6,6,0,0,0,3.82-.59,3.59,3.59,0,0,0,1.83-2.82A5.68,5.68,0,0,0,95.51,392l.06-.09a5.57,5.57,0,0,1,2.1,2.29,5.07,5.07,0,0,1,.49,3.06A5.24,5.24,0,0,1,96,400.93,6.24,6.24,0,0,1,91.33,401.9Zm-.16-8.45a5.59,5.59,0,0,0-3,.44,2.37,2.37,0,0,0-1.35,1.9,2.63,2.63,0,0,0,.88,2.42,6,6,0,0,0,2.91,1.37Z"/><path class="cls-1" d="M107.59,299.06,109,295.9l.09,0a3.06,3.06,0,0,0,.73.47,7.7,7.7,0,0,0,2.5.54l12.9.94-8.74-8.47a8,8,0,0,0-2.2-1.55,4.62,4.62,0,0,0-1.32-.4l-.09,0,1-2.22.07,0a20,20,0,0,0,2.67,3.09L127,298.27l-.82,1.79-14.78-1a18.2,18.2,0,0,0-3.68.08Z"/><path class="cls-1" d="M124,290.55a6.22,6.22,0,0,1-3.23-3.35A5.09,5.09,0,0,1,121,283a4.59,4.59,0,0,1,3-2.54,6.08,6.08,0,0,1,4.28.61l-3.69,7.39a6.09,6.09,0,0,0,3.81.66A3.61,3.61,0,0,0,131,287a5.76,5.76,0,0,0,.08-4.47l.09-.06a5.75,5.75,0,0,1,1.25,2.83,5.39,5.39,0,0,1-3.78,5.82A6.23,6.23,0,0,1,124,290.55Zm2.58-8.05a5.68,5.68,0,0,0-3-.56,2.39,2.39,0,0,0-1.89,1.37,2.62,2.62,0,0,0,.06,2.57,5.88,5.88,0,0,0,2.32,2.23Z"/><path class="cls-1" d="M124.39,276.74l-.06,0,1.14-2.13,1.69.9a4.07,4.07,0,0,1-.66-2.34,4.57,4.57,0,0,1,.45-1.77,3.92,3.92,0,0,1,.75-1l1.89,1.34,0,.06a3.22,3.22,0,0,0-1.12.7,3.29,3.29,0,0,0-.57.72,4.15,4.15,0,0,0-.33,1,3,3,0,0,0,.18,1.58l5.3,2.85a15.4,15.4,0,0,0,3.08,1.13l.06,0-1.36,2.54-.07,0a15.08,15.08,0,0,0-2.64-1.93l-4.63-2.48A14.91,14.91,0,0,0,124.39,276.74Z"/><path class="cls-1" d="M131.15,270.8a2.89,2.89,0,0,1-1.53-2.27,5,5,0,0,1,.73-3.1,9.27,9.27,0,0,1,2.87-3l2.05,1.17-.05.08q-3.27.54-4.24,2.25a3,3,0,0,0-.41,1.73,1.62,1.62,0,0,0,.84,1.31,1.41,1.41,0,0,0,1.43,0,10.51,10.51,0,0,0,2-1.54l.18-.18a7.78,7.78,0,0,1,2.65-1.71,2.87,2.87,0,0,1,2.35.31,3.14,3.14,0,0,1,1.71,2.35,4.83,4.83,0,0,1-.69,3.09,10,10,0,0,1-3.19,3.21l-2.19-1.25,0-.08c2.47-.42,4-1.21,4.7-2.38a2.85,2.85,0,0,0,.38-1.76,1.81,1.81,0,0,0-1-1.4,1.65,1.65,0,0,0-1.59-.1,10.44,10.44,0,0,0-2.12,1.55,10.11,10.11,0,0,1-2.68,1.88A2.44,2.44,0,0,1,131.15,270.8Z"/><path class="cls-1" d="M138.57,263.29a6.22,6.22,0,0,1-2.94-3.61,5.09,5.09,0,0,1,.61-4.2,4.53,4.53,0,0,1,3.23-2.27,6,6,0,0,1,4.2,1l-4.31,7a6.08,6.08,0,0,0,3.74,1,3.58,3.58,0,0,0,2.81-1.85,5.72,5.72,0,0,0,.47-4.44l.09-.06a5.72,5.72,0,0,1,1,2.94,5.07,5.07,0,0,1-.78,3,5.23,5.23,0,0,1-3.48,2.47A6.23,6.23,0,0,1,138.57,263.29Zm3.26-7.79a5.72,5.72,0,0,0-2.94-.82,2.39,2.39,0,0,0-2,1.2,2.64,2.64,0,0,0-.17,2.57,5.91,5.91,0,0,0,2.12,2.42Z"/><path class="cls-1" d="M147.14,254.35a3.09,3.09,0,0,1-1.52-3,7.25,7.25,0,0,1,1.12-3.33,8.92,8.92,0,0,1,1.07-1.31,3.69,3.69,0,0,1,.55-.53l-1.32-.87a3,3,0,0,0-2.09-.59,2.18,2.18,0,0,0-1.52,1,4.34,4.34,0,0,0-.55,2.5,8.81,8.81,0,0,0,.41,2.67l0,.06-2.14-1.41a12.1,12.1,0,0,1,1.68-4.33,4.63,4.63,0,0,1,2.5-2.07,3.23,3.23,0,0,1,2.84.51l5.21,3.43a1.21,1.21,0,0,0,1,.3,1.16,1.16,0,0,0,.54-.41,1.68,1.68,0,0,0,.22-.51l.08,0a1.72,1.72,0,0,1-.07,2,1.8,1.8,0,0,1-1.06.8,1.83,1.83,0,0,1-1.36-.22,4.44,4.44,0,0,1-.54,4.08,3.79,3.79,0,0,1-2.4,1.76A3.36,3.36,0,0,1,147.14,254.35Zm1-1.85a2.38,2.38,0,0,0,2,.35,2.62,2.62,0,0,0,1.62-1.16,3.42,3.42,0,0,0,.24-3.15l-3.06-2a1,1,0,0,1-.14.17,7.48,7.48,0,0,0-1,1.23,4.66,4.66,0,0,0-.77,2.42A2.34,2.34,0,0,0,148.17,252.5Z"/><path class="cls-1" d="M146.73,239.52l1.41-2,6.31,4.47a2.91,2.91,0,0,0,2.24.66,2.63,2.63,0,0,0,1.71-1.12,4.65,4.65,0,0,0,.58-3.44l-.62-.41-4.17-3a15,15,0,0,0-2.9-1.5l-.06,0,1.41-2,7,5a14.81,14.81,0,0,0,2.91,1.5l.06,0-1.25,1.76a11.52,11.52,0,0,1-1.75-1,4.94,4.94,0,0,1-.52,4.46,4.1,4.1,0,0,1-2.41,1.68,3.89,3.89,0,0,1-3.2-.87l-3.78-2.68a15,15,0,0,0-2.9-1.5Z"/><path class="cls-1" d="M221.75,153l0-.06,5.19-3.84a5.62,5.62,0,0,1,4.15-1.19,5.05,5.05,0,0,1,3.51,2.1,4.73,4.73,0,0,1,.84,4.16,6.75,6.75,0,0,1-2.67,3.82l-2.65,2,2,2.7a15,15,0,0,0,2.3,2.34l0,.05-2.43,1.8,0,0a15.28,15.28,0,0,0-1.56-2.88l-6.34-8.57A15.4,15.4,0,0,0,221.75,153Zm2.55-.87,5.26,7.1,2.48-1.84a3.87,3.87,0,0,0,1.67-2.8,4.53,4.53,0,0,0-1-3.24A4.69,4.69,0,0,0,230,149.5a3.6,3.6,0,0,0-3.07.69Z"/><path class="cls-1" d="M238.69,154.49a6,6,0,0,1-1.14-4.56,5.91,5.91,0,0,1,6.76-4.64,5.92,5.92,0,0,1,3.85,2.69,6.11,6.11,0,0,1,1.17,4.61,5.79,5.79,0,0,1-6.75,4.65A6.11,6.11,0,0,1,238.69,154.49Zm4.79,1.33a2.84,2.84,0,0,0,3-.17,3,3,0,0,0,1.25-2.73,7.89,7.89,0,0,0-4.28-6.24,2.94,2.94,0,0,0-3,.21,2.87,2.87,0,0,0-1.24,2.68,6.87,6.87,0,0,0,1.34,3.65A7,7,0,0,0,243.48,155.82Z"/><path class="cls-1" d="M243.93,137.25a1.46,1.46,0,0,1,.64-.9,1.49,1.49,0,0,1,1.12-.23,1.42,1.42,0,0,1,1.11,1.72,1.44,1.44,0,0,1-.66.92,1.4,1.4,0,0,1-1.09.21,1.35,1.35,0,0,1-.92-.62A1.41,1.41,0,0,1,243.93,137.25Zm9.13,14.62a15.27,15.27,0,0,0-1.38-3l-2.87-4.4a14.73,14.73,0,0,0-2.15-2.47l0-.06,2-1.31,4.67,7.19a14.72,14.72,0,0,0,2.15,2.46l0,.06-2.4,1.56Z"/><path class="cls-1" d="M252.61,141.91a2.9,2.9,0,0,1-.27-2.73,5,5,0,0,1,2.13-2.37,9.12,9.12,0,0,1,4-1.27l1.24,2-.09.05q-3.12-1.08-4.8-.05a3,3,0,0,0-1.18,1.33,1.59,1.59,0,0,0,.11,1.54,1.41,1.41,0,0,0,1.24.73,10.74,10.74,0,0,0,2.48-.41l.25-.07a7.81,7.81,0,0,1,3.14-.24,2.86,2.86,0,0,1,1.92,1.4,3.14,3.14,0,0,1,.38,2.88,4.8,4.8,0,0,1-2.09,2.38,10,10,0,0,1-4.33,1.3l-1.33-2.14.08-.05c2.37.81,4.12.86,5.27.16a2.87,2.87,0,0,0,1.17-1.37,1.8,1.8,0,0,0-.19-1.7,1.66,1.66,0,0,0-1.35-.85,10.43,10.43,0,0,0-2.6.36,10.35,10.35,0,0,1-3.26.37A2.46,2.46,0,0,1,252.61,141.91Z"/><path class="cls-1" d="M261.64,136.35a2.9,2.9,0,0,1-.18-2.74,5,5,0,0,1,2.19-2.31,9.37,9.37,0,0,1,4-1.15l1.18,2-.08,0q-3.11-1.17-4.8-.18a2.81,2.81,0,0,0-1.22,1.29,1.57,1.57,0,0,0,.06,1.54,1.43,1.43,0,0,0,1.22.77,10.93,10.93,0,0,0,2.49-.34l.25-.06a7.89,7.89,0,0,1,3.14-.15,2.9,2.9,0,0,1,1.89,1.45,3.19,3.19,0,0,1,.29,2.9,4.9,4.9,0,0,1-2.16,2.32,10.07,10.07,0,0,1-4.37,1.17l-1.26-2.18.08,0q3.52,1.32,5.26.31a2.78,2.78,0,0,0,1.21-1.33,1.76,1.76,0,0,0-.14-1.7,1.63,1.63,0,0,0-1.32-.89,10,10,0,0,0-2.61.28,10.13,10.13,0,0,1-3.27.27A2.46,2.46,0,0,1,261.64,136.35Z"/><path class="cls-1" d="M271.8,133.57a5.94,5.94,0,0,1-.63-4.66,5.92,5.92,0,0,1,7.23-3.86,5.94,5.94,0,0,1,3.53,3.08,6.1,6.1,0,0,1,.66,4.72,5.81,5.81,0,0,1-7.22,3.89A6.17,6.17,0,0,1,271.8,133.57Zm4.62,1.85a2.85,2.85,0,0,0,3,.15,2.94,2.94,0,0,0,1.55-2.57,7,7,0,0,0-.95-3.82,6.84,6.84,0,0,0-2.63-2.85,3,3,0,0,0-3-.13,2.89,2.89,0,0,0-1.52,2.54,6.91,6.91,0,0,0,.93,3.78A7.1,7.1,0,0,0,276.42,135.42Z"/><path class="cls-1" d="M285,129.57l-2.32-4.72a15.11,15.11,0,0,0-1.84-2.71l0-.06L283,121l.89,1.81a4.82,4.82,0,0,1,2.56-3.67,4.05,4.05,0,0,1,2.92-.32,4,4,0,0,1,2.38,2.29l2,4.13a14,14,0,0,0,1.84,2.71l0,.06-2.59,1.28,0-.07a15.47,15.47,0,0,0-1-3.11l-1.94-3.94a3,3,0,0,0-1.67-1.65,2.58,2.58,0,0,0-2,.16,4.51,4.51,0,0,0-2.16,2.8l2.57,5.21a14.25,14.25,0,0,0,1.84,2.7l0,.07-2.59,1.27,0-.07A15.35,15.35,0,0,0,285,129.57Z"/><path class="cls-1" d="M293.58,119.44a2.92,2.92,0,0,1,.1-2.74,4.9,4.9,0,0,1,2.41-2.08,9.17,9.17,0,0,1,4.09-.75l1,2.15-.09,0c-2-1-3.56-1.21-4.75-.67a2.92,2.92,0,0,0-1.35,1.16,1.62,1.62,0,0,0-.09,1.54A1.4,1.4,0,0,0,296,119a10.8,10.8,0,0,0,2.52-.08l.24,0a7.51,7.51,0,0,1,3.15.17,2.8,2.8,0,0,1,1.73,1.63,3.18,3.18,0,0,1,0,2.91,4.82,4.82,0,0,1-2.38,2.08,9.93,9.93,0,0,1-4.46.73l-1-2.29.09,0q3.36,1.67,5.19.83a2.84,2.84,0,0,0,1.35-1.2,1.81,1.81,0,0,0,0-1.71,1.62,1.62,0,0,0-1.22-1,9.94,9.94,0,0,0-2.63,0,10.67,10.67,0,0,1-3.28-.06A2.49,2.49,0,0,1,293.58,119.44Z"/></g></g></svg>