<svg width="73" height="19" viewBox="0 0 73 19" fill="none" xmlns="http://www.w3.org/2000/svg">
<path d="M2.01071 13.368L5.63471 3.36C5.74671 3.04 5.80271 2.712 5.80271 2.376C5.80271 1.88 5.67471 1.352 5.41871 0.792V0.719999H9.16271L14.2747 14.256C14.8507 15.84 15.4427 17.064 16.0507 17.928V18H11.0827V17.904C11.1787 17.792 11.2267 17.416 11.2267 16.776C11.2267 16.68 11.2187 16.4 11.2027 15.936C11.2027 15.472 11.0747 14.896 10.8187 14.208L10.0267 12.12H3.59471L3.09071 13.512C2.88271 14.072 2.77071 14.552 2.75471 14.952C2.75471 15.336 2.75471 15.584 2.75471 15.696C2.75471 16.192 2.78671 16.616 2.85071 16.968C2.91471 17.32 2.99471 17.624 3.09071 17.88V18H0.018708V17.928C0.626708 16.904 1.29071 15.384 2.01071 13.368ZM3.95471 11.112H9.66671L6.73871 3.336L3.95471 11.112ZM17.6266 14.376V9.6C17.6266 8.88 17.4346 7.704 17.0506 6.072V5.976H20.6026V7.872C21.5946 6.512 22.8106 5.832 24.2506 5.832C25.0346 5.832 25.7306 6.032 26.3386 6.432C26.9466 6.816 27.3866 7.392 27.6586 8.16C28.7306 6.608 30.0106 5.832 31.4986 5.832C32.5546 5.832 33.4346 6.176 34.1386 6.864C34.8426 7.536 35.1946 8.544 35.1946 9.888V14.376C35.1946 15.096 35.3866 16.272 35.7706 17.904V18H31.6426V17.904C32.0266 16.272 32.2186 15.096 32.2186 14.376V10.272C32.2186 9.456 31.9946 8.84 31.5466 8.424C31.0986 8.008 30.5546 7.8 29.9146 7.8C29.2426 7.8 28.5386 8.096 27.8026 8.688C27.8826 9.088 27.9226 9.488 27.9226 9.888V14.376C27.9226 15.096 28.1146 16.272 28.4986 17.904V18H24.3946V17.904C24.7786 16.272 24.9706 15.096 24.9706 14.376V10.272C24.9706 9.456 24.7386 8.84 24.2746 8.424C23.8266 8.008 23.2746 7.8 22.6186 7.8C21.9626 7.8 21.2906 8.072 20.6026 8.616V14.376C20.6026 14.84 20.6426 15.32 20.7226 15.816C20.8026 16.312 20.8906 16.784 20.9866 17.232L21.1546 17.904V18H17.0506V17.904C17.4346 16.272 17.6266 15.096 17.6266 14.376ZM38.7881 7.44C39.9401 6.368 41.3881 5.832 43.1321 5.832C44.8601 5.832 46.3081 6.376 47.4761 7.464C48.6601 8.536 49.2521 10.032 49.2521 11.952C49.2521 13.904 48.6681 15.432 47.5001 16.536C46.3161 17.656 44.8601 18.216 43.1321 18.216C41.4041 18.216 39.9561 17.664 38.7881 16.56C37.6201 15.44 37.0361 13.904 37.0361 11.952C37.0361 10.032 37.6201 8.528 38.7881 7.44ZM40.3721 11.952C40.3721 13.44 40.6041 14.704 41.0681 15.744C41.5481 16.784 42.2361 17.304 43.1321 17.304C44.0121 17.304 44.6921 16.784 45.1721 15.744C45.6681 14.688 45.9161 13.424 45.9161 11.952C45.9161 10.496 45.6681 9.264 45.1721 8.256C44.6921 7.232 44.0121 6.72 43.1321 6.72C42.2361 6.72 41.5481 7.232 41.0681 8.256C40.6041 9.264 40.3721 10.496 40.3721 11.952ZM50.5395 5.976H54.1155V13.752C54.1155 14.6 54.3235 15.232 54.7395 15.648C55.1715 16.048 55.7155 16.248 56.3715 16.248C57.1875 16.248 58.0275 15.92 58.8915 15.264C58.8595 14.912 58.8435 14.664 58.8435 14.52V9.6C58.8435 9.152 58.8035 8.68 58.7235 8.184C58.6435 7.672 58.5475 7.2 58.4355 6.768C58.3235 6.32 58.2675 6.088 58.2675 6.072V5.976H61.8195V14.376C61.8195 15.096 62.0115 16.272 62.3955 17.904V18H59.4675C59.2595 17.488 59.0915 16.784 58.9635 15.888C57.9235 17.424 56.6195 18.192 55.0515 18.192C53.9315 18.192 52.9955 17.856 52.2435 17.184C51.4915 16.496 51.1155 15.48 51.1155 14.136V9.6C51.1155 8.88 50.9235 7.704 50.5395 6.072V5.976ZM64.5251 14.376V9.6C64.5251 8.88 64.3331 7.704 63.9491 6.072V5.976H67.5251V8.136C68.0211 7.192 68.5971 6.552 69.2531 6.216C69.9091 5.88 70.5091 5.712 71.0531 5.712C71.4851 5.712 71.9491 5.792 72.4451 5.952L71.9891 9.216H71.8931C71.5091 8.848 71.1091 8.568 70.6931 8.376C70.2771 8.184 69.8531 8.088 69.4211 8.088C69.3251 8.088 69.1091 8.104 68.7731 8.136C68.4371 8.168 68.0211 8.384 67.5251 8.784V14.376C67.5251 14.84 67.5651 15.32 67.6451 15.816C67.7251 16.312 67.8211 16.784 67.9331 17.232L68.0771 17.904V18H63.9491V17.904C64.3331 16.272 64.5251 15.096 64.5251 14.376Z" fill="white"/>
</svg>
