<svg width="44" height="39" viewBox="0 0 44 39" fill="none" xmlns="http://www.w3.org/2000/svg">
<path d="M29.2757 2.36283e-06C27.6431 0.00192924 26.0616 0.569797 24.8007 1.60688C23.5398 2.64396 22.6775 4.0861 22.3605 5.68765C22.0436 7.2892 22.2917 8.95109 23.0626 10.3902C23.8335 11.8294 25.0794 12.9568 26.5882 13.5804C28.0971 14.204 29.7754 14.2852 31.3374 13.8102C32.8994 13.3352 34.2484 12.3334 35.1546 10.9754C36.0609 9.61742 36.4683 7.98724 36.3075 6.36258C36.1467 4.73791 35.4276 3.21923 34.2727 2.06525C33.6162 1.40973 32.837 0.889955 31.9796 0.535598C31.1222 0.18124 30.2034 -0.000756411 29.2757 2.36283e-06ZM33.7889 7.20536C33.2164 7.20373 32.6491 7.3149 32.1195 7.53251C31.5899 7.75013 31.1083 8.06992 30.7023 8.47365C30.2963 8.87737 29.9738 9.3571 29.7532 9.88546C29.5326 10.4138 29.4182 10.9805 29.4166 11.553C29.4183 11.5725 29.416 11.5921 29.4097 11.6107C29.4035 11.6292 29.3934 11.6462 29.3802 11.6607C29.367 11.6751 29.351 11.6866 29.3331 11.6945C29.3152 11.7024 29.2958 11.7065 29.2763 11.7065C29.2567 11.7065 29.2374 11.7024 29.2195 11.6945C29.2016 11.6866 29.1855 11.6751 29.1723 11.6607C29.1591 11.6462 29.1491 11.6292 29.1428 11.6107C29.1365 11.5921 29.1342 11.5725 29.136 11.553C29.1311 10.3972 28.668 9.29045 27.8484 8.47545C27.0288 7.66046 25.9194 7.20371 24.7636 7.20536C24.7285 7.20222 24.6959 7.18608 24.6722 7.16012C24.6484 7.13415 24.6353 7.10024 24.6353 7.06506C24.6353 7.02987 24.6484 6.99596 24.6722 6.97C24.6959 6.94403 24.7285 6.92789 24.7636 6.92475C25.9189 6.92639 27.0276 6.46945 27.8462 5.65428C28.6649 4.83911 29.1265 3.73235 29.1298 2.57707C29.1298 2.53971 29.1446 2.50388 29.171 2.47747C29.1975 2.45105 29.2333 2.43621 29.2706 2.43621C29.308 2.43621 29.3438 2.45105 29.3703 2.47747C29.3967 2.50388 29.4115 2.53971 29.4115 2.57707C29.4131 3.14964 29.5275 3.71628 29.7481 4.24464C29.9687 4.77301 30.2912 5.25275 30.6973 5.65647C31.1033 6.06019 31.5848 6.37998 32.1144 6.59759C32.644 6.81521 33.2113 6.92638 33.7839 6.92475C33.8189 6.92789 33.8515 6.94403 33.8753 6.97C33.899 6.99596 33.9122 7.02987 33.9122 7.06506C33.9122 7.10024 33.899 7.13415 33.8753 7.16012C33.8515 7.18608 33.8189 7.20222 33.7839 7.20536H33.7889Z" fill="white"/>
<path d="M43.884 16.3907C43.7355 16.1502 43.5279 15.9518 43.2811 15.8143C43.0342 15.6768 42.7562 15.6047 42.4736 15.605C40.7643 15.5881 39.0755 15.978 37.5465 16.7424C36.0175 17.5069 34.6923 18.624 33.6801 20.0015L32.2636 21.8793C31.3804 22.8786 30.2926 23.6761 29.0739 24.2178C27.8552 24.7595 26.5343 25.0326 25.2008 25.0187H20.49C20.0863 25 19.7052 24.8265 19.4262 24.5341C19.1471 24.2418 18.9913 23.8532 18.9913 23.449C18.9913 23.0448 19.1471 22.6562 19.4262 22.3639C19.7052 22.0716 20.0863 21.898 20.49 21.8793H23.4762C25.9842 21.8793 28.339 19.8371 28.339 17.3234V17.164C28.3126 16.7559 28.1386 16.3714 27.8494 16.0823C27.5603 15.7931 27.1758 15.6191 26.7677 15.5927H17.1912C11.5376 15.5927 6.98731 18.1069 4.4731 22.1908L0.235412 28.7962C0.0818434 29.0295 0 29.3026 0 29.5819C0 29.8612 0.0818434 30.1343 0.235412 30.3676L0.321277 30.5146C2.44793 33.4988 5.13195 36.0434 8.22534 38.0079C13.9054 34.5459 20.43 32.7169 27.0819 32.7219C29.6192 32.7202 32.1093 32.0363 34.2913 30.7416C36.4734 29.447 38.2672 27.5893 39.4846 25.3633L43.7279 17.8268C43.874 17.6207 43.9648 17.3805 43.9916 17.1293C44.0185 16.8781 43.9804 16.6241 43.8811 16.3918L43.884 16.3907Z" fill="white"/>
</svg>
