<svg width="24" height="24" viewBox="0 0 24 24" fill="none" xmlns="http://www.w3.org/2000/svg">
<path d="M20.466 1.96339L14.78 0.217392C13.5249 -0.164847 12.17 -0.0396143 11.0063 0.566193C9.84251 1.172 8.96277 2.21006 8.556 3.45739L8.368 3.99639H5C3.67441 3.99798 2.40356 4.52527 1.46622 5.46261C0.528882 6.39995 0.00158786 7.6708 0 8.99639L0 18.9964C0.00158786 20.322 0.528882 21.5928 1.46622 22.5302C2.40356 23.4675 3.67441 23.9948 5 23.9964H11C11.7575 23.9937 12.5044 23.8181 13.1838 23.483C13.8631 23.1478 14.457 22.6619 14.92 22.0624C15.1482 22.0955 15.3784 22.1129 15.609 22.1144C16.6828 22.1152 17.7281 21.7687 18.5887 21.1265C19.4493 20.4843 20.0791 19.581 20.384 18.5514L23.8 8.15239C24.1649 6.88969 24.0202 5.53424 23.3968 4.37708C22.7735 3.21992 21.7212 2.35333 20.466 1.96339ZM11 21.9964H5C4.20435 21.9964 3.44129 21.6803 2.87868 21.1177C2.31607 20.5551 2 19.792 2 18.9964V8.99639C2 8.20074 2.31607 7.43768 2.87868 6.87507C3.44129 6.31246 4.20435 5.99639 5 5.99639H11C11.7956 5.99639 12.5587 6.31246 13.1213 6.87507C13.6839 7.43768 14 8.20074 14 8.99639V18.9964C14 19.792 13.6839 20.5551 13.1213 21.1177C12.5587 21.6803 11.7956 21.9964 11 21.9964ZM21.887 7.55939L18.475 17.9594C18.3054 18.5347 17.9669 19.0458 17.5033 19.4263C17.0396 19.8069 16.4723 20.0393 15.875 20.0934C15.9571 19.7335 15.999 19.3656 16 18.9964V8.99639C15.9984 7.6708 15.4711 6.39995 14.5338 5.46261C13.5964 4.52527 12.3256 3.99798 11 3.99639H10.493C10.7511 3.26897 11.2797 2.66902 11.9688 2.3213C12.6579 1.97359 13.4545 1.90485 14.193 2.12939L19.879 3.87539C20.6279 4.10649 21.2569 4.62095 21.632 5.30912C22.0071 5.99729 22.0986 6.80475 21.887 7.55939ZM12 12.9964C12 14.4464 10.456 16.3874 9.286 17.3744C8.92652 17.6785 8.47088 17.8454 8 17.8454C7.52912 17.8454 7.07348 17.6785 6.714 17.3744C5.544 16.3874 4 14.4464 4 12.9964C4 12.466 4.21071 11.9573 4.58579 11.5822C4.96086 11.2071 5.46957 10.9964 6 10.9964C6.53043 10.9964 7.03914 11.2071 7.41421 11.5822C7.78929 11.9573 8 12.466 8 12.9964C8 12.466 8.21071 11.9573 8.58579 11.5822C8.96086 11.2071 9.46957 10.9964 10 10.9964C10.5304 10.9964 11.0391 11.2071 11.4142 11.5822C11.7893 11.9573 12 12.466 12 12.9964Z" fill="#D9D9D9"/>
</svg>
