<svg width="79" height="82" viewBox="0 0 79 82" fill="none" xmlns="http://www.w3.org/2000/svg">
<path opacity="0.25" d="M17.5408 30.346C16.7451 33.3322 16.5887 36.4528 17.0817 39.5036C17.5748 42.5544 18.7063 45.4668 20.4022 48.0504C21.549 49.7419 22.3228 51.6581 22.6721 53.6717C23.0214 55.6853 22.9382 57.7501 22.428 59.7291L21.9908 61.3417L40.4888 66.2982L40.926 64.6856C41.48 62.7201 42.4459 60.895 43.7595 59.3315C45.0731 57.7679 46.7044 56.5018 48.5449 55.6172C51.8321 53.9822 54.6568 51.549 56.7605 48.5402C58.8643 45.5314 60.18 42.0431 60.5873 38.3944C60.9945 34.7458 60.4804 31.0532 59.0918 27.6546C57.7032 24.256 55.4845 21.2599 52.6387 18.9403C49.793 16.6208 46.411 15.0519 42.8022 14.3771C39.1934 13.7024 35.473 13.9434 31.9814 15.078C28.4898 16.2127 25.3385 18.2048 22.8157 20.8721C20.293 23.5394 18.4794 26.7967 17.5408 30.346Z" fill="#8C49A3"/>
<path d="M44.8709 40.4654L34.4026 60.9968L35.5811 61.5977L46.0494 41.0663L44.8709 40.4654Z" fill="white"/>
<path d="M29.3693 36.5944L28.1602 59.6479L29.4831 59.7173L30.6921 36.6637L29.3693 36.5944Z" fill="white"/>
<path d="M32.7443 47.0002L36.7368 43.0189L38.0652 48.3511L44.6359 44.06L43.8723 42.9648L38.936 46.1894L37.4927 40.367L33.1372 44.7129L30.587 39.5794L29.3529 40.1697L32.7443 47.0002Z" fill="white"/>
<path d="M22.7538 57.6814L41.651 62.748L39.2383 71.7467C38.9824 72.7014 38.3577 73.5152 37.5017 74.0093C36.6456 74.5033 35.6284 74.6371 34.6738 74.3811L22.9755 71.2446C22.0209 70.9887 21.207 70.364 20.713 69.508C20.2189 68.6519 20.0852 67.6347 20.3411 66.6801L22.7538 57.6814Z" fill="white"/>
</svg>
