<svg width="32" height="31" viewBox="0 0 32 31" fill="none" xmlns="http://www.w3.org/2000/svg">
<path d="M16.1026 30.9345C24.6449 30.9345 31.5699 24.0096 31.5699 15.4672C31.5699 6.92492 24.6449 0 16.1026 0C7.5603 0 0.635376 6.92492 0.635376 15.4672C0.635376 24.0096 7.5603 30.9345 16.1026 30.9345Z" fill="white"/>
<path d="M22.9655 24.1195C22.3433 24.1291 21.7325 23.9523 21.2116 23.612C20.6907 23.2717 20.2835 22.7833 20.0424 22.2097C19.7821 21.6275 19.6509 20.996 19.6577 20.3583V10.514C19.6841 10.1095 19.5488 9.71108 19.2814 9.40639C19.0141 9.1017 18.6367 8.91568 18.2322 8.88926C17.8277 8.86284 17.4293 8.99819 17.1247 9.26551C16.82 9.53284 16.6339 9.91026 16.6075 10.3147C16.6041 10.3811 16.6041 10.4476 16.6075 10.514V20.7808C16.5889 20.9829 16.4954 21.1708 16.3455 21.3076C16.1955 21.4443 15.9999 21.5202 15.7969 21.5202C15.5939 21.5202 15.3983 21.4443 15.2483 21.3076C15.0984 21.1708 15.0049 20.9829 14.9863 20.7808V10.514C15.0132 9.69794 15.3564 8.92436 15.9432 8.35665C16.5299 7.78894 17.3144 7.47156 18.1309 7.47156C18.9474 7.47156 19.7319 7.78894 20.3186 8.35665C20.9054 8.92436 21.2485 9.69794 21.2755 10.514V20.3583C21.2682 20.7588 21.3479 21.1561 21.5091 21.5227C21.6177 21.8183 21.8171 22.0719 22.0788 22.2472C22.3404 22.4224 22.6508 22.5103 22.9655 22.4982C23.0761 22.491 23.1871 22.5066 23.2915 22.544C23.3959 22.5814 23.4915 22.6398 23.5725 22.7156C23.6534 22.7914 23.7179 22.883 23.762 22.9848C23.8061 23.0865 23.8289 23.1963 23.8289 23.3072C23.8289 23.418 23.8061 23.5278 23.762 23.6295C23.7179 23.7313 23.6534 23.8229 23.5725 23.8987C23.4915 23.9745 23.3959 24.0329 23.2915 24.0703C23.1871 24.1077 23.0761 24.1233 22.9655 24.1161V24.1195Z" fill="#8C49A3"/>
<path d="M15.7832 21.6017C15.676 21.6018 15.5699 21.5804 15.4711 21.539C15.3722 21.4976 15.2826 21.4369 15.2075 21.3605C15.1324 21.2841 15.0732 21.1934 15.0334 21.0939C14.9937 20.9944 14.9742 20.888 14.976 20.7808V10.514C15.0024 10.1099 14.8672 9.71197 14.6002 9.4076C14.3332 9.10323 13.9562 8.9174 13.5522 8.89098C13.1482 8.86456 12.7502 8.99972 12.4459 9.26673C12.1415 9.53373 11.9557 9.91071 11.9292 10.3147C11.9258 10.3811 11.9258 10.4476 11.9292 10.514V20.7808C11.9106 20.9829 11.8172 21.1708 11.6672 21.3076C11.5172 21.4443 11.3216 21.5202 11.1186 21.5202C10.9156 21.5202 10.72 21.4443 10.57 21.3076C10.4201 21.1708 10.3266 20.9829 10.308 20.7808V10.514C10.335 9.69794 10.6781 8.92436 11.2649 8.35665C11.8517 7.78894 12.6361 7.47156 13.4526 7.47156C14.2691 7.47156 15.0536 7.78894 15.6404 8.35665C16.2271 8.92436 16.5703 9.69794 16.5972 10.514V20.7808C16.5972 20.9949 16.5122 21.2002 16.3608 21.3516C16.2094 21.503 16.0041 21.588 15.79 21.588L15.7832 21.6017Z" fill="#8C49A3"/>
<path d="M11.4758 10.1055C11.3061 10.1064 11.1404 10.0538 11.0023 9.95517C10.8641 9.8565 10.7606 9.7168 10.7064 9.55593C10.5925 9.23738 10.3856 8.96037 10.1125 8.76073C9.83934 8.56109 9.51258 8.44803 9.17448 8.43616C8.96816 8.42274 8.77468 8.33131 8.63331 8.18044C8.49194 8.02957 8.41327 7.83056 8.41327 7.62381C8.41327 7.41706 8.49194 7.21805 8.63331 7.06718C8.77468 6.91631 8.96816 6.82489 9.17448 6.81146C9.84994 6.82705 10.5047 7.04762 11.0519 7.44392C11.5991 7.84021 12.0129 8.3935 12.2384 9.03039C12.3102 9.23129 12.2996 9.45247 12.2089 9.64556C12.1181 9.83866 11.9546 9.98797 11.7541 10.0609H11.7335C11.651 10.0912 11.5637 10.1063 11.4758 10.1055Z" fill="#8C49A3"/>
<path d="M16.9167 24.1199C16.7221 24.1199 16.5341 24.0499 16.3868 23.9228C16.2395 23.7956 16.1429 23.6198 16.1146 23.4273C16.0863 23.2348 16.1281 23.0385 16.2325 22.8743C16.3369 22.7102 16.4968 22.589 16.6831 22.5329C21.4473 21.08 22.8418 16.941 22.282 15.0381C22.2592 14.8596 22.1953 14.6888 22.0954 14.5391C21.9956 14.3895 21.8623 14.265 21.7063 14.1755C21.5502 14.0859 21.3755 14.0338 21.1958 14.0231C21.0162 14.0125 20.8366 14.0436 20.671 14.1141C20.4681 14.1602 20.2552 14.1265 20.0764 14.02C19.8977 13.9136 19.7667 13.7424 19.7106 13.542C19.6546 13.3416 19.6777 13.1273 19.7753 12.9435C19.8729 12.7597 20.0374 12.6205 20.2348 12.5546C20.6051 12.4246 20.999 12.3753 21.3899 12.4102C21.7808 12.4452 22.1598 12.5634 22.5012 12.7571C22.8426 12.9507 23.1385 13.2152 23.3691 13.5329C23.5997 13.8505 23.7596 14.2138 23.838 14.5984C24.6623 17.4012 22.7491 22.423 17.1503 24.1027C17.0737 24.1203 16.995 24.1261 16.9167 24.1199Z" fill="#8C49A3"/>
</svg>
