<svg width="39" height="42" viewBox="0 0 39 42" fill="none" xmlns="http://www.w3.org/2000/svg">
<path d="M36.3964 16.9283C36.4073 17.7253 35.8125 18.4137 34.7572 18.8376C34.2362 18.2108 33.4681 17.6674 32.4552 17.2145C30.73 16.4403 29.9728 15.6783 29.6759 14.9307C30.5143 15.0515 32.855 15.5346 33.9491 17.2471L34.3331 17.0055C33.7274 16.0551 32.677 15.3148 31.3043 14.8534C30.7328 14.6625 30.1434 14.5298 29.5451 14.4573C29.4578 13.9356 29.5451 13.4199 29.6311 12.9115C29.6817 12.6434 29.7185 12.3729 29.7413 12.1011C29.7583 11.8415 29.7692 11.5879 29.7777 11.3354L29.8056 11.3934C30.2575 12.2726 31.2328 13.4634 33.3191 14.1409C35.2018 14.7508 36.3795 15.8208 36.3964 16.9283Z" fill="white"/>
<path d="M4.87531 33.4629C4.12535 34.2395 3.82973 34.2938 2.74902 34.487C2.42554 34.5438 2.02209 34.6163 1.52656 34.7225C0.935221 34.8572 0.401245 35.1736 0 35.6271C0.319851 35.0003 0.924418 34.2358 2.05965 33.5487C3.10643 32.9146 3.51352 32.2842 3.64921 31.8011C3.86971 32.1284 4.12535 32.4762 4.41976 32.847C4.58696 33.0608 4.73719 33.2649 4.87531 33.4629Z" fill="white"/>
<path d="M8.88076 39.6619C8.487 40.5616 7.19669 41.2826 6.23714 41.6799C7.75522 39.9891 8.14776 38.1885 7.47535 36.0943C7.92968 35.0328 7.64618 33.6548 6.64422 32.0933C5.60107 30.4701 5.824 29.2757 6.08569 28.6622C6.29882 29.2554 6.67397 29.7774 7.16883 30.1694C8.79231 31.5257 8.94255 32.2225 8.6227 33.9C8.46035 34.7454 8.72083 35.5291 9.16426 36.2175C9.29632 36.5388 9.70462 37.7839 8.88076 39.6619Z" fill="white"/>
<path d="M7.00521 36.0316C6.71928 36.5992 6.17166 37.0304 5.38899 37.3118C5.76134 37.0588 6.03812 36.6889 6.17529 36.2611C6.45758 35.3215 5.99961 34.1138 4.77594 32.568C4.36365 32.0592 3.98794 31.5221 3.65162 30.9605L3.64192 30.9352C2.26559 28.5548 3.19971 27.4606 5.09579 25.4281C5.30176 25.6696 5.52872 25.9196 5.77669 26.1781C5.83363 26.2373 5.8724 26.2771 5.88573 26.2928L6.17893 26.1153C5.97179 26.7185 5.88936 27.3574 5.93661 27.9932C5.66401 28.3761 4.7396 29.9714 6.25889 32.3409C7.21723 33.8264 7.47408 35.1041 7.00521 36.0316Z" fill="white"/>
<path d="M4.79658 25.0754C4.08055 25.8447 3.47598 26.5029 3.07011 27.1563C3.06284 25.9293 3.94728 24.8617 4.33134 24.4523C4.47188 24.656 4.62696 24.8637 4.79658 25.0754Z" fill="white"/>
<path d="M2.71147 27.8786C2.54293 28.3201 2.48552 28.7962 2.54427 29.265C1.77372 28.1442 1.43933 27.0211 1.55322 25.9161C1.72163 24.2688 2.84959 23.0804 3.35602 22.6239C3.54273 23.1286 3.78361 23.6116 4.07447 24.0647C3.63468 24.5067 2.23533 26.0863 2.71026 27.8786H2.71147Z" fill="white"/>
<path d="M8.18772 19.0817C7.86302 20.1275 7.07188 22.2857 5.6277 24.125C5.40841 23.1588 5.30058 22.026 5.6277 21.1516C5.72677 20.8663 5.88437 20.6047 6.09046 20.3835C6.29655 20.1623 6.54662 19.9862 6.82472 19.8667C7.30562 19.6538 7.76251 19.3906 8.18772 19.0817V19.0817Z" fill="white"/>
<path d="M10.0983 16.641C10.0172 18.6107 8.9195 20.6155 7.85212 22.5647C7.20878 23.7386 6.5812 24.8859 6.22257 25.9656C6.04138 25.5436 5.88918 25.1098 5.76703 24.6673C7.93814 22.0671 8.74988 18.7955 8.80683 18.5564C9.3729 18.0199 9.81381 17.3661 10.0983 16.641Z" fill="white"/>
<path d="M14.489 40.4951C14.3994 41.105 13.8517 41.5905 13.2181 41.995C13.9196 40.0156 13.6228 39.2463 11.9968 38.2271C11.4892 37.9082 10.251 37.0592 9.54345 35.9602C9.53133 35.9349 9.52285 35.9192 9.51921 35.9131C9.15575 35.325 8.93767 34.668 9.06973 33.9808C9.41502 32.1862 9.22481 31.2877 7.46562 29.8179C5.36236 28.0595 6.70234 25.6115 8.25556 22.7771C9.26479 20.9342 10.2995 19.0429 10.52 17.136C10.6266 17.3775 10.7732 17.5913 10.9707 17.671C11.0263 17.6926 11.0854 17.7041 11.1451 17.7048C10.9816 18.7012 10.4315 21.6962 9.47075 23.3737C8.20104 25.5898 7.36143 27.0547 7.81576 28.2805C8.14167 29.1573 9.12788 29.8505 11.0143 30.522L11.1354 30.5655C11.4904 30.8928 12.0356 31.6633 11.7739 33.2019C11.3559 35.6462 11.471 36.4349 13.5573 38.5725C14.2552 39.2959 14.5702 39.9408 14.489 40.4951Z" fill="white"/>
<path d="M10.9222 24.9994C9.37502 27.2397 9.58947 27.7964 10.6278 29.9002C9.22721 29.3471 8.48089 28.7891 8.23858 28.1285C7.85815 27.1008 8.65535 25.7131 9.86207 23.6033C10.6084 22.3014 11.1051 20.3051 11.3801 18.9392C11.5611 19.7818 11.8303 20.6031 12.1834 21.3896C12.1798 21.6179 12.124 23.2591 10.9222 24.9994Z" fill="white"/>
<path d="M13.4483 31.01C12.9637 31.6489 12.5227 31.952 12.2743 32.086C12.1713 30.8482 11.5134 30.2624 11.2057 30.0547L11.1051 29.8494C10.0244 27.6659 9.85845 27.3302 11.2917 25.2602C11.9239 24.3558 12.3524 23.3259 12.5481 22.241C12.6123 22.3871 12.6693 22.532 12.7335 22.6709C12.9517 23.1915 13.2229 23.6885 13.5428 24.1539C11.4953 28.0499 12.9322 30.3615 13.4483 31.01Z" fill="white"/>
<path d="M14.0056 30.1476C13.9111 30.3203 13.8178 30.4737 13.7245 30.6198C13.2266 29.9411 12.1628 27.9182 13.8457 24.5681C14.1038 24.9056 14.3848 25.2252 14.6865 25.5246C14.718 25.9654 14.8864 28.5221 14.0056 30.1476Z" fill="white"/>
<path d="M38.6354 35.6271C38.2347 35.1725 37.7006 34.8552 37.1088 34.7201C36.6121 34.6139 36.2098 34.5414 35.8864 34.4846C34.8057 34.2914 34.5112 34.2371 33.7613 33.4605C33.8982 33.2624 34.0484 33.0584 34.2168 32.847C34.51 32.4758 34.7665 32.1272 34.9862 31.8011C35.1255 32.2842 35.529 32.9146 36.5757 33.5487C37.711 34.2383 38.3155 35.0027 38.6354 35.6271Z" fill="white"/>
<path d="M32.3983 41.6799C31.4388 41.2826 30.1497 40.5616 29.7547 39.6619C28.932 37.7839 29.3391 36.5388 29.4748 36.2175C29.9183 35.5291 30.1799 34.7429 30.0164 33.9C29.6929 32.2189 29.8443 31.5257 31.4703 30.1694C31.9656 29.7776 32.3411 29.2555 32.5546 28.6622C32.8163 29.2757 33.0392 30.4738 31.9949 32.0933C30.9929 33.6548 30.7094 35.0328 31.1649 36.0943C30.4889 38.1885 30.8802 39.9843 32.3983 41.6799Z" fill="white"/>
<path d="M34.9971 30.9363L34.9874 30.9617C34.6511 31.5232 34.2754 32.0604 33.8631 32.5691C32.6394 34.115 32.1814 35.3227 32.4637 36.2622C32.6009 36.6901 32.8777 37.06 33.25 37.3129C32.4686 37.0315 31.9173 36.6004 31.6338 36.0328C31.1649 35.1053 31.4218 33.8275 32.3777 32.3397C33.897 29.9726 32.9726 28.3772 32.7 27.992C32.7438 27.4984 32.7028 27.0009 32.5788 26.521L32.7618 26.2964C32.7775 26.2771 32.8175 26.2372 32.8744 26.1756C33.1216 25.918 33.3486 25.668 33.5553 25.4257C35.4393 27.4618 36.3734 28.556 34.9971 30.9363Z" fill="white"/>
<path d="M35.5653 27.1563C35.1594 26.5029 34.556 25.8447 33.8388 25.0754C34.0096 24.8629 34.1647 24.654 34.3053 24.4523C34.6881 24.8568 35.575 25.9269 35.5653 27.1563Z" fill="white"/>
<path d="M36.0923 29.265C36.151 28.7962 36.0936 28.3201 35.9251 27.8786C35.9899 27.6338 36.0225 27.3817 36.022 27.1286C36.022 25.6564 34.9401 24.4439 34.5621 24.0647C34.8528 23.6114 35.0941 23.1284 35.2817 22.6239C35.7882 23.0804 36.9149 24.2688 37.0833 25.9161C37.1948 27.0211 36.8628 28.1394 36.0923 29.265Z" fill="white"/>
<path d="M24.9109 30.6186C24.8176 30.4737 24.7243 30.3191 24.631 30.1476C23.7514 28.5245 23.9186 25.9642 23.955 25.5246C24.256 25.2248 24.5365 24.9053 24.7946 24.5681C26.4726 27.9182 25.4088 29.9411 24.9109 30.6186Z" fill="white"/>
<path d="M27.5254 29.8508L27.4248 30.0549C27.1171 30.2638 26.4556 30.8496 26.3563 32.0862C26.1067 31.9522 25.6669 31.6491 25.1823 31.0102C25.7044 30.3617 27.1401 28.0502 25.0938 24.1554C25.4114 23.6876 25.681 23.1891 25.8983 22.6675C25.9552 22.5286 26.0194 22.3837 26.0824 22.2375C26.2781 23.3224 26.7067 24.3524 27.3388 25.2568C28.5807 27.0526 28.7721 27.3304 27.5254 29.8508Z" fill="white"/>
<path d="M30.398 28.1285C30.1557 28.7891 29.4082 29.3447 28.0076 29.9002C29.0459 27.7964 29.2616 27.2433 27.7132 24.9994C26.5113 23.2579 26.4556 21.6179 26.4532 21.3896C26.8081 20.6034 27.0785 19.7821 27.2601 18.9392C27.5351 20.3051 28.0331 22.3014 28.7782 23.6033C29.9812 25.7095 30.7797 27.1008 30.398 28.1285Z" fill="white"/>
<path d="M31.1746 29.8229C29.4154 31.2926 29.2252 32.1911 29.5705 33.9858C29.7026 34.6705 29.4893 35.3287 29.121 35.9181C29.121 35.9241 29.1089 35.9398 29.0968 35.9652C28.3892 37.0642 27.151 37.9132 26.6434 38.232C25.0175 39.2513 24.7206 40.0206 25.4221 42C24.7897 41.5954 24.2421 41.1099 24.1524 40.5C24.07 39.9457 24.385 39.3008 25.0865 38.5822C27.174 36.4446 27.2879 35.656 26.8711 33.2116C26.6082 31.6718 27.1462 30.9037 27.5036 30.5777L27.6308 30.5318C29.5172 29.8591 30.5034 29.1671 30.8293 28.2903C31.2836 27.0645 30.444 25.5996 29.1743 23.3835C28.2136 21.706 27.6635 18.7109 27.5012 17.7146C27.5605 17.7137 27.6192 17.7023 27.6744 17.6808C27.8719 17.601 28.0185 17.3933 28.1263 17.1458C28.3456 19.0527 29.3803 20.9439 30.3895 22.7869C31.1395 24.1552 31.8434 25.4341 32.1257 26.5875L31.5526 27.7831L32.2081 26.98C32.3825 28.0512 32.1463 29.0113 31.1746 29.8229Z" fill="white"/>
<path d="M32.8696 24.6708C32.7464 25.112 32.5939 25.5445 32.4128 25.9655C32.0554 24.8785 31.4266 23.7349 30.7833 22.561C29.7208 20.6214 28.6291 18.6275 28.5395 16.6663C28.8268 17.3826 29.2671 18.0279 29.8298 18.5575C29.888 18.8063 30.6997 22.0731 32.8696 24.6708Z" fill="white"/>
<path d="M33.0077 24.1213C31.5648 22.2832 30.7736 20.1263 30.4489 19.0817C30.8753 19.3904 31.3335 19.6532 31.8156 19.8655C32.0937 19.985 32.3437 20.1611 32.5498 20.3823C32.7559 20.6035 32.9135 20.8651 33.0126 21.1504C33.3348 22.0224 33.227 23.1528 33.0077 24.1213Z" fill="white"/>
<path d="M4.30225 17.0044L4.6851 17.2459C5.7755 15.5382 8.11866 15.0527 8.95827 14.9296C8.66144 15.6783 7.90421 16.4392 6.17895 17.2133C5.16851 17.6662 4.40039 18.2096 3.87699 18.8364C2.82173 18.4125 2.22685 17.7241 2.23776 16.9271C2.25472 15.8172 3.43235 14.7532 5.31269 14.1385C7.37234 13.4695 8.36945 12.2992 8.85407 11.3149C8.86215 11.5718 8.87467 11.833 8.89163 12.0987C8.9098 12.3644 8.95463 12.6289 9.00188 12.9091C9.08912 13.4175 9.17514 13.9332 9.08911 14.4549C8.49067 14.5285 7.90125 14.6625 7.32993 14.8547C5.95724 15.31 4.90924 16.0539 4.30225 17.0044Z" fill="white"/>
<path d="M28.2645 12.9224C28.2081 12.8788 28.1423 12.8487 28.0724 12.8345C28.0024 12.8202 27.9301 12.8222 27.861 12.8403C27.5545 12.9285 27.2952 13.3415 27.1922 13.5456C27.2334 13.9876 27.2649 14.4683 27.2867 14.9948L26.8336 15.0142C26.601 9.61217 25.6039 9.16171 22.4853 8.55062C20.5275 8.16778 19.683 7.58447 19.3183 7.15332C18.9549 7.57963 18.1068 8.16778 16.1501 8.55062C13.0316 9.16171 12.0308 9.61217 11.8018 15.0142L11.3487 14.9948C11.3705 14.4695 11.402 13.9888 11.4432 13.5456C11.3414 13.3415 11.0797 12.9285 10.7744 12.8403C10.7054 12.8222 10.6331 12.8202 10.5631 12.8345C10.4931 12.8487 10.4274 12.8788 10.371 12.9224C10.0269 13.1519 10.0814 13.4418 10.3262 14.2135C10.512 14.7397 10.6317 15.287 10.6824 15.8426C10.7211 16.4139 10.9368 17.1771 11.1343 17.2556C11.1561 17.2653 11.19 17.2472 11.2191 17.2267C11.2239 16.9391 11.2446 16.6521 11.2809 16.3668L11.7316 16.4235C11.4529 18.6239 12.2259 20.3739 12.8486 21.7808C12.9577 22.0224 13.0631 22.2639 13.1576 22.4958C14.5775 25.928 18.2461 27.5125 19.3171 27.9123C20.3894 27.5125 24.0604 25.9244 25.4779 22.4958C25.5724 22.2675 25.6778 22.0284 25.7881 21.7808C26.4096 20.3739 27.1826 18.6239 26.9039 16.4235L27.3546 16.3668C27.3908 16.6517 27.4115 16.9383 27.4164 17.2254C27.4455 17.246 27.4794 17.2653 27.5012 17.2556C27.6987 17.1771 27.9143 16.4103 27.9531 15.8426C28.0038 15.287 28.1234 14.7397 28.3093 14.2135C28.554 13.4405 28.6086 13.1507 28.2645 12.9224ZM25.0478 12.7594L24.8927 13.1845C22.3666 12.2667 21.0799 14.1712 21.0266 14.2521L20.645 14.0106C20.6607 13.9816 22.1716 11.7148 25.0478 12.7582V12.7594ZM18.1879 15.1506L18.5878 14.9357C18.6701 15.0878 19.3644 16.4755 18.5393 18.5841L18.3988 18.9404C18.1249 19.6287 17.8427 20.3425 17.9565 20.5285C17.9784 20.5635 18.0438 20.5768 18.0947 20.5804C18.6386 20.6311 18.8398 20.8401 18.9864 20.9934C19.0268 21.0419 19.0775 21.0808 19.1348 21.1076C19.192 21.1343 19.2545 21.1481 19.3177 21.1481C19.381 21.1481 19.4434 21.1343 19.5007 21.1076C19.5579 21.0808 19.6086 21.0419 19.6491 20.9934C19.7957 20.8401 19.998 20.6311 20.5408 20.5804C20.5917 20.5804 20.6619 20.5635 20.6789 20.5285C20.794 20.3425 20.5105 19.6287 20.2367 18.9392C20.1919 18.8244 20.1446 18.7061 20.0962 18.5841C19.2711 16.4755 19.9665 15.0878 20.0477 14.9357L20.4475 15.1506C20.4196 15.2038 19.7557 16.4682 20.5202 18.4198L20.6595 18.7725C21.0448 19.7386 21.2992 20.386 21.0654 20.7652C21.0127 20.8458 20.9409 20.9123 20.8564 20.9588C20.772 21.0053 20.6773 21.0305 20.5808 21.0321C20.2076 21.0659 20.0962 21.1782 19.975 21.3074C19.898 21.4028 19.7997 21.4789 19.6881 21.5298C19.5764 21.5808 19.4544 21.6051 19.3317 21.6009H19.2989C19.1761 21.6052 19.0539 21.5809 18.9422 21.5297C18.8305 21.4785 18.7323 21.402 18.6556 21.3062C18.5345 21.1782 18.4254 21.0647 18.0498 21.0321C17.9533 21.0304 17.8587 21.0052 17.7742 20.9587C17.6898 20.9121 17.618 20.8457 17.5652 20.7652C17.3314 20.386 17.5858 19.7447 17.9711 18.7737C18.0171 18.659 18.0632 18.5406 18.1116 18.4198C18.8797 16.467 18.217 15.2026 18.1879 15.1494V15.1506ZM16.8758 12.9828C17.3152 13.2416 17.695 13.5897 17.9905 14.0045L17.8003 14.1253L17.6088 14.2461C17.5555 14.1652 16.2688 12.2606 13.7427 13.1785L13.5877 12.7534C15.0852 12.2147 16.2022 12.5795 16.8758 12.9828ZM16.247 15.7605C15.903 15.9981 15.494 16.1246 15.0755 16.1228C14.9824 16.1227 14.8893 16.1174 14.7968 16.1071C14.1523 16.0636 13.7924 15.5794 13.5295 15.2243C13.4489 15.1036 13.3546 14.9925 13.2484 14.8934L12.9758 14.6857L13.2739 14.5166C14.0856 14.0589 14.775 13.9128 15.3263 14.0927C15.7208 14.1793 16.0933 14.3461 16.4202 14.5828C16.747 14.8195 17.0214 15.121 17.226 15.4683C17.258 15.5136 17.2826 15.5637 17.2987 15.6168L16.8734 15.7702L16.8419 15.7098C16.7685 15.6441 16.6728 15.6087 16.5742 15.6108C16.4942 15.6083 16.3973 15.6651 16.247 15.7581V15.7605ZM19.3341 25.067H19.3014C18.8188 25.0265 18.3451 24.9141 17.896 24.7336L18.0668 24.3134C18.4671 24.4737 18.8887 24.575 19.3183 24.6141C19.7479 24.5748 20.1695 24.4735 20.5699 24.3134L20.7407 24.7336C20.2911 24.9134 19.8169 25.025 19.3341 25.0646V25.067ZM20.4669 23.7192C20.2246 23.6636 20.1034 23.6383 20.0307 23.6842C19.8144 23.8067 19.5888 23.9121 19.3559 23.9994L19.3462 24.0247L19.3183 24.0139L19.2893 24.0247L19.2808 23.9994C19.0477 23.9125 18.822 23.8071 18.6059 23.6842C18.532 23.6383 18.4109 23.6624 18.1686 23.7192C17.6946 23.8428 17.2033 23.8873 16.7147 23.8508L16.7462 23.3991C17.1885 23.4315 17.633 23.3907 18.0619 23.2784C18.3539 23.2107 18.6071 23.1576 18.8446 23.3025C18.9955 23.3886 19.1526 23.4633 19.3147 23.526C19.4762 23.4628 19.6328 23.3881 19.7836 23.3025C20.0259 23.1516 20.2743 23.2107 20.5674 23.2784C20.9959 23.3907 21.4401 23.4315 21.882 23.3991L21.9135 23.8508C21.4272 23.8857 20.9384 23.8404 20.4669 23.7168V23.7192ZM25.3882 14.9031C25.2813 15.0018 25.1865 15.1129 25.1059 15.234C24.843 15.589 24.4832 16.0793 23.8302 16.118C23.7332 16.1277 23.6424 16.1325 23.5564 16.1325C23.1394 16.1338 22.7321 16.0074 22.3896 15.7702C22.2382 15.6772 22.1473 15.6216 22.0613 15.6253C22.0113 15.6231 21.9614 15.6314 21.9148 15.6497C21.8683 15.668 21.8261 15.6959 21.7911 15.7315C21.7742 15.7617 21.7645 15.781 21.762 15.7859L21.3368 15.6313C21.3529 15.5782 21.3774 15.5281 21.4095 15.4827C21.6142 15.1355 21.8886 14.8342 22.2154 14.5975C22.5423 14.3608 22.9147 14.1939 23.3092 14.1072C23.8605 13.9297 24.5498 14.0734 25.3616 14.5311L25.6596 14.7002L25.3882 14.9031Z" fill="white"/>
<path d="M19.0712 6.62433H19.0421C19.0478 6.65669 19.0559 6.68858 19.0663 6.71974C18.8725 7.02166 18.2182 7.67865 16.0629 8.10013C13.3417 8.63151 12.0029 9.06628 11.5207 12.8355C11.4477 12.7505 11.3666 12.6729 11.2784 12.6036C10.8556 9.0844 11.9436 6.89365 14.7992 5.51205C17.3023 4.30436 18.6338 4.86594 19.0712 5.14975V6.62433Z" fill="white"/>
<path d="M27.3533 12.6083C27.2649 12.6773 27.1837 12.755 27.111 12.8402C26.6264 9.07101 25.2937 8.63624 22.5677 8.10486C20.4147 7.68338 19.7581 7.02639 19.5654 6.72447C19.5751 6.69317 19.5828 6.66131 19.5885 6.62906H19.5594V5.15568C19.9968 4.8755 21.3283 4.3103 23.8326 5.51799C26.687 6.89838 27.775 9.08913 27.3533 12.6083Z" fill="white"/>
<path d="M28.4716 12.5144C28.2846 12.3957 28.0608 12.3486 27.8416 12.3815C28.1893 8.84782 26.9742 6.53148 24.0361 5.11003C21.6905 3.9748 20.2488 4.30691 19.5631 4.63782L19.5558 2.64514C20.1385 2.53282 22.1267 2.24177 23.8241 3.06058C24.6843 3.47844 28.8981 5.86966 28.4716 12.5144Z" fill="white"/>
<path d="M33.1967 25.1431C33.5505 24.0344 33.9236 22.3135 33.439 20.991C33.3194 20.6489 33.1299 20.3353 32.8823 20.07C32.6347 19.8047 32.3346 19.5936 32.0009 19.45C28.3384 17.8185 28.6376 14.792 28.6522 14.664H28.6449C28.6776 14.5565 28.7103 14.4514 28.743 14.35C28.909 13.8258 29.0568 13.3536 28.8884 12.966C29.5536 5.71138 24.9472 3.10277 24.0155 2.65351C22.2527 1.80813 20.2682 2.04966 19.5473 2.18372V1.505L19.5509 0.027993C20.399 -0.042053 23.8774 -0.161614 26.4217 2.19217C28.6182 4.22713 29.5838 7.54948 29.2894 12.0771C29.2674 12.3331 29.2322 12.5879 29.184 12.8404C28.9417 14.2509 28.6461 16.0069 32.2699 17.6337C33.903 18.3655 34.8444 19.3244 35.071 20.4935C35.2564 21.4306 35.048 22.9753 33.1967 25.1431Z" fill="white"/>
<path d="M19.0857 2.64503L19.0784 4.63772C18.3927 4.30681 16.9509 3.9747 14.6054 5.10992C11.6673 6.53137 10.4521 8.85376 10.8011 12.3814C10.5815 12.3484 10.3573 12.3956 10.1699 12.5143C9.73732 5.87198 13.9511 3.47834 14.8174 3.06048C16.5148 2.24166 18.5029 2.53634 19.0857 2.64503Z" fill="white"/>
<path d="M19.0905 1.50379V2.18251C18.3636 2.04966 16.3851 1.80209 14.6223 2.6523C13.6906 3.10156 9.08666 5.71017 9.74817 12.9648C9.57855 13.3524 9.72636 13.8246 9.89356 14.3488C9.92506 14.4502 9.95777 14.5553 9.99048 14.6628H9.98321C9.99775 14.7908 10.297 17.8172 6.63447 19.4488C6.30077 19.5924 6.00063 19.8035 5.75307 20.0688C5.50551 20.3341 5.31593 20.6477 5.19635 20.9898C4.71172 22.3123 5.0861 24.0332 5.43866 25.1419C3.5874 22.9741 3.37901 21.4294 3.56438 20.4862C3.79094 19.3232 4.73353 18.3571 6.3655 17.6325C9.99048 16.0009 9.69244 14.2509 9.45013 12.8343C9.40224 12.5819 9.36746 12.3271 9.34593 12.0711C9.05031 7.54948 10.0159 4.22109 12.2137 2.19217C14.758 -0.161614 18.2303 -0.042053 19.0832 0.027993L19.0905 1.50379Z" fill="white"/>
</svg>
