<svg width="13" height="12" viewBox="0 0 13 12" fill="none" xmlns="http://www.w3.org/2000/svg">
<path d="M11.1877 1.70102C10.5721 1.20257 9.78978 0.957231 8.99978 1.01486C8.20978 1.07248 7.47136 1.42875 6.9346 2.01125L6.4839 2.47397L6.0332 2.01125C5.49644 1.42875 4.75802 1.07248 3.96802 1.01486C3.17802 0.957231 2.39572 1.20257 1.78011 1.70102C1.44441 1.99113 1.17119 2.34646 0.977077 2.74543C0.782959 3.14439 0.671989 3.57867 0.650912 4.02185C0.629835 4.46504 0.69909 4.90788 0.854468 5.32347C1.00985 5.73906 1.2481 6.11871 1.55476 6.43937L5.96485 10.9937C6.03154 11.0635 6.11169 11.119 6.20045 11.157C6.28921 11.1949 6.38474 11.2145 6.48127 11.2145C6.5778 11.2145 6.67334 11.1949 6.7621 11.157C6.85085 11.119 6.931 11.0635 6.9977 10.9937L11.4078 6.43937C11.7147 6.11887 11.9533 5.73926 12.1088 5.32363C12.2644 4.90801 12.3337 4.46508 12.3127 4.0218C12.2916 3.57852 12.1805 3.14417 11.9862 2.74519C11.7919 2.34621 11.5184 1.99094 11.1824 1.70102H11.1877Z" stroke="#44016B"/>
</svg>
