<svg xmlns="http://www.w3.org/2000/svg" viewBox="0 0 889.88 889.88"><defs><style>.cls-1{fill:none;stroke:#fff;stroke-miterlimit:10;}.cls-2,.cls-3{fill:#fff;}.cls-3{font-size:24px;font-family:Larken-Light;font-weight:300;}</style></defs><g id="Layer_2" data-name="Layer 2"><g id="Layer_1-2" data-name="Layer 1"><circle class="cls-1" cx="444.94" cy="444.94" r="444.44"/><circle class="cls-1" cx="444.94" cy="444.94" r="391.18"/><circle class="cls-1" cx="444.94" cy="444.94" r="329.8"/><circle class="cls-1" cx="444.94" cy="444.94" r="150.29"/><path class="cls-2" d="M384.86,384.15,169,168.33l-.7.7L384.15,384.86c.12-.12.23-.25.34-.37Z"/><path class="cls-2" d="M505,505.73,720.84,721.55l.71-.71L505.73,505l-.35.36Z"/><path class="cls-2" d="M546.54,67.69l-1-.26-79,294.82,1,.26Z"/><path class="cls-2" d="M343.34,822.18l1,.26,79-294.81-1-.26Z"/><path class="cls-2" d="M344.3,67.43l-1,.26,79,294.82,1-.26Z"/><path class="cls-2" d="M545.57,822.44l1-.26-79-294.81-1,.26Z"/><path class="cls-2" d="M67.43,545.57l.26,1,294.82-79c-.09-.32-.18-.64-.26-1Z"/><path class="cls-2" d="M822.44,344.3l-.26-1-294.81,79c.08.33.17.65.26,1Z"/><path class="cls-2" d="M67.69,343.34l-.26,1,294.82,79c.08-.32.17-.64.26-1Z"/><path class="cls-2" d="M527.37,467.54l294.81,79,.26-1-294.81-79C527.54,466.9,527.45,467.22,527.37,467.54Z"/><path class="cls-2" d="M505.73,384.86,721.55,169l-.71-.7L505,384.15l.36.34Z"/><path class="cls-2" d="M384.15,505,168.33,720.84l.7.71L384.86,505.73l-.37-.35Z"/><circle class="cls-1" cx="444.94" cy="444.94" r="85.48"/><g id="Layer_2-2" data-name="Layer 2"><g id="OBJECTS"><path class="cls-2" d="M444.91,248.4a3.42,3.42,0,0,1-3.43-3.43v0c0-57.49-14.58-69.13-20.83-71.59a12.35,12.35,0,0,0-13.38,3.21,9.9,9.9,0,0,0-2.13,11.06,9.42,9.42,0,0,0,8.32,5.69c3.05,0,4.18-1.85,4.21-3.45,0-.69-.22-3-3.54-3.13a3.4,3.4,0,0,1-3.33-3.47c0-.06,0-.12,0-.18a3.47,3.47,0,0,1,3.54-3.32,9.9,9.9,0,0,1,10.17,9.62c0,.16,0,.32,0,.48a10.54,10.54,0,0,1-10.85,10.21h-.22a16.25,16.25,0,0,1-14.6-9.73A16.83,16.83,0,0,1,402.1,172a19.17,19.17,0,0,1,21-5.06c11.53,4.26,25.25,21.43,25.25,78a3.44,3.44,0,0,1-3.41,3.46Z"/><path class="cls-2" d="M444.91,248.4a3.42,3.42,0,0,1-3.43-3.43v0c0-56.58,13.82-73.67,25.25-78a19.15,19.15,0,0,1,21,5.06A16.82,16.82,0,0,1,491,190.33a16.24,16.24,0,0,1-14.6,9.73,10.53,10.53,0,0,1-11.05-10,1.48,1.48,0,0,1,0-.21,9.9,9.9,0,0,1,9.7-10.1h.47a3.43,3.43,0,0,1,3.54,3.32h0a3.4,3.4,0,0,1-3.26,3.54h-.05c-3.32,0-3.54,2.44-3.54,3.13,0,1.6,1.16,3.45,4.2,3.45a9.46,9.46,0,0,0,8.3-5.69,9.9,9.9,0,0,0-2.13-11.06,12.35,12.35,0,0,0-13.39-3.21c-6.25,2.38-20.82,14.1-20.82,71.59A3.44,3.44,0,0,1,445,248.4Z"/></g></g><g id="Layer_2-3" data-name="Layer 2"><g id="OBJECTS-2" data-name="OBJECTS"><path class="cls-2" d="M281.36,571.45a3.75,3.75,0,0,1,.38,2.76,3.68,3.68,0,0,1-4.46,2.57L212,559.28a3.69,3.69,0,0,1-2.57-4.46,3.63,3.63,0,0,1,4.43-2.58h0l65.31,17.5A3.68,3.68,0,0,1,281.36,571.45Z"/><path class="cls-2" d="M232.06,541.1a3.63,3.63,0,0,1-1.29,5h0l-18.13,10.47,11,19a3.66,3.66,0,0,1-6.31,3.64L204.48,557a3.64,3.64,0,0,1,1.32-4.95l21.3-12.3a3.63,3.63,0,0,1,5,1.33Z"/><path class="cls-2" d="M268.17,550.37a3.62,3.62,0,0,1,.38,2.75l-8.85,33.1a3.64,3.64,0,1,1-7-1.88l8.87-33.12a3.69,3.69,0,0,1,4.46-2.57A3.62,3.62,0,0,1,268.17,550.37Z"/></g></g><g id="Layer_2-4" data-name="Layer 2"><g id="OBJECTS-3" data-name="OBJECTS"><path class="cls-2" d="M646.5,548.87a19.53,19.53,0,1,1,7.19,26.67h0A19.56,19.56,0,0,1,646.5,548.87ZM674,564.76a12.25,12.25,0,1,0-16.74,4.49h0A12.29,12.29,0,0,0,674,564.76Z"/><path class="cls-2" d="M607.19,571.15l.31-.53A16.24,16.24,0,0,1,619.43,564c11.23-.57,23.1,11.21,33.6,21.63,3.94,3.89,7.63,7.55,11,10.25a10.73,10.73,0,0,0,11.34,2,11.7,11.7,0,0,0,7.17-9.54c.62-5.58-2.76-11.25-9.53-16a3.64,3.64,0,0,1,4.16-6h0c12.14,8.63,13.07,18,12.54,22.84a18.9,18.9,0,0,1-11.63,15.47,18.09,18.09,0,0,1-18.67-3.05c-3.58-2.91-7.4-6.7-11.49-10.75-8.92-8.87-20.06-19.92-28-19.56a9,9,0,0,0-6.64,3.83,3.63,3.63,0,0,1-6-4.12Z"/></g></g><g id="Layer_2-5" data-name="Layer 2"><g id="OBJECTS-4" data-name="OBJECTS"><path class="cls-2" d="M673.51,427.83a17.55,17.55,0,1,1,17.55,17.55h-.15A17.55,17.55,0,0,1,673.51,427.83Zm27.55,0a10.15,10.15,0,1,0-10.29,10h.14A10.15,10.15,0,0,0,701.06,427.83Z"/><path class="cls-2" d="M696.3,417.3a3.65,3.65,0,0,1,6.05-2.75c23.39,20.47,7.51,69.17,6.84,71.24a3.65,3.65,0,0,1-6.9-2.4c.15-.35,15-46.14-4.8-63.37A3.6,3.6,0,0,1,696.3,417.3Z"/><path class="cls-2" d="M656.87,470.88a17.55,17.55,0,1,1,17.55,17.54A17.55,17.55,0,0,1,656.87,470.88Zm27.55,0A10.15,10.15,0,1,0,674.27,481h0A10.15,10.15,0,0,0,684.42,470.88Z"/><path class="cls-2" d="M650.18,448.77a127.88,127.88,0,0,1,5.85-36,3.63,3.63,0,0,1,6.9,2.28c-.15.47-15,46.27,4.74,63.49a3.64,3.64,0,0,1-4.8,5.47C653,475.44,650.18,461.81,650.18,448.77Z"/></g></g><g id="Layer_2-6" data-name="Layer 2"><g id="OBJECTS-5" data-name="OBJECTS"><path class="cls-2" d="M236.34,344.77a3.69,3.69,0,0,1-2.19,1.7l-16.45,4.39,4.4,16.42a3.64,3.64,0,0,1-7,1.88l-6.28-23.45,23.45-6.28a3.62,3.62,0,0,1,4.1,5.34Z"/><path class="cls-2" d="M251,319.44a3.66,3.66,0,0,1-2.2,1.71l-16.45,4.38L236.71,342a3.63,3.63,0,0,1-7,1.85l-6.28-23.45,23.43-6.25a3.63,3.63,0,0,1,4.13,5.31Z"/><path class="cls-2" d="M251,319.42a3.63,3.63,0,0,1-4.95,1.35,3.59,3.59,0,0,1-1.7-2.22L238,295.08l23.45-6.28a3.64,3.64,0,0,1,1.88,7l-16.42,4.4,4.4,16.42A3.67,3.67,0,0,1,251,319.42Z"/><path class="cls-2" d="M253.87,354.89a3.6,3.6,0,0,1-2.22,1.69L235.23,361l4.4,16.42a3.63,3.63,0,0,1-7,1.89l-6.28-23.45,23.45-6.28a3.6,3.6,0,0,1,4.42,2.52v0A3.54,3.54,0,0,1,253.87,354.89Z"/><path class="cls-2" d="M268.49,329.56a3.51,3.51,0,0,1-2.22,1.69l-16.42,4.4,4.38,16.44a3.63,3.63,0,0,1-7,1.88L241,330.52l23.44-6.26a3.6,3.6,0,0,1,4.42,2.52v0A3.51,3.51,0,0,1,268.49,329.56Z"/><path class="cls-2" d="M268.51,329.54a3.64,3.64,0,0,1-6.65-.83v0l-6.28-23.45L279,298.93a3.63,3.63,0,0,1,1.86,7l-16.42,4.4,4.4,16.42A3.63,3.63,0,0,1,268.51,329.54Z"/></g></g><g id="Layer_2-7" data-name="Layer 2"><g id="OBJECTS-6" data-name="OBJECTS"><path class="cls-2" d="M424.94,663.09a3.28,3.28,0,0,1,3.15,3.4,3.32,3.32,0,0,1-.53,1.65,21.16,21.16,0,1,0,35.24,0,3.26,3.26,0,0,1,5.42-3.61,27.67,27.67,0,1,1-46.08,0A3.23,3.23,0,0,1,424.94,663.09Z"/><path class="cls-2" d="M401.59,663.09h23.33a3.27,3.27,0,1,1,.58,6.52,2.81,2.81,0,0,1-.58,0H401.59a3.27,3.27,0,0,1,0-6.52Z"/><path class="cls-2" d="M465.55,663.09h23.38a3.27,3.27,0,0,1,0,6.52H465.55a3.27,3.27,0,0,1,0-6.52Z"/><path class="cls-2" d="M401.59,682.13h87.34a3.27,3.27,0,0,1,0,6.52H401.59a3.27,3.27,0,0,1,0-6.52Z"/></g></g><g id="Layer_2-8" data-name="Layer 2"><g id="OBJECTS-7" data-name="OBJECTS"><path class="cls-2" d="M364.85,268.09a3.64,3.64,0,0,1-4.23-.43,114.27,114.27,0,0,1-37-64.05,3.63,3.63,0,0,1,7.19-1,109.18,109.18,0,0,0,34.47,59.72,3.66,3.66,0,0,1,.3,5.13A3.85,3.85,0,0,1,364.85,268.09Z"/><path class="cls-2" d="M330.56,287.88a3.53,3.53,0,0,1-1.32.46,3.65,3.65,0,0,1-4.12-3.09h0a109.08,109.08,0,0,0-34.48-59.72,3.6,3.6,0,0,1-.33-5.08l.06-.07a3.66,3.66,0,0,1,5.13-.29,114.45,114.45,0,0,1,37,64A3.61,3.61,0,0,1,330.56,287.88Z"/><path class="cls-2" d="M352,234.27l-43.72,25.24a3.62,3.62,0,1,1-3.62-6.28L348.32,228a3.63,3.63,0,0,1,3.63,6.28Z"/></g></g><g id="Layer_2-9" data-name="Layer 2"><g id="OBJECTS-8" data-name="OBJECTS"><path class="cls-2" d="M667.62,321a105.38,105.38,0,0,1-13.07-34.8,3.66,3.66,0,0,1,7.21-1h0a109.26,109.26,0,0,0,34.48,59.72,3.63,3.63,0,1,1-4.83,5.43h0A119.1,119.1,0,0,1,667.62,321Z"/><path class="cls-2" d="M605,316.36a3.65,3.65,0,0,1,5.58-4.54,114.45,114.45,0,0,1,37,64.05,3.66,3.66,0,1,1-7.12,1.66,3.4,3.4,0,0,1-.09-.64,109.33,109.33,0,0,0-34.48-59.72A3.2,3.2,0,0,1,605,316.36Z"/><path class="cls-2" d="M614.61,325.18a3.66,3.66,0,0,1,1.33-4.95L659.65,295a3.65,3.65,0,0,1,3.64,6.3l-43.71,25.24A3.66,3.66,0,0,1,614.61,325.18Z"/><path class="cls-2" d="M637.91,365.52a3.65,3.65,0,0,1,1.32-4.95L683,335.33a3.66,3.66,0,0,1,3.64,6.31l-43.72,25.24A3.65,3.65,0,0,1,637.91,365.52Z"/></g></g><g id="Layer_2-10" data-name="Layer 2"><g id="OBJECTS-9" data-name="OBJECTS"><path class="cls-2" d="M231.59,431a3.5,3.5,0,0,1-3.48,3.5H197.48a16.43,16.43,0,0,0,0,32.85h30.63a3.51,3.51,0,0,1,0,7H197.48a23.42,23.42,0,0,1,0-46.83h30.63A3.51,3.51,0,0,1,231.59,431Z"/><path class="cls-2" d="M190.3,467.68a3.49,3.49,0,0,1-2.56,3.37c-.47,0-10.05,3-10.05,12.77a3.52,3.52,0,1,1-7,0h0a20.57,20.57,0,0,1,15.18-19.65,3.48,3.48,0,0,1,4.29,2.42v.05A3.1,3.1,0,0,1,190.3,467.68Z"/><path class="cls-2" d="M242.4,420.77A13.76,13.76,0,1,1,228.62,407h0A13.79,13.79,0,0,1,242.4,420.77Zm-20.52,0a6.77,6.77,0,1,0,6.76-6.77h0A6.77,6.77,0,0,0,221.88,420.77Z"/><path class="cls-2" d="M243.13,443.2a3.51,3.51,0,0,1-7,0c0-3.31-.73-8.84-5.62-8.84a3.51,3.51,0,0,1,0-7C238.19,427.37,243.13,433.57,243.13,443.2Z"/></g></g><g id="Layer_2-11" data-name="Layer 2"><g id="OBJECTS-10" data-name="OBJECTS"><path class="cls-2" d="M322.88,608.56a14,14,0,0,1,7.14,14,19.7,19.7,0,0,1-2.66,8.06l-22.08,38.24a6.84,6.84,0,0,0,11.38,7.6,6,6,0,0,0,.45-.77l23.06-39.94a3.66,3.66,0,0,1,6.31,3.64l-23.06,39.94A14.12,14.12,0,0,1,299,665.23L321.06,627a12.36,12.36,0,0,0,1.7-5.06,6.67,6.67,0,0,0-3.5-7.09,3.63,3.63,0,0,1,3.62-6.29Z"/><path class="cls-2" d="M345.15,634.45a3.63,3.63,0,0,1,1.33,4.95l-23.06,39.94a6.84,6.84,0,1,0,11.38,7.6c.16-.25.31-.51.45-.77l23.05-39.94a3.66,3.66,0,0,1,6.31,3.64l-23.06,39.94a14.13,14.13,0,0,1-24.44-14.11l23.06-39.94a3.62,3.62,0,0,1,4.95-1.33Z"/><path class="cls-2" d="M336.12,688.8a3.63,3.63,0,0,1,1.74,3.84,7.58,7.58,0,0,0,3.43,7.79,3.66,3.66,0,0,1-3.64,6.31,15,15,0,0,1-6.93-15.49,3.63,3.63,0,0,1,4.2-2.94l.09,0A3.41,3.41,0,0,1,336.12,688.8Z"/><path class="cls-2" d="M327.18,602.76a3.62,3.62,0,0,1,1.32,5l-7,12.21a3.67,3.67,0,0,1-5,1.3,3.61,3.61,0,0,1-1.32-1.34l-6.78-12.12a3.67,3.67,0,0,1,0-3.59,3.72,3.72,0,0,1,3.09-1.83l13.89-.19A3.94,3.94,0,0,1,327.18,602.76Zm-8.89,8.08.7-1.22-1.36,0Z"/></g></g><g id="Layer_2-12" data-name="Layer 2"><g id="OBJECTS-11" data-name="OBJECTS"><path class="cls-2" d="M521.66,640.1a14,14,0,0,1,15.71.83,19.81,19.81,0,0,1,5.65,6.33L565.1,685.5a6.84,6.84,0,0,0,12.27-6,6.06,6.06,0,0,0-.45-.78l-23.06-39.94a3.66,3.66,0,0,1,6.31-3.64L583.23,675a14.12,14.12,0,0,1-24.44,14.11L536.71,650.9a12.46,12.46,0,0,0-3.53-4,6.66,6.66,0,0,0-7.89-.5,3.63,3.63,0,1,1-3.63-6.28Z"/><path class="cls-2" d="M555.22,633.77a3.63,3.63,0,0,1,4.95,1.32L583.23,675a6.84,6.84,0,0,0,12.27-6,7.44,7.44,0,0,0-.44-.78L572,628.27a3.66,3.66,0,0,1,6.3-3.65l23.06,39.94a14.12,14.12,0,0,1-24.44,14.11l-23.06-39.94a3.63,3.63,0,0,1,1.33-5Z"/><path class="cls-2" d="M597.75,668.78a3.62,3.62,0,0,1,4.22.4,7.57,7.57,0,0,0,8.46.92,3.65,3.65,0,0,1,3.64,6.3,14.94,14.94,0,0,1-16.87-1.73,3.63,3.63,0,0,1-.45-5.11l.06-.07A3.43,3.43,0,0,1,597.75,668.78Z"/><path class="cls-2" d="M545.17,626.53a3.63,3.63,0,0,1,4.46,5.63c-15.25,16.34-11.39,35.55-4.94,41.69a5.22,5.22,0,0,0,8.33,0,3.63,3.63,0,1,1,5.19,5.08h0a12.37,12.37,0,0,1-17.44,1.29,14.15,14.15,0,0,1-1.11-1.08c-9.48-9-13.32-32.84,4.67-51.93A3.41,3.41,0,0,1,545.17,626.53Z"/></g></g><g id="Layer_2-13" data-name="Layer 2"><g id="OBJECTS-12" data-name="OBJECTS"><path class="cls-2" d="M610.52,231.55c-1.83-1.33-3.12-8.56-3.08-14.25a3.62,3.62,0,0,0-1.81-3.13,3.74,3.74,0,0,0-3.61-.06L580.53,226a25.06,25.06,0,0,0-8.31-4.79l-.59-24.66a3.56,3.56,0,0,0-1.83-3.08,3.63,3.63,0,0,0-3.62,0c-5,2.79-11.81,5.37-13.91,4.43a3.63,3.63,0,1,0-2.95,6.63c4.36,2,10.51.06,15.17-2.05l.28,17.05a28.7,28.7,0,1,0,20.82,12l14.91-8.28c.48,5,2,11.32,5.78,14.15a3.59,3.59,0,0,0,5-.73l.05-.05a3.66,3.66,0,0,0-.83-5.11Zm-29.8,27.16a21.4,21.4,0,1,1-7.83-29.24h0A21.4,21.4,0,0,1,580.72,258.71Z"/></g></g><path class="cls-2" d="M448.48,320.5a3.41,3.41,0,0,1-3.42-3.4h0A.11.11,0,0,0,445,317h0a.11.11,0,0,0-.12.11h0a3.41,3.41,0,0,1-3.42,3.4h0a.11.11,0,0,0-.11.11h0a.11.11,0,0,0,.11.11h0a3.41,3.41,0,0,1,3.42,3.4h0a.12.12,0,0,0,.12.12h0a.11.11,0,0,0,.11-.12h0a3.41,3.41,0,0,1,3.42-3.4h0a.11.11,0,0,0,.11-.11h0a.11.11,0,0,0-.11-.11Z"/><path class="cls-2" d="M510.11,339.12a3.42,3.42,0,0,1-1.26-4.66h0a.11.11,0,0,0,0-.15h0a.11.11,0,0,0-.15,0h0a3.4,3.4,0,0,1-4.66,1.23h0a.11.11,0,0,0-.15,0h0a.12.12,0,0,0,0,.16h0a3.4,3.4,0,0,1,1.27,4.65h0a.1.1,0,0,0,0,.15h0a.11.11,0,0,0,.15,0h0a3.41,3.41,0,0,1,4.66-1.23h0a.13.13,0,0,0,.16,0h0a.11.11,0,0,0-.05-.15Z"/><path class="cls-2" d="M554.47,385.78a3.42,3.42,0,0,1,1.24-4.67h0a.11.11,0,0,0,0-.15h0a.11.11,0,0,0-.15,0h0a3.41,3.41,0,0,1-4.66-1.26h0a.1.1,0,0,0-.15,0h0a.11.11,0,0,0,0,.15h0a3.41,3.41,0,0,1-1.24,4.66h0a.12.12,0,0,0,0,.16h0a.12.12,0,0,0,.16,0h0a3.4,3.4,0,0,1,4.65,1.26h0a.11.11,0,0,0,.15,0h0a.1.1,0,0,0,0-.15Z"/><path class="cls-2" d="M569.38,448.47a3.41,3.41,0,0,1,3.4-3.42h0a.11.11,0,0,0,.11-.11h0a.11.11,0,0,0-.11-.11h0a3.41,3.41,0,0,1-3.4-3.42h0a.11.11,0,0,0-.11-.11h0a.12.12,0,0,0-.12.12h0a3.41,3.41,0,0,1-3.4,3.42h0a.11.11,0,0,0-.11.11h0a.11.11,0,0,0,.11.11h0a3.41,3.41,0,0,1,3.4,3.42h0a.11.11,0,0,0,.11.11h0a.11.11,0,0,0,.12-.11Z"/><path class="cls-2" d="M504.08,554.44a3.41,3.41,0,0,1,4.66,1.24h0a.12.12,0,0,0,.16,0h0a.12.12,0,0,0,0-.16h0a3.4,3.4,0,0,1,1.26-4.65h0a.11.11,0,0,0,0-.15h0a.1.1,0,0,0-.15,0h0a3.41,3.41,0,0,1-4.66-1.24h0a.13.13,0,0,0-.16,0h0a.11.11,0,0,0,0,.15h0a3.41,3.41,0,0,1-1.26,4.66h0a.11.11,0,0,0,0,.15h0a.11.11,0,0,0,.15,0Z"/><path class="cls-2" d="M550.92,510.2a3.41,3.41,0,0,1,4.65-1.26h0a.12.12,0,0,0,.16,0h0a.11.11,0,0,0,0-.15h0a3.41,3.41,0,0,1-1.24-4.66h0a.12.12,0,0,0,0-.16h0a.11.11,0,0,0-.15,0h0a3.41,3.41,0,0,1-4.66,1.27h0a.1.1,0,0,0-.15,0h0a.11.11,0,0,0,0,.15h0a3.4,3.4,0,0,1,1.23,4.66h0a.12.12,0,0,0,0,.16h0a.12.12,0,0,0,.16-.05Z"/><path class="cls-2" d="M441.5,569.38a3.41,3.41,0,0,1,3.42,3.4h0a.11.11,0,0,0,.11.11h0a.11.11,0,0,0,.12-.11h0a3.41,3.41,0,0,1,3.42-3.4h0a.11.11,0,0,0,.11-.11h0a.11.11,0,0,0-.11-.12h0a3.41,3.41,0,0,1-3.42-3.4h0a.11.11,0,0,0-.12-.11h0a.11.11,0,0,0-.11.11h0a3.41,3.41,0,0,1-3.42,3.4h0a.11.11,0,0,0-.11.11h0a.11.11,0,0,0,.11.12Z"/><path class="cls-2" d="M379.64,551a3.41,3.41,0,0,1,1.26,4.66h0a.11.11,0,0,0,0,.15h0a.11.11,0,0,0,.15,0h0a3.41,3.41,0,0,1,4.66-1.24h0a.1.1,0,0,0,.15,0h0a.11.11,0,0,0,0-.15h0a3.41,3.41,0,0,1-1.26-4.65h0a.12.12,0,0,0,0-.16h0a.11.11,0,0,0-.15,0h0a3.42,3.42,0,0,1-4.67,1.24h0a.11.11,0,0,0-.15,0h0a.11.11,0,0,0,0,.15Z"/><path class="cls-2" d="M320.5,441.41a3.41,3.41,0,0,1-3.4,3.42h0a.11.11,0,0,0-.11.11h0a.11.11,0,0,0,.11.11h0a3.41,3.41,0,0,1,3.4,3.42h0a.11.11,0,0,0,.11.11h0a.11.11,0,0,0,.11-.11h0a3.41,3.41,0,0,1,3.4-3.42h0a.11.11,0,0,0,.12-.11h0a.11.11,0,0,0-.12-.11h0a3.41,3.41,0,0,1-3.4-3.42h0a.11.11,0,0,0-.11-.11h0a.11.11,0,0,0-.11.12Z"/><path class="cls-2" d="M335.4,504.1a3.42,3.42,0,0,1-1.24,4.67h0a.11.11,0,0,0,0,.15h0a.11.11,0,0,0,.15,0h0a3.42,3.42,0,0,1,4.66,1.26h0a.1.1,0,0,0,.15,0h0a.11.11,0,0,0,0-.15h0a3.41,3.41,0,0,1,1.24-4.66h0a.11.11,0,0,0,0-.15h0a.12.12,0,0,0-.16-.05h0a3.4,3.4,0,0,1-4.65-1.26h0a.11.11,0,0,0-.15,0h0a.1.1,0,0,0,0,.15Z"/><path class="cls-2" d="M338.93,379.66a3.42,3.42,0,0,1-4.66,1.26h0a.11.11,0,0,0-.15,0h0a.11.11,0,0,0,0,.15h0a3.41,3.41,0,0,1,1.24,4.66h0a.11.11,0,0,0,0,.15h0a.11.11,0,0,0,.15,0h0a3.41,3.41,0,0,1,4.66-1.27h0a.1.1,0,0,0,.15,0h0a.11.11,0,0,0,0-.15h0a3.41,3.41,0,0,1-1.24-4.66h0a.12.12,0,0,0,0-.16h0a.11.11,0,0,0-.15.05Z"/><path class="cls-2" d="M385.77,335.4a3.41,3.41,0,0,1-4.66-1.24h0a.11.11,0,0,0-.15,0h0a.1.1,0,0,0,0,.15h0a3.41,3.41,0,0,1-1.27,4.66h0a.11.11,0,0,0,0,.15h0a.12.12,0,0,0,.16,0h0a3.41,3.41,0,0,1,4.66,1.24h0a.11.11,0,0,0,.15,0h0a.1.1,0,0,0,0-.15h0a3.42,3.42,0,0,1,1.26-4.66h0a.11.11,0,0,0,0-.15h0a.11.11,0,0,0-.16,0Z"/><path class="cls-2" d="M456.84,26.76a11.47,11.47,0,0,1-11.5-11.43h0A.38.38,0,0,0,445,15h0a.38.38,0,0,0-.37.38h0a11.47,11.47,0,0,1-11.5,11.43h0a.36.36,0,0,0-.37.37h0a.37.37,0,0,0,.37.37h0a11.47,11.47,0,0,1,11.5,11.43h0a.38.38,0,0,0,.37.38h0a.38.38,0,0,0,.37-.38h0a11.47,11.47,0,0,1,11.5-11.43h0a.36.36,0,0,0,.37-.37h0a.38.38,0,0,0-.37-.37Z"/><path class="cls-2" d="M664,89.32a11.48,11.48,0,0,1-4.24-15.65h0a.36.36,0,0,0-.13-.51h0a.38.38,0,0,0-.51.14h0a11.47,11.47,0,0,1-15.67,4.15h0a.37.37,0,0,0-.51.14h0a.37.37,0,0,0,.14.51h0a11.46,11.46,0,0,1,4.24,15.65h0a.37.37,0,0,0,.14.51h0a.36.36,0,0,0,.51-.13h0A11.45,11.45,0,0,1,663.59,90h0a.37.37,0,0,0,.51-.14h0a.37.37,0,0,0-.14-.51Z"/><path class="cls-2" d="M813,246.12a11.46,11.46,0,0,1,4.15-15.67h0a.37.37,0,0,0,.14-.51h0a.37.37,0,0,0-.51-.14h0a11.45,11.45,0,0,1-15.64-4.24h0a.37.37,0,0,0-.5-.14h0a.38.38,0,0,0-.14.52h0a11.47,11.47,0,0,1-4.15,15.67h0a.37.37,0,0,0-.14.51h0a.38.38,0,0,0,.51.14h0a11.46,11.46,0,0,1,15.65,4.24h0a.38.38,0,0,0,.51.14h0a.39.39,0,0,0,.14-.52Z"/><path class="cls-2" d="M863.12,456.81a11.47,11.47,0,0,1,11.43-11.5h0a.36.36,0,0,0,.37-.37h0a.37.37,0,0,0-.37-.38h0a11.46,11.46,0,0,1-11.43-11.49h0a.38.38,0,0,0-.37-.37h0a.38.38,0,0,0-.38.38h0a11.45,11.45,0,0,1-11.43,11.49h0a.38.38,0,0,0-.37.38h0a.37.37,0,0,0,.37.37h0a11.46,11.46,0,0,1,11.43,11.5h0a.38.38,0,0,0,.37.38h0a.38.38,0,0,0,.38-.38Z"/><path class="cls-2" d="M643.69,812.93a11.45,11.45,0,0,1,15.67,4.15h0a.37.37,0,0,0,.51.14h0a.37.37,0,0,0,.14-.51h0a11.46,11.46,0,0,1,4.24-15.64h0a.38.38,0,0,0,.13-.51h0a.37.37,0,0,0-.51-.14h0a11.46,11.46,0,0,1-15.67-4.15h0a.38.38,0,0,0-.51-.14h0a.37.37,0,0,0-.13.51h0a11.48,11.48,0,0,1-4.24,15.65h0a.37.37,0,0,0-.13.51h0a.37.37,0,0,0,.51.14Z"/><path class="cls-2" d="M801.09,664.27A11.45,11.45,0,0,1,816.73,660h0a.37.37,0,0,0,.51-.14h0a.37.37,0,0,0-.14-.51h0A11.45,11.45,0,0,1,813,643.71h0a.37.37,0,0,0-.14-.5h0a.37.37,0,0,0-.51.13h0a11.45,11.45,0,0,1-15.64,4.24h0a.39.39,0,0,0-.52.14h0a.39.39,0,0,0,.14.52h0a11.46,11.46,0,0,1,4.15,15.67h0a.37.37,0,0,0,.13.51h0a.39.39,0,0,0,.52-.14Z"/><path class="cls-2" d="M433.39,863.12a11.46,11.46,0,0,1,11.49,11.43h0a.37.37,0,0,0,.38.37h0a.37.37,0,0,0,.38-.37h0a11.46,11.46,0,0,1,11.49-11.43h0a.38.38,0,0,0,.37-.37h0a.38.38,0,0,0-.38-.38h0a11.45,11.45,0,0,1-11.49-11.43h0a.38.38,0,0,0-.38-.37h0a.38.38,0,0,0-.38.37h0a11.45,11.45,0,0,1-11.49,11.43h0a.38.38,0,0,0-.37.37h0a.38.38,0,0,0,.38.38Z"/><path class="cls-2" d="M225.5,801.27a11.46,11.46,0,0,1,4.24,15.65h0a.38.38,0,0,0,.14.51h0a.39.39,0,0,0,.52-.14h0a11.46,11.46,0,0,1,15.67-4.15h0a.37.37,0,0,0,.51-.13h0a.39.39,0,0,0-.14-.52h0a11.45,11.45,0,0,1-4.24-15.64h0a.37.37,0,0,0-.14-.51h0a.37.37,0,0,0-.51.14h0a11.45,11.45,0,0,1-15.67,4.15h0a.37.37,0,0,0-.5.14h0a.36.36,0,0,0,.13.51Z"/><path class="cls-2" d="M26.76,433.07a11.46,11.46,0,0,1-11.43,11.49h0a.38.38,0,0,0-.38.38h0a.37.37,0,0,0,.38.37h0a11.47,11.47,0,0,1,11.43,11.5h0a.37.37,0,0,0,.37.38h0a.37.37,0,0,0,.37-.38h0a11.47,11.47,0,0,1,11.43-11.5h0a.37.37,0,0,0,.38-.37h0a.38.38,0,0,0-.38-.38h0A11.46,11.46,0,0,1,27.5,433.07h0a.37.37,0,0,0-.37-.37h0a.38.38,0,0,0-.37.38Z"/><path class="cls-2" d="M76.81,643.77a11.45,11.45,0,0,1-4.15,15.67h0a.37.37,0,0,0-.13.51h0a.37.37,0,0,0,.51.14h0a11.46,11.46,0,0,1,15.65,4.24h0a.37.37,0,0,0,.51.14h0a.36.36,0,0,0,.13-.51h0a11.48,11.48,0,0,1,4.15-15.68h0a.37.37,0,0,0,.14-.51h0a.37.37,0,0,0-.51-.14h0a11.46,11.46,0,0,1-15.65-4.24h0a.37.37,0,0,0-.51-.14h0a.39.39,0,0,0-.14.52Z"/><path class="cls-2" d="M88.69,225.55a11.45,11.45,0,0,1-15.64,4.24h0a.37.37,0,0,0-.51.14h0a.37.37,0,0,0,.14.51h0a11.46,11.46,0,0,1,4.15,15.67h0a.38.38,0,0,0,.14.51h0a.37.37,0,0,0,.51-.14h0a11.46,11.46,0,0,1,15.65-4.24h0a.38.38,0,0,0,.51-.14h0a.37.37,0,0,0-.14-.51h0a11.47,11.47,0,0,1-4.15-15.67h0a.37.37,0,0,0-.13-.51h0a.39.39,0,0,0-.52.14Z"/><path class="cls-2" d="M246.11,76.82a11.47,11.47,0,0,1-15.67-4.15h0a.37.37,0,0,0-.51-.14h0a.37.37,0,0,0-.14.51h0a11.46,11.46,0,0,1-4.24,15.65h0a.37.37,0,0,0-.14.51h0a.37.37,0,0,0,.51.14h0a11.45,11.45,0,0,1,15.67,4.15h0a.38.38,0,0,0,.51.13h0a.36.36,0,0,0,.13-.51h0a11.48,11.48,0,0,1,4.24-15.65h0a.36.36,0,0,0,.13-.51h0a.36.36,0,0,0-.51-.13Z"/><path class="cls-2" d="M444.44,464a21.72,21.72,0,0,1-21.78-21.65h0a.71.71,0,0,0-.71-.71h0a.71.71,0,0,0-.71.71h0A21.72,21.72,0,0,1,399.46,464h0a.7.7,0,0,0-.71.7h0a.71.71,0,0,0,.71.71h0a21.72,21.72,0,0,1,21.78,21.65h0a.7.7,0,0,0,.71.71h0a.7.7,0,0,0,.71-.71h0a21.72,21.72,0,0,1,21.78-21.65h0a.7.7,0,0,0,.71-.7h0a.71.71,0,0,0-.71-.71Z"/><path class="cls-2" d="M450.54,478.51a8.45,8.45,0,0,1-8.47-8.43h0a.28.28,0,0,0-.28-.27h0a.27.27,0,0,0-.28.27h0a8.45,8.45,0,0,1-8.47,8.43h0a.27.27,0,0,0-.27.27h0a.27.27,0,0,0,.28.28h0a8.45,8.45,0,0,1,8.47,8.43h0a.27.27,0,0,0,.28.27h0a.28.28,0,0,0,.28-.27h0a8.45,8.45,0,0,1,8.47-8.43h0a.28.28,0,0,0,.28-.27h0a.28.28,0,0,0-.28-.28Z"/><path class="cls-2" d="M460.07,488.47h29l-34.42-87.06H432.84v.36a26.39,26.39,0,0,1,2.15,9.59,14.71,14.71,0,0,1-.72,4.68l-8,22.29c-.05,1.21-.08,2.32-.08,3.3a18.78,18.78,0,0,0,1.89,8.24l12.11-34.07L459.7,468a22.45,22.45,0,0,1,1.56,6.9q.12,3.06.12,4.26a31,31,0,0,1-.3,4.61C460.88,485.06,460.07,488.47,460.07,488.47Z"/><text class="cls-3" transform="translate(415.68 95.73) rotate(-3.66)">B</text><text class="cls-3" transform="translate(430.29 94.82) rotate(-1.47)">é</text><text class="cls-3" transform="translate(442.01 94.56) rotate(-0.13)">l</text><text class="cls-3" transform="translate(446.98 94.54) rotate(0.7)">i</text><text class="cls-3" transform="translate(452.21 94.57) rotate(2.09)">e</text><text class="cls-3" transform="matrix(1, 0.07, -0.07, 1, 463.99, 95.02)">r</text><text class="cls-3" transform="translate(591.62 126.44) rotate(25.87)">T</text><text class="cls-3" transform="matrix(0.89, 0.46, -0.46, 0.89, 602.6, 131.74)">a</text><text class="cls-3" transform="translate(612.96 137.15) rotate(29.56)">u</text><text class="cls-3" transform="translate(623.71 143.28) rotate(31.27)">r</text><text class="cls-3" transform="matrix(0.84, 0.54, -0.54, 0.84, 630.74, 147.51)">e</text><text class="cls-3" transform="matrix(0.82, 0.57, -0.57, 0.82, 640.65, 153.9)">a</text><text class="cls-3" transform="matrix(0.8, 0.6, -0.6, 0.8, 650.25, 160.56)">u</text><text class="cls-3" transform="translate(727.33 236.64) rotate(54.87)">G</text><text class="cls-3" transform="matrix(0.54, 0.84, -0.84, 0.54, 736.7, 250.03)">é</text><text class="cls-3" transform="translate(743.14 259.85) rotate(59.63)">m</text><text class="cls-3" transform="matrix(0.47, 0.88, -0.88, 0.47, 752.52, 275.99)">e</text><text class="cls-3" transform="translate(758.05 286.44) rotate(64.04)">a</text><text class="cls-3" transform="translate(763.17 296.93) rotate(65.97)">u</text><text class="cls-3" transform="translate(768.1 307.95) rotate(67.96)">x</text><text class="cls-3" transform="matrix(0.08, 1, -1, 0.08, 794.14, 408.46)">C</text><text class="cls-3" transform="translate(795.35 423.36) rotate(87.44)">a</text><text class="cls-3" transform="translate(795.89 435.38) rotate(89.43)">n</text><text class="cls-3" transform="matrix(-0.02, 1, -1, -0.02, 796.01, 447.88)">c</text><text class="cls-3" transform="matrix(-0.06, 1, -1, -0.06, 795.75, 459.13)">e</text><text class="cls-3" transform="translate(795.06 470.93) rotate(94.9)">r</text><text class="cls-3" transform="translate(757.29 605.39) rotate(118.17)">L</text><text class="cls-3" transform="translate(751.51 616.11) rotate(119.59)">i</text><text class="cls-3" transform="matrix(-0.52, 0.86, -0.86, -0.52, 748.99, 620.64)">o</text><text class="cls-3" transform="matrix(-0.55, 0.84, -0.84, -0.55, 742.51, 631.41)">n</text><text class="cls-3" transform="translate(645.24 733.37) rotate(146.55)">V</text><text class="cls-3" transform="matrix(-0.85, 0.53, -0.53, -0.85, 632.41, 741.76)">i</text><text class="cls-3" transform="matrix(-0.86, 0.51, -0.51, -0.86, 627.98, 744.55)">e</text><text class="cls-3" transform="translate(617.78 750.52) rotate(151.23)">r</text><text class="cls-3" transform="translate(610.54 754.53) rotate(152.83)">g</text><text class="cls-3" transform="translate(600.33 759.78) rotate(154.7)">e</text><text class="cls-3" transform="translate(485.7 793.58) rotate(174.6)">B</text><text class="cls-3" transform="matrix(-1, 0.06, -0.06, -1, 471.49, 794.9)">a</text><text class="cls-3" transform="matrix(-1, 0.03, -0.03, -1, 459.44, 795.55)">l</text><text class="cls-3" transform="matrix(-1, 0.01, -0.01, -1, 454.88, 795.74)">a</text><text class="cls-3" transform="translate(442.85 795.87) rotate(-178.57)">n</text><text class="cls-3" transform="translate(430.35 795.55) rotate(-176.63)">c</text><text class="cls-3" transform="matrix(-1, -0.09, 0.09, -1, 419.12, 794.9)">e</text><text class="cls-3" transform="matrix(-0.91, -0.41, 0.41, -0.91, 308.36, 768.04)">S</text><text class="cls-3" transform="translate(295.78 762.38) rotate(-153.81)">c</text><text class="cls-3" transform="translate(285.66 757.42) rotate(-151.88)">o</text><text class="cls-3" transform="translate(274.6 751.48) rotate(-150.17)">r</text><text class="cls-3" transform="translate(267.1 747.21) rotate(-148.47)">p</text><text class="cls-3" transform="translate(256.64 740.75) rotate(-147.05)">i</text><text class="cls-3" transform="translate(252.22 737.94) rotate(-145.59)">o</text><text class="cls-3" transform="translate(241.87 730.85) rotate(-143.56)">n</text><text class="cls-3" transform="translate(172.59 665.65) rotate(-127.8)">S</text><text class="cls-3" transform="matrix(-0.58, -0.81, 0.81, -0.58, 164.27, 654.91)">a</text><text class="cls-3" transform="matrix(-0.56, -0.83, 0.83, -0.56, 157.23, 645.13)">g</text><text class="cls-3" transform="matrix(-0.54, -0.84, 0.84, -0.54, 150.71, 635.31)">i</text><text class="cls-3" transform="translate(147.87 630.87) rotate(-121.3)">t</text><text class="cls-3" transform="translate(143.53 623.74) rotate(-119.95)">t</text><text class="cls-3" transform="matrix(-0.47, -0.88, 0.88, -0.47, 139.34, 616.53)">a</text><text class="cls-3" transform="translate(133.63 605.83) rotate(-116.87)">i</text><text class="cls-3" transform="translate(131.25 601.17) rotate(-115.74)">r</text><text class="cls-3" transform="matrix(-0.41, -0.91, 0.91, -0.41, 127.66, 593.8)">e</text><text class="cls-3" transform="matrix(-0.14, -0.99, 0.99, -0.14, 99.07, 501.06)">C</text><text class="cls-3" transform="matrix(-0.1, -1, 1, -0.1, 97.05, 486.27)">a</text><text class="cls-3" transform="translate(95.85 474.27) rotate(-93.72)">p</text><text class="cls-3" transform="translate(95.08 462.15) rotate(-92.04)">r</text><text class="cls-3" transform="matrix(-0.02, -1, 1, -0.02, 94.79, 453.47)">i</text><text class="cls-3" transform="matrix(0.01, -1, 1, 0.01, 94.67, 448.24)">c</text><text class="cls-3" transform="translate(94.74 437.01) rotate(-87.63)">o</text><text class="cls-3" transform="translate(95.28 424.47) rotate(-85.92)">r</text><text class="cls-3" transform="translate(95.87 415.84) rotate(-84.2)">n</text><text class="cls-3" transform="matrix(0.14, -0.99, 0.99, 0.14, 97.14, 403.38)">e</text><text class="cls-3" transform="translate(123.17 306.56) rotate(-65.41)">V</text><text class="cls-3" transform="translate(129 293.82) rotate(-63.46)">e</text><text class="cls-3" transform="translate(134.3 283.25) rotate(-61.8)">r</text><text class="cls-3" transform="translate(138.2 275.95) rotate(-60.31)">s</text><text class="cls-3" transform="matrix(0.52, -0.85, 0.85, 0.52, 143.3, 266.98)">e</text><text class="cls-3" transform="translate(149.47 256.89) rotate(-56.57)">a</text><text class="cls-3" transform="matrix(0.58, -0.82, 0.82, 0.58, 155.89, 247.14)">u</text><text class="cls-3" transform="translate(231.12 167.5) rotate(-36.5)">P</text><text class="cls-3" transform="matrix(0.82, -0.57, 0.57, 0.82, 241.52, 159.8)">o</text><text class="cls-3" transform="translate(252.04 152.63) rotate(-33.03)">i</text><text class="cls-3" transform="matrix(0.85, -0.53, 0.53, 0.85, 256.33, 149.8)">s</text><text class="cls-3" transform="translate(265.14 144.34) rotate(-30.09)">s</text><text class="cls-3" transform="translate(274.04 139.16) rotate(-28.23)">o</text><text class="cls-3" transform="translate(285.12 133.21) rotate(-26.2)">n</text><text class="cls-3" transform="matrix(0.91, -0.41, 0.41, 0.91, 296.26, 127.74)">s</text></g></g></svg>