<svg width="20" height="27" viewBox="0 0 20 27" fill="none" xmlns="http://www.w3.org/2000/svg">
<path d="M10.7132 26.915H19.5697L9.06385 -6.10352e-05H2.40271V0.112077C2.84803 1.22459 3.0707 2.21292 3.0707 3.07708C3.07504 3.56805 3.0009 4.0565 2.85116 4.52347L0.387477 11.4152C0.37059 11.7953 0.361208 12.1318 0.361208 12.434C0.360474 13.3167 0.557431 14.1882 0.937256 14.9827L4.63559 4.44935L10.6025 20.5782C10.8709 21.2592 11.0311 21.979 11.0772 22.7107C11.101 23.3443 11.1135 23.7827 11.1147 24.026C11.1195 24.5041 11.0888 24.9818 11.0228 25.4553C10.9627 25.862 10.7132 26.915 10.7132 26.915Z" fill="white"/>
</svg>
