<svg width="26" height="22" viewBox="0 0 26 22" fill="none" xmlns="http://www.w3.org/2000/svg">
<path d="M3.67316 20.7101C3.48651 20.8952 3.23363 21 2.96901 21H2.94641C2.39413 21 1.94641 20.5523 1.94641 20C1.94641 19.96 1.94723 19.9216 1.94781 19.8942L1.94788 19.8909C1.94854 19.8599 1.9489 19.8411 1.9489 19.8241V19.8006V19.7771V19.7536V19.7302V19.7067V19.6832V19.6597V19.6362V19.6127V19.5892V19.5657V19.5422V19.5187V19.4953V19.4718V19.4483V19.4248V19.4013V19.3778V19.3543V19.3308V19.3073V19.2839V19.2604V19.2369V19.2134V19.1899V19.1664V19.1429V19.1194V19.0959V19.0725V19.049V19.0255V19.002V18.9785V18.955V18.9315V18.908V18.8845V18.8611V18.8376V18.8141V18.7906V18.7671V18.7436V18.7201V18.6966V18.6731V18.6497V18.6262V18.6027V18.5792V18.5557V18.5322V18.5087V18.4852V18.4617V18.4382V18.4148V18.3913V18.3678V18.3443V18.3208V18.2973V18.2738V18.2503V18.2268V18.2034V18.1799V18.1564V18.1329V18.1094V18.0859V18.0624V18.0389V18.0154V17.992V17.9685V17.945V17.9215V17.898V17.8745V17.851V17.8275V17.804V17.7805V17.7571V17.7336V17.7101V17.6866V17.6631V17.6396V17.6161V17.5926V17.5691V17.5457V17.5222V17.4987V17.4752V17.4517V17.4282V17.4047V17.3812V17.3577V17.3342V17.3108V17.2873V17.2638V17.2403V17.2168V17.1933V17.1698V17.1463V17.1228V17.0994V17.0759V17.0524V17.0289V17.0054V16.9819V16.9584V16.9349V16.9114V16.888V16.8645V16.841V16.8175V16.794V16.7705V16.747V16.7235V16.7V16.6765V16.6531V16.6296V16.6061V16.5826V16.5591V16.5356V16.5121V16.4886V16.4651V16.4417V16.4182V16.3947V16.3712V16.3477V16.3242V16.3007V16.2772V16.2537V16.2302V16.2068V16.1833V16.1598V16.1363V16.1128V16.0893V16.0658V16.0423V16.0188V15.9953V15.9719V15.9484V15.9249V15.9014V15.8779V15.8544V15.8309V15.8074V15.7839V15.7605V15.737V15.7135V15.69V15.6665V15.643V15.6195V15.596V15.5725V15.549V15.5256V15.5021V15.4786V15.4551V15.4316V15.4081V15.3846V15.3611V15.3376V15.3141V15.2907V15.2672V15.2437V15.2202V15.1967V15.1732V15.1497V15.1262V15.1027V15.0793V15.0558V15.0323V15.0088V14.9853V14.9618V14.9383V14.9148V14.8913V14.8678V14.8444V14.8209V14.7974V14.7739V14.7504V14.7269V14.7034V14.6799V14.6564V14.6329V14.6095V14.586V14.5625V14.539V14.5155V14.492V14.4685V14.445V14.4215V14.3981V14.3746V14.3511V14.3276V14.3041V14.2806V14.2571V14.2336V14.2101V14.1866V14.1632V14.1397V14.1162V14.0927V14.0692V14.0457V14.0222V13.9987V13.9752V13.9517V13.9283V13.9048V13.8813V13.8578V13.8343V13.8108V13.7873V13.7638V13.7403V13.7168V13.6934V13.6699V13.6464V13.6229V13.5994V13.5759V13.5524V13.5289V13.5054V13.4819V13.4585V13.435V13.4115V13.388V13.3645V13.341V13.3175V13.294V13.2705V13.247V13.2236V13.2001V13.1766V13.1531V13.1296V13.1061V13.0826V13.0591V13.0356V13.0121V12.9887V12.9652V12.9417V12.9182V12.8947V12.8712V12.8477V12.8242V12.8007V12.7772V12.7538V12.7303V12.7068V12.6833V12.6598V12.6363V12.6128V12.5893V12.5658V12.5423V12.5189V12.4954V12.4719V12.4484V12.4249V12.4014V12.3779V12.3544V12.3309V12.3074V12.284V12.2605V12.237V12.2135V12.19V12.1665V12.143V12.1195V12.096V12.0725V12.0491V12.0256V12.0021V11.9786V11.9551V11.9316V11.9081V11.8846V11.8611V11.8376V11.8142V11.7907V11.7672V11.7437V11.7202V11.6967V11.6732V11.6497V11.6262V11.6027V11.5792V11.5558V11.5323V11.5088V11.4853V11.4618V11.4383V11.4148V11.3913V11.3678V11.3443V11.3209V11.2974V11.2739V11.2504V11.2269V11.2034V11.1799V11.1564V11.1329V11.1094V11.086V11.0625V11.039V11.0155V10.992V10.9685V10.945V10.9215V10.898V10.8745V10.8511V10.8276V10.8041V10.7806V10.7571V10.7336V10.7101V10.6866V10.6631V10.6396V10.6161V10.5927V10.5692V10.5457V10.5222V10.4987V10.4752V10.4517V10.4282V10.4047V10.3812V10.3578V10.3343V10.3108V10.2873V10.2638V10.2403V10.2168V10.1933V10.1698V10.1463V10.1228V10.0994V10.0759V10.0524V10.0289V10.0054V9.98191V9.95842V9.93493V9.91144V9.88795V9.86445V9.84096V9.81747V9.79398V9.77049V9.747V9.72351V9.70002V9.67653V9.65304V9.62955V9.60606V9.58257V9.55908V9.53559V9.5121V9.48861V9.46512V9.44163V9.41814V9.39464V9.37115V9.34766V9.32417V9.30068V9.27719V9.2537V9.23021V9.20672V9.18323V9.15974V9.13625V9.11276V9.08927V9.06578V9.04229V9.0188V8.99531V8.97181V8.94832V8.92483V8.90134V8.87785V8.85436V8.83087V8.80738V8.78389V8.7604V8.73691V8.71342V8.68993V8.66644V8.64295V8.61946V8.59596V8.57247V8.54898V8.52549V8.502V8.47851V8.45502V8.43153V8.40804V8.38455V8.36106V8.33757V8.31408V8.29059V8.2671V8.24361V8.22011V8.19662V8.17313V8.14964V8.12615V8.10266V8.07917V8.05568V8.03219V8.0087V7.98521V7.96172V7.93823V7.91473V7.89124V7.86775V7.84426V7.82077V7.79728C1.9489 7.33648 1.97569 6.82212 2.10499 6.29572L3.67316 20.7101ZM3.67316 20.7101C5.48547 19.4976 7.45302 18.6423 9.5934 18.1803L9.59369 18.1803C10.1952 18.0502 10.8147 17.9546 11.4522 17.87C11.8661 17.8165 12.2832 17.788 12.7008 17.7848L12.7041 17.7848C13.6782 17.7743 14.6473 17.771 15.6209 17.7677C16.2069 17.7658 16.7946 17.7638 17.3859 17.7602C18.6273 17.7586 19.8448 17.4151 20.8976 16.7669C22.5347 15.7675 23.608 14.3158 24.0387 12.4569C24.1309 12.0596 24.1802 11.6539 24.1859 11.2464L24.1859 11.2429C24.1988 10.0053 24.1998 8.76766 24.1891 7.53005C24.1798 6.46127 23.8886 5.45963 23.3717 4.54892L23.3716 4.54882C22.3794 2.80129 20.8627 1.65994 18.8794 1.1776C18.4124 1.06229 17.9329 1.0032 17.4515 1.00154L17.448 1.00154C16.6824 1.0016 15.9162 1.00118 15.1497 1.00077C12.9438 0.999588 10.7349 0.998402 8.52695 1.00837L8.52672 1.00837C7.66808 1.01243 6.8573 1.22333 6.12153 1.54869L6.12122 1.54883C4.01279 2.48201 2.64801 4.08397 2.10503 6.29556L3.67316 20.7101ZM11.312 11.8686C11.4059 11.8692 11.4996 11.8588 11.5909 11.8374C12.014 11.7336 12.2981 11.3332 12.2412 10.93C12.1802 10.4977 11.8201 10.1873 11.3748 10.1864C10.934 10.1852 10.4932 10.1855 10.0524 10.1857C9.93201 10.1858 9.8116 10.1859 9.69119 10.1859C9.50164 10.1859 9.31206 10.1856 9.12248 10.1853L11.312 11.8686ZM8.03085 10.8652C8.03085 10.8652 8.0312 10.8653 8.03188 10.8655L8.03085 10.8652Z" stroke="#D9D9D9" stroke-width="2" stroke-linejoin="round"/>
</svg>
