<svg width="83" height="79" viewBox="0 0 83 79" fill="none" xmlns="http://www.w3.org/2000/svg">
<path opacity="0.15" d="M75.3908 7.81654C70.993 3.33475 65.1768 0.611128 58.9916 0.137101C52.8064 -0.336926 46.6595 1.46985 41.66 5.23145C36.6705 1.43791 30.5174 -0.393461 24.321 0.0707538C18.1246 0.534968 12.2969 3.26389 7.89888 7.76071C-2.42828 18.3389 -0.785442 38.3393 7.58214 49.1512C16.9677 59.9398 27.664 69.4511 39.4097 77.4527C40.0895 77.915 40.8875 78.1611 41.7034 78.16C42.5192 78.1589 43.3166 77.9107 43.9952 77.4465C55.7117 69.4211 66.3967 59.9174 75.7985 49.1594C84.1741 38.4241 85.7807 18.463 75.3908 7.81654Z" fill="white"/>
<path d="M47.0965 29.1072C46.3146 28.3426 45.2852 27.8826 44.194 27.8102C43.1027 27.7378 42.0216 28.0579 41.1455 28.7125C40.2603 28.0672 39.1728 27.7613 38.0809 27.8504C36.9891 27.9395 35.9655 28.4177 35.1966 29.198C33.3911 31.0335 33.7098 34.4724 35.2008 36.3203C36.8713 38.1627 38.771 39.7834 40.8536 41.1427C40.9741 41.2213 41.1152 41.2624 41.259 41.261C41.4029 41.2596 41.5431 41.2157 41.6621 41.1348C43.7162 39.7365 45.5864 38.0853 47.2284 36.2203C48.6896 34.3606 48.9439 30.9236 47.0965 29.1072Z" fill="white"/>
<path d="M44.145 22.3936C43.379 22.4023 42.6408 22.1046 42.093 21.566C41.5451 21.0275 41.2324 20.2921 41.2237 19.5218C41.2235 19.4965 41.2134 19.4724 41.1955 19.4547C41.1776 19.4371 41.1535 19.4272 41.1284 19.4274C41.116 19.4276 41.1038 19.4301 41.0924 19.435C41.081 19.4399 41.0707 19.447 41.0621 19.4559C41.0535 19.4649 41.0467 19.4754 41.0421 19.487C41.0376 19.4985 41.0354 19.5109 41.0356 19.5234C41.0396 20.294 40.739 21.0347 40.2 21.5824C39.6609 22.1302 38.9275 22.4401 38.1611 22.4441C38.1363 22.4443 38.1126 22.4544 38.0952 22.4722C38.0778 22.49 38.0681 22.514 38.0683 22.539L38.0673 22.539C38.0675 22.5643 38.0776 22.5885 38.0955 22.6064C38.1133 22.6243 38.1375 22.6343 38.1627 22.6344C38.5421 22.63 38.9187 22.7007 39.2709 22.8427C39.6231 22.9846 39.9441 23.1949 40.2155 23.4616C40.4868 23.7283 40.7033 24.0461 40.8525 24.397C41.0017 24.7478 41.0807 25.1247 41.0851 25.5063C41.085 25.5187 41.0874 25.531 41.0922 25.5425C41.0969 25.554 41.1039 25.5644 41.1126 25.5732C41.1214 25.582 41.1318 25.5889 41.1433 25.5936C41.1548 25.5983 41.167 25.6007 41.1794 25.6006C41.2045 25.6004 41.2285 25.5901 41.2461 25.5722C41.2636 25.5542 41.2734 25.5299 41.2732 25.5047C41.2711 25.1231 41.3437 24.7449 41.487 24.3916C41.6302 24.0383 41.8413 23.7169 42.1082 23.4457C42.375 23.1744 42.6924 22.9587 43.0421 22.8109C43.3919 22.663 43.7672 22.5859 44.1466 22.5839C44.1717 22.5837 44.1957 22.5735 44.2133 22.5555C44.2309 22.5375 44.2406 22.5132 44.2404 22.488C44.2399 22.4627 44.2295 22.4386 44.2115 22.4209C44.1934 22.4033 44.1692 22.3935 44.144 22.3937L44.145 22.3936Z" fill="white"/>
<path d="M14.07 43.9288C13.7178 43.6841 13.4211 43.3681 13.199 43.0012C12.977 42.6343 12.8346 42.2248 12.7812 41.7994C12.7278 41.3739 12.7646 40.9419 12.889 40.5315C13.0135 40.1212 13.2229 39.7416 13.5037 39.4175L13.6864 39.2053C14.9593 37.7349 16.1555 36.1999 17.2702 34.6062C17.6941 33.9946 18.1739 33.4139 18.563 33.1525C19.5365 32.4999 22.9023 30.3793 22.9023 30.3793L26.8597 29.2167C27.1497 29.1325 27.457 29.1272 27.7497 29.2016C28.7133 29.4494 30.9245 30.0151 31.256 30.017C31.6773 30.0237 30.7985 31.5662 29.509 31.58C28.2196 31.5937 27.2442 31.6348 27.2442 31.6348L24.627 32.333C24.627 32.333 28.8339 31.9402 29.7512 32.1202C30.6685 32.3001 33.3886 32.0181 33.3886 32.0181C33.3886 32.0181 37.7473 30.8368 38.5305 30.8704C39.3136 30.904 40.2268 31.6301 37.8394 32.3448C35.452 33.0595 34.2801 33.8584 33.8905 33.8717C33.5009 33.885 30.4419 34.5425 30.4419 34.5425L36.4768 33.6276C36.4768 33.6276 40.2066 32.2798 41.1371 33.3983C42.0675 34.5168 38.7421 34.6785 38.0652 35.1777C38.0652 35.1777 36.6082 36.3794 35.7958 36.7371C35.1115 37.0525 34.4757 37.4637 33.9073 37.9583C33.6427 38.2028 32.6101 38.5292 32.6101 38.5292C32.6101 38.5292 32.3972 39.5188 31.5157 39.9025C30.6341 40.2862 27.8131 41.4116 27.8131 41.4116L20.5628 41.8904C19.6296 42.3744 18.766 42.982 17.9951 43.6968C17.4835 44.1749 16.8241 44.4642 16.1258 44.5169C15.4275 44.5697 14.7321 44.3827 14.1545 43.9869L14.07 43.9288Z" fill="#E3A981"/>
<path d="M30.2376 37.0932L34.9774 36.3404L38.0654 35.178" fill="#E3A981"/>
<path d="M69.3039 26.5631C69.6165 26.8566 69.8638 27.2127 70.0298 27.6081C70.1958 28.0035 70.2767 28.4294 70.2673 28.8581C70.2579 29.2868 70.1584 29.7088 69.9753 30.0965C69.7921 30.4843 69.5294 30.8291 69.2042 31.1087L68.9925 31.2919C67.5182 32.5602 66.1103 33.9038 64.7746 35.3173C64.2658 35.8604 63.7062 36.3647 63.283 36.5663C62.2246 37.0695 58.5848 38.675 58.5848 38.675L54.5 39.2463C54.2007 39.2872 53.896 39.2475 53.6172 39.1311C52.7003 38.7451 50.5956 37.862 50.2679 37.8116C49.8522 37.7434 50.9471 36.346 52.2247 36.521C53.5023 36.696 54.4732 36.798 54.4732 36.798L57.1644 36.4901C57.1644 36.4901 52.9453 36.2634 52.0641 35.9512C51.183 35.639 48.4509 35.5201 48.4509 35.5201C48.4509 35.5201 43.9664 36.0512 43.1965 35.9034C42.4267 35.7557 41.6296 34.9039 44.0958 34.546C46.5621 34.1881 47.8382 33.5692 48.2255 33.613C48.6129 33.6569 51.7352 33.4539 51.7352 33.4539L45.6313 33.4763C45.6313 33.4763 41.7445 34.264 40.9877 33.0215C40.2308 31.7789 43.5441 32.1054 44.2868 31.7105C44.2868 31.7105 45.9038 30.7348 46.7599 30.4998C47.4829 30.2879 48.172 29.9741 48.8066 29.568C49.1042 29.3648 50.1734 29.1929 50.1734 29.1929C50.1734 29.1929 50.5288 28.2451 51.4569 27.9945C52.3851 27.7438 55.3404 27.0431 55.3404 27.0431L62.5827 27.6299C63.5767 27.2876 64.5199 26.8129 65.387 26.2185C65.9631 25.8204 66.6577 25.6306 67.3562 25.6806C68.0547 25.7305 68.7152 26.0172 69.2288 26.4932L69.3039 26.5631Z" fill="#E3A981"/>
<path d="M52.5618 31.0448L47.763 31.0962L44.5382 31.7945" fill="#E3A981"/>
</svg>
