<svg width="32" height="26" viewBox="0 0 32 26" fill="none" xmlns="http://www.w3.org/2000/svg">
<path d="M1.8605 25.971C1.36706 25.971 0.893838 25.7756 0.544927 25.4277C0.196016 25.0798 0 24.608 0 24.116C0 23.624 0.196016 23.1522 0.544927 22.8043C0.893838 22.4564 1.36706 22.261 1.8605 22.261H29.7248C30.2183 22.261 30.6915 22.4564 31.0404 22.8043C31.3893 23.1522 31.5853 23.624 31.5853 24.116C31.5853 24.608 31.3893 25.0798 31.0404 25.4277C30.6915 25.7756 30.2183 25.971 29.7248 25.971H1.8605ZM13.7055 14.841C13.2119 14.841 12.7386 14.6455 12.3896 14.2975C12.0406 13.9496 11.8445 13.4776 11.8445 12.9855C11.8445 12.4934 12.0406 12.0214 12.3896 11.6735C12.7386 11.3255 13.2119 11.13 13.7055 11.13H29.7248C30.2184 11.13 30.6918 11.3255 31.0408 11.6735C31.3898 12.0214 31.5858 12.4934 31.5858 12.9855C31.5858 13.4776 31.3898 13.9496 31.0408 14.2975C30.6918 14.6455 30.2184 14.841 29.7248 14.841H13.7055ZM1.8605 3.71C1.36706 3.71 0.893838 3.51456 0.544927 3.16668C0.196016 2.8188 2.77236e-08 2.34698 2.77236e-08 1.855C2.77236e-08 1.36302 0.196016 0.891197 0.544927 0.543317C0.893838 0.195437 1.36706 7.33102e-09 1.8605 0L29.7248 0C29.9692 -3.62995e-09 30.2111 0.047981 30.4368 0.141203C30.6625 0.234426 30.8676 0.371064 31.0404 0.543317C31.2132 0.71557 31.3502 0.920063 31.4437 1.14512C31.5372 1.37018 31.5853 1.6114 31.5853 1.855C31.5853 2.0986 31.5372 2.33982 31.4437 2.56488C31.3502 2.78994 31.2132 2.99443 31.0404 3.16668C30.8676 3.33894 30.6625 3.47557 30.4368 3.5688C30.2111 3.66202 29.9692 3.71 29.7248 3.71H1.8605Z" fill="white"/>
</svg>
