<svg width="171" height="24" viewBox="0 0 171 24" fill="none" xmlns="http://www.w3.org/2000/svg">
<path d="M2.01071 14.368L5.63471 4.36C5.74671 4.04 5.80271 3.712 5.80271 3.376C5.80271 2.88 5.67471 2.352 5.41871 1.792V1.72H9.16271L14.2747 15.256C14.8507 16.84 15.4427 18.064 16.0507 18.928V19H11.0827V18.904C11.1787 18.792 11.2267 18.416 11.2267 17.776C11.2267 17.68 11.2187 17.4 11.2027 16.936C11.2027 16.472 11.0747 15.896 10.8187 15.208L10.0267 13.12H3.59471L3.09071 14.512C2.88271 15.072 2.77071 15.552 2.75471 15.952C2.75471 16.336 2.75471 16.584 2.75471 16.696C2.75471 17.192 2.78671 17.616 2.85071 17.968C2.91471 18.32 2.99471 18.624 3.09071 18.88V19H0.018708V18.928C0.626708 17.904 1.29071 16.384 2.01071 14.368ZM3.95471 12.112H9.66671L6.73871 4.336L3.95471 12.112ZM17.6266 15.376V10.6C17.6266 9.88 17.4346 8.704 17.0506 7.072V6.976H20.6266V9.136C21.1226 8.192 21.6986 7.552 22.3546 7.216C23.0106 6.88 23.6106 6.712 24.1546 6.712C24.5866 6.712 25.0506 6.792 25.5466 6.952L25.0906 10.216H24.9946C24.6106 9.848 24.2106 9.568 23.7946 9.376C23.3786 9.184 22.9546 9.088 22.5226 9.088C22.4266 9.088 22.2106 9.104 21.8746 9.136C21.5386 9.168 21.1226 9.384 20.6266 9.784V15.376C20.6266 15.84 20.6666 16.32 20.7466 16.816C20.8266 17.312 20.9226 17.784 21.0346 18.232L21.1786 18.904V19H17.0506V18.904C17.4346 17.272 17.6266 16.096 17.6266 15.376ZM26.3983 21.016C26.3983 20.248 26.7183 19.584 27.3583 19.024C26.8143 18.608 26.5423 18 26.5423 17.2C26.5423 15.904 27.2703 15.056 28.7263 14.656C27.2223 13.84 26.4703 12.64 26.4703 11.056C26.4703 9.744 26.9823 8.712 28.0063 7.96C29.0463 7.208 30.2223 6.832 31.5343 6.832C32.5103 6.832 33.4223 7.048 34.2703 7.48C34.9423 6.152 35.9423 5.488 37.2703 5.488C37.4783 5.488 37.6943 5.504 37.9183 5.536L37.4623 7.912L37.4143 7.936C36.9183 7.664 36.4143 7.528 35.9023 7.528C35.5183 7.528 35.1343 7.6 34.7503 7.744C35.9983 8.544 36.6223 9.648 36.6223 11.056C36.6223 12.384 36.0943 13.432 35.0383 14.2C33.9983 14.952 32.8303 15.328 31.5343 15.328C30.8143 15.328 30.1183 15.208 29.4463 14.968C28.7583 15.208 28.4143 15.552 28.4143 16C28.4143 16.528 28.9903 16.792 30.1423 16.792H34.0543C35.2063 16.792 36.1103 17.088 36.7663 17.68C37.4383 18.256 37.7743 19.064 37.7743 20.104C37.7743 20.84 37.5823 21.464 37.1983 21.976C36.8143 22.504 36.3023 22.888 35.6623 23.128C35.0223 23.384 34.3823 23.56 33.7423 23.656C33.1183 23.752 32.4463 23.8 31.7263 23.8C31.1823 23.8 30.6383 23.76 30.0943 23.68C29.5663 23.616 28.9983 23.496 28.3903 23.32C27.7983 23.144 27.3183 22.856 26.9503 22.456C26.5823 22.056 26.3983 21.576 26.3983 21.016ZM29.4223 11.08C29.4223 12.056 29.6063 12.864 29.9743 13.504C30.3583 14.144 30.8783 14.464 31.5343 14.464C32.1903 14.464 32.7103 14.144 33.0943 13.504C33.4783 12.864 33.6703 12.056 33.6703 11.08C33.6703 10.104 33.4783 9.296 33.0943 8.656C32.7103 8.016 32.1903 7.696 31.5343 7.696C30.8783 7.696 30.3583 8.016 29.9743 8.656C29.6063 9.296 29.4223 10.104 29.4223 11.08ZM29.1103 22.096C29.7503 22.608 30.7183 22.864 32.0143 22.864C33.0703 22.864 33.9663 22.688 34.7023 22.336C35.4383 21.984 35.8063 21.536 35.8063 20.992C35.8063 20.128 35.1903 19.696 33.9583 19.696H29.9263C29.2863 19.696 28.7103 19.616 28.1983 19.456C28.1823 19.584 28.1743 19.792 28.1743 20.08C28.1743 20.096 28.1743 20.12 28.1743 20.152C28.1743 20.952 28.4863 21.6 29.1103 22.096ZM40.028 8.512C41.116 7.392 42.524 6.832 44.252 6.832C45.98 6.832 47.3 7.392 48.212 8.512C49.124 9.616 49.58 11.008 49.58 12.688H41.66C41.756 14.064 42.124 15.168 42.764 16C43.42 16.816 44.348 17.224 45.548 17.224C46.828 17.224 48.108 16.696 49.388 15.64L49.484 15.712C49.084 16.688 48.42 17.52 47.492 18.208C46.58 18.88 45.492 19.216 44.228 19.216C42.628 19.216 41.252 18.664 40.1 17.56C38.948 16.456 38.372 14.936 38.372 13C38.372 11.128 38.924 9.632 40.028 8.512ZM41.636 12.04V12.088L46.556 11.512C46.524 10.408 46.316 9.504 45.932 8.8C45.564 8.08 44.988 7.72 44.204 7.72C43.324 7.72 42.676 8.128 42.26 8.944C41.844 9.76 41.636 10.752 41.636 11.92C41.636 11.952 41.636 11.992 41.636 12.04ZM51.0585 18.904C51.4425 17.272 51.6345 16.096 51.6345 15.376V10.6C51.6345 9.88 51.4425 8.704 51.0585 7.072V6.976H54.6345V9.04C55.6265 7.568 56.9145 6.832 58.4985 6.832C59.6185 6.832 60.5545 7.176 61.3065 7.864C62.0585 8.536 62.4345 9.544 62.4345 10.888V15.376C62.4345 16.096 62.6265 17.272 63.0105 18.904V19H58.8825V18.904C58.8825 18.888 58.9385 18.664 59.0505 18.232C59.1625 17.784 59.2585 17.312 59.3385 16.816C59.4185 16.304 59.4585 15.824 59.4585 15.376V11.272C59.4585 10.424 59.2345 9.792 58.7865 9.376C58.3545 8.96 57.8105 8.744 57.1545 8.728C56.3065 8.728 55.4665 9.08 54.6345 9.784V15.376C54.6345 15.84 54.6745 16.32 54.7545 16.816C54.8345 17.312 54.9305 17.784 55.0425 18.232L55.1865 18.904V19H51.0585V18.904ZM68.307 3.184H68.499V6.976H71.787V7.96H68.499V15.304C68.499 16.568 69.059 17.2 70.179 17.2C70.851 17.2 71.515 17 72.171 16.6C71.851 17.368 71.387 18 70.779 18.496C70.171 18.976 69.435 19.216 68.571 19.216C67.611 19.216 66.859 18.896 66.315 18.256C65.771 17.616 65.499 16.736 65.499 15.616V7.96H63.747V7.12C65.635 6.4 67.155 5.088 68.307 3.184ZM74.1658 16.072C74.5338 15.72 74.9738 15.544 75.4858 15.544C76.0778 15.544 76.5738 15.776 76.9738 16.24C77.3898 16.704 77.5978 17.288 77.5978 17.992C77.5978 18.808 77.3178 19.584 76.7578 20.32C76.2138 21.072 75.4938 21.592 74.5978 21.88H73.8298C74.4698 21.528 74.9338 21.088 75.2218 20.56C75.5258 20.048 75.6778 19.592 75.6778 19.192L75.6298 19.216C75.5818 19.216 75.5338 19.216 75.4858 19.216C74.9578 19.216 74.5018 19.048 74.1178 18.712C73.7498 18.36 73.5658 17.912 73.5658 17.368C73.5818 16.856 73.7818 16.424 74.1658 16.072ZM85.82 3.952C87.372 2.304 89.34 1.48 91.724 1.48C93.324 1.48 95.204 1.848 97.364 2.584V6.448H97.22C95.476 3.808 93.74 2.488 92.012 2.488C90.604 2.488 89.42 3.248 88.46 4.768C87.516 6.272 87.044 8.136 87.044 10.36C87.044 12.584 87.532 14.464 88.508 16C89.5 17.52 90.676 18.28 92.036 18.28C92.916 18.28 93.804 17.904 94.7 17.152C95.612 16.384 96.452 15.424 97.22 14.272H97.364V18.184C95.124 18.92 93.204 19.288 91.604 19.288C89.316 19.288 87.388 18.456 85.82 16.792C84.252 15.128 83.468 12.992 83.468 10.384C83.468 7.744 84.252 5.6 85.82 3.952ZM99.0545 15.496C99.0545 14.216 99.5665 13.256 100.591 12.616C101.631 11.976 102.735 11.656 103.903 11.656C104.239 11.656 104.583 11.68 104.935 11.728C105.495 11.776 106.015 11.88 106.495 12.04V10.552C106.495 9.688 106.351 9.016 106.063 8.536C105.775 8.056 105.383 7.816 104.887 7.816C104.247 7.816 103.351 8.216 102.199 9.016C101.047 9.8 100.319 10.4 100.015 10.816H99.8945V7.744C101.863 7.136 103.583 6.832 105.055 6.832C106.511 6.832 107.615 7.184 108.367 7.888C109.119 8.576 109.495 9.512 109.495 10.696V16.072C109.495 17.08 109.791 17.584 110.383 17.584C110.559 17.584 110.767 17.536 111.007 17.44L111.055 17.512C110.927 18.008 110.671 18.408 110.287 18.712C109.903 19 109.431 19.144 108.871 19.144C108.263 19.144 107.759 18.984 107.359 18.664C106.959 18.344 106.695 17.896 106.567 17.32C105.703 18.568 104.487 19.192 102.919 19.192C101.719 19.192 100.775 18.832 100.087 18.112C99.3985 17.376 99.0545 16.504 99.0545 15.496ZM102.871 16.864C103.303 17.328 103.847 17.56 104.503 17.56C105.239 17.56 105.903 17.224 106.495 16.552V12.736C106.319 12.736 106.183 12.728 106.087 12.712C105.735 12.664 105.407 12.64 105.103 12.64C104.351 12.64 103.679 12.848 103.087 13.264C102.495 13.664 102.199 14.28 102.199 15.112C102.199 15.816 102.423 16.4 102.871 16.864ZM112.689 15.376V10.6C112.689 9.88 112.497 8.704 112.113 7.072V6.976H115.689V9.136C116.185 8.192 116.761 7.552 117.417 7.216C118.073 6.88 118.673 6.712 119.217 6.712C119.649 6.712 120.113 6.792 120.609 6.952L120.153 10.216H120.057C119.673 9.848 119.273 9.568 118.857 9.376C118.441 9.184 118.017 9.088 117.585 9.088C117.489 9.088 117.273 9.104 116.937 9.136C116.601 9.168 116.185 9.384 115.689 9.784V15.376C115.689 15.84 115.729 16.32 115.809 16.816C115.889 17.312 115.985 17.784 116.097 18.232L116.241 18.904V19H112.113V18.904C112.497 17.272 112.689 16.096 112.689 15.376ZM122.486 15.376V10.6C122.486 9.88 122.294 8.704 121.91 7.072V6.976H125.486V9.136C125.982 8.192 126.558 7.552 127.214 7.216C127.87 6.88 128.47 6.712 129.014 6.712C129.446 6.712 129.91 6.792 130.406 6.952L129.95 10.216H129.854C129.47 9.848 129.07 9.568 128.654 9.376C128.238 9.184 127.814 9.088 127.382 9.088C127.286 9.088 127.07 9.104 126.734 9.136C126.398 9.168 125.982 9.384 125.486 9.784V15.376C125.486 15.84 125.526 16.32 125.606 16.816C125.686 17.312 125.782 17.784 125.894 18.232L126.038 18.904V19H121.91V18.904C122.294 17.272 122.486 16.096 122.486 15.376ZM131.805 7.072V6.976H135.357V15.376C135.357 16.096 135.549 17.272 135.933 18.904V19H131.805V18.904C131.805 18.888 131.861 18.664 131.973 18.232C132.085 17.784 132.181 17.312 132.261 16.816C132.341 16.304 132.381 15.824 132.381 15.376V10.6C132.381 9.88 132.189 8.704 131.805 7.072ZM131.781 2.848C131.781 2.32 131.973 1.872 132.357 1.504C132.741 1.12 133.205 0.927999 133.749 0.927999C134.293 0.927999 134.757 1.12 135.141 1.504C135.525 1.872 135.717 2.32 135.717 2.848C135.717 3.376 135.525 3.832 135.141 4.216C134.741 4.6 134.277 4.792 133.749 4.792C133.221 4.792 132.757 4.6 132.357 4.216C131.973 3.832 131.781 3.376 131.781 2.848ZM139.028 8.512C140.116 7.392 141.524 6.832 143.252 6.832C144.98 6.832 146.3 7.392 147.212 8.512C148.124 9.616 148.58 11.008 148.58 12.688H140.66C140.756 14.064 141.124 15.168 141.764 16C142.42 16.816 143.348 17.224 144.548 17.224C145.828 17.224 147.108 16.696 148.388 15.64L148.484 15.712C148.084 16.688 147.42 17.52 146.492 18.208C145.58 18.88 144.492 19.216 143.228 19.216C141.628 19.216 140.252 18.664 139.1 17.56C137.948 16.456 137.372 14.936 137.372 13C137.372 11.128 137.924 9.632 139.028 8.512ZM140.636 12.04V12.088L145.556 11.512C145.524 10.408 145.316 9.504 144.932 8.8C144.564 8.08 143.988 7.72 143.204 7.72C142.324 7.72 141.676 8.128 141.26 8.944C140.844 9.76 140.636 10.752 140.636 11.92C140.636 11.952 140.636 11.992 140.636 12.04ZM139.364 3.328L141.404 1.216L146.66 5.056L146.276 5.44L139.364 3.328ZM150.634 15.376V10.6C150.634 9.88 150.442 8.704 150.058 7.072V6.976H153.634V9.136C154.13 8.192 154.706 7.552 155.362 7.216C156.018 6.88 156.618 6.712 157.162 6.712C157.594 6.712 158.058 6.792 158.554 6.952L158.098 10.216H158.002C157.618 9.848 157.218 9.568 156.802 9.376C156.386 9.184 155.962 9.088 155.53 9.088C155.434 9.088 155.218 9.104 154.882 9.136C154.546 9.168 154.13 9.384 153.634 9.784V15.376C153.634 15.84 153.674 16.32 153.754 16.816C153.834 17.312 153.93 17.784 154.042 18.232L154.186 18.904V19H150.058V18.904C150.442 17.272 150.634 16.096 150.634 15.376ZM160.895 8.512C161.983 7.392 163.391 6.832 165.119 6.832C166.847 6.832 168.167 7.392 169.079 8.512C169.991 9.616 170.447 11.008 170.447 12.688H162.527C162.623 14.064 162.991 15.168 163.631 16C164.287 16.816 165.215 17.224 166.415 17.224C167.695 17.224 168.975 16.696 170.255 15.64L170.351 15.712C169.951 16.688 169.287 17.52 168.359 18.208C167.447 18.88 166.359 19.216 165.095 19.216C163.495 19.216 162.119 18.664 160.967 17.56C159.815 16.456 159.239 14.936 159.239 13C159.239 11.128 159.791 9.632 160.895 8.512ZM162.503 12.04V12.088L167.423 11.512C167.391 10.408 167.183 9.504 166.799 8.8C166.431 8.08 165.855 7.72 165.071 7.72C164.191 7.72 163.543 8.128 163.127 8.944C162.711 9.76 162.503 10.752 162.503 11.92C162.503 11.952 162.503 11.992 162.503 12.04Z" fill="white"/>
</svg>
