<svg width="63" height="62" viewBox="0 0 63 62" fill="none" xmlns="http://www.w3.org/2000/svg">
<rect x="0.890869" y="0.5" width="61" height="61" rx="30.5" stroke="white"/>
<path d="M25.1824 29.8138L25.1825 29.8139L34.2054 20.7905C34.2055 20.7904 34.2056 20.7903 34.2057 20.7902C34.5885 20.4066 35.2218 20.4014 35.6101 20.7859L35.6126 20.7884L35.6126 20.7884C35.9989 21.1765 35.9717 21.7883 35.6014 22.1562C35.6011 22.1565 35.6008 22.1568 35.6005 22.1571L27.2538 30.5014L35.5908 38.8409C35.5912 38.8412 35.5915 38.8415 35.5918 38.8418C35.9589 39.2067 35.9955 39.8204 35.6005 40.2119C35.212 40.5992 34.5788 40.5934 34.1962 40.2103L25.1824 29.8138ZM25.1824 29.8138L25.1746 29.8219C25.1173 29.882 25.0727 29.9433 25.0367 30.0011C24.803 30.3749 24.852 30.8621 25.1709 31.1845L25.1709 31.1845L25.1728 31.1864L34.1957 40.2098L25.1824 29.8138Z" fill="white" stroke="white"/>
</svg>
