<svg width="37" height="44" viewBox="0 0 37 44" fill="none" xmlns="http://www.w3.org/2000/svg">
<path d="M20.1023 29.9772C20.1023 29.9772 7.66126 20.1311 8.27176 16.3148C8.88225 12.4984 11.7826 3.49117 20.1023 6.77345C24.9862 4.02527 33.0009 6.62061 32.5439 10.5134C32.0868 14.4062 32.3153 21.9633 31.6284 22.4974C30.9415 23.0315 26.591 25.856 25.9042 26.772C25.2173 27.6881 20.1023 29.9772 20.1023 29.9772Z" fill="#44006B"/>
<path d="M33.4859 33.0536C33.1189 31.7203 33.0223 30.3271 33.2015 28.9559C33.3808 27.5846 33.8323 26.2631 34.5297 25.0689C35.8312 22.8735 36.6091 20.4075 36.8028 17.8627C36.9966 15.3178 36.601 12.7625 35.6468 10.3953C34.6926 8.02816 33.2055 5.91286 31.301 4.21376C29.3965 2.51466 27.126 1.27752 24.6657 0.598446C22.2055 -0.0806247 19.6218 -0.183339 17.1154 0.298283C14.609 0.779906 12.2474 1.8329 10.214 3.37545C8.1807 4.918 6.53036 6.90857 5.39126 9.19252C4.25216 11.4765 3.65496 13.9923 3.64607 16.5445V16.6021L0.139622 24.6532C-0.028852 25.0399 -0.0454678 25.476 0.0930784 25.8744C0.231624 26.2729 0.515167 26.6045 0.887246 26.8034L3.64669 28.2779V35.0967C3.64669 36.039 4.021 36.9426 4.68728 37.6089C5.35355 38.2752 6.25722 38.6495 7.19947 38.6495H13.6989L14.7377 42.5273C14.8052 42.7793 14.9217 43.0155 15.0805 43.2226C15.2393 43.4296 15.4374 43.6033 15.6633 43.7337C15.8892 43.8642 16.1387 43.9489 16.3974 43.983C16.656 44.0171 16.9189 43.9998 17.1709 43.9323L33.1929 39.6394C33.4453 39.5723 33.682 39.456 33.8895 39.2972C34.0969 39.1385 34.271 38.9404 34.4018 38.7143C34.5326 38.4881 34.6176 38.2384 34.6518 37.9795C34.6859 37.7205 34.6687 37.4573 34.6011 37.205L33.4859 33.0536ZM28.4648 18.1794L27.8487 18.7955L27.838 18.8055L20.1877 26.4596L12.523 18.7949L11.8968 18.1687C10.8804 17.1523 10.3094 15.7738 10.3094 14.3364C10.3094 12.899 10.8804 11.5204 11.8968 10.504C12.9133 9.48763 14.2918 8.91662 15.7292 8.91662C17.1666 8.91662 18.5452 9.48763 19.5616 10.504L20.1877 11.1302L20.8038 10.5141C21.8257 9.52444 23.1957 8.97629 24.6182 8.9879C26.0406 8.99951 27.4015 9.56995 28.4071 10.5761C29.4127 11.5823 29.9823 12.9435 29.9931 14.3659C30.0039 15.7884 29.455 17.1581 28.4648 18.1794Z" fill="white"/>
</svg>
