<svg width="109" height="70" viewBox="0 0 109 70" fill="none" xmlns="http://www.w3.org/2000/svg">
<path d="M19.3015 32.5215H47.484" stroke="white" stroke-width="0.5" stroke-linecap="round" stroke-linejoin="round"/>
<path d="M60.2832 32.5215H88.4657" stroke="white" stroke-width="0.5" stroke-linecap="round" stroke-linejoin="round"/>
<path d="M53.8864 1.26529V24.972" stroke="white" stroke-width="0.5" stroke-linecap="round" stroke-linejoin="round"/>
<path d="M53.8864 40.066V63.7727" stroke="white" stroke-width="0.5" stroke-linecap="round" stroke-linejoin="round"/>
<path d="M35.4374 15.8481L41.2345 21.0873" stroke="white" stroke-width="0.5" stroke-linecap="round" stroke-linejoin="round"/>
<path d="M31.0146 11.851L33.5767 14.1665" stroke="white" stroke-width="0.5" stroke-linecap="round" stroke-linejoin="round"/>
<path d="M72.3638 49.2205L66.5667 43.9813" stroke="white" stroke-width="0.5" stroke-linecap="round" stroke-linejoin="round"/>
<path d="M76.7867 53.2176L74.2246 50.9021" stroke="white" stroke-width="0.5" stroke-linecap="round" stroke-linejoin="round"/>
<path d="M41.2346 43.9506L35.166 49.4403" stroke="white" stroke-width="0.5" stroke-linecap="round" stroke-linejoin="round"/>
<path d="M72.3638 15.8481L66.5667 21.0873" stroke="white" stroke-width="0.5" stroke-linecap="round" stroke-linejoin="round"/>
<path d="M76.7867 11.851L74.2246 14.1665" stroke="white" stroke-width="0.5" stroke-linecap="round" stroke-linejoin="round"/>
<path d="M31.0146 53.2176L33.5767 50.9021" stroke="white" stroke-width="0.5" stroke-linecap="round" stroke-linejoin="round"/>
<path d="M29.5271 23.1421L37.4282 26.1834" stroke="white" stroke-width="0.5" stroke-linecap="round" stroke-linejoin="round"/>
<path d="M70.339 38.8545L78.2401 41.8958" stroke="white" stroke-width="0.5" stroke-linecap="round" stroke-linejoin="round"/>
<path d="M64.2591 10.5067L60.8939 17.6473" stroke="white" stroke-width="0.5" stroke-linecap="round" stroke-linejoin="round"/>
<path d="M46.8733 47.3906L43.5082 54.5312" stroke="white" stroke-width="0.5" stroke-linecap="round" stroke-linejoin="round"/>
<path d="M44.0001 10.3227L47.2069 17.5195" stroke="white" stroke-width="0.5" stroke-linecap="round" stroke-linejoin="round"/>
<path d="M60.5659 47.5184L63.7671 54.7152" stroke="white" stroke-width="0.5" stroke-linecap="round" stroke-linejoin="round"/>
<path d="M78.4436 23.5868L70.4803 26.4849" stroke="white" stroke-width="0.5" stroke-linecap="round" stroke-linejoin="round"/>
<path d="M37.2868 38.5581L29.3235 41.4512" stroke="white" stroke-width="0.5" stroke-linecap="round" stroke-linejoin="round"/>
<path d="M53.8865 50.4114C63.5352 50.4114 71.357 42.4018 71.357 32.5215C71.357 22.6412 63.5352 14.6316 53.8865 14.6316C44.2377 14.6316 36.4159 22.6412 36.4159 32.5215C36.4159 42.4018 44.2377 50.4114 53.8865 50.4114Z" stroke="white" stroke-width="0.5" stroke-linecap="round" stroke-linejoin="round"/>
<path d="M4.65243 52.0688C4.01468 51.6257 3.4773 51.0534 3.07523 50.389C2.67316 49.7247 2.41539 48.9831 2.31867 48.2126C2.22196 47.4421 2.28847 46.6599 2.51388 45.9168C2.73929 45.1737 3.11855 44.4863 3.62701 43.8994L3.95783 43.5151C6.26294 40.8526 8.42906 38.0728 10.4475 35.1869C11.2152 34.0793 12.0841 33.0277 12.7887 32.5544C14.5515 31.3725 20.6466 27.5324 20.6466 27.5324L27.8128 25.4272C28.3381 25.2746 28.8945 25.2652 29.4247 25.3998C31.1695 25.8484 35.1737 26.8729 35.774 26.8764C36.5369 26.8885 34.9455 29.6818 32.6105 29.7067C30.2755 29.7316 28.5092 29.806 28.5092 29.806L23.7697 31.0703C23.7697 31.0703 31.3879 30.359 33.0491 30.6849C34.7102 31.0108 39.6359 30.5001 39.6359 30.5001C39.6359 30.5001 47.5289 28.361 48.9471 28.4218C50.3653 28.4826 52.0188 29.7974 47.6956 31.0917C43.3723 32.386 41.2503 33.8327 40.5448 33.8568C39.8392 33.8808 34.2998 35.0714 34.2998 35.0714L45.2283 33.4146C45.2283 33.4146 51.9824 30.9741 53.6673 32.9995C55.3522 35.0249 49.3303 35.3177 48.1046 36.2217C48.1046 36.2217 45.4662 38.3978 43.9949 39.0455C42.7559 39.6167 41.6044 40.3613 40.5752 41.2569C40.096 41.6998 38.2262 42.2909 38.2262 42.2909C38.2262 42.2909 37.8405 44.0829 36.2442 44.7777C34.6479 45.4725 29.5394 47.5106 29.5394 47.5106L16.4101 48.3775C14.7202 49.254 13.1562 50.3542 11.7603 51.6486C10.8338 52.5144 9.63969 53.0383 8.37521 53.1338C7.11074 53.2293 5.85149 52.8908 4.8054 52.174L4.65243 52.0688Z" fill="#E3A981"/>
<path d="M33.9301 39.6903L42.5131 38.3272L48.1051 36.2222" fill="#E3A981"/>
<path d="M104.674 20.6217C105.24 21.1532 105.688 21.798 105.988 22.514C106.289 23.23 106.436 24.0013 106.419 24.7776C106.402 25.554 106.221 26.3181 105.89 27.0203C105.558 27.7224 105.082 28.3469 104.493 28.8532L104.11 29.1849C101.44 31.4817 98.8908 33.9148 96.472 36.4744C95.5505 37.4578 94.5372 38.371 93.771 38.7362C91.8542 39.6475 85.2631 42.5548 85.2631 42.5548L77.8659 43.5893C77.324 43.6634 76.7722 43.5914 76.2674 43.3807C74.607 42.6816 70.7957 41.0825 70.2023 40.9912C69.4495 40.8677 71.4323 38.3372 73.7458 38.6541C76.0593 38.971 77.8175 39.1557 77.8175 39.1557L82.6909 38.5983C82.6909 38.5983 75.0506 38.1876 73.455 37.6223C71.8594 37.0569 66.912 36.8417 66.912 36.8417C66.912 36.8417 58.791 37.8034 57.3969 37.5358C56.0029 37.2682 54.5594 35.7257 59.0255 35.0777C63.4916 34.4296 65.8023 33.3088 66.5038 33.3882C67.2053 33.4676 72.8593 33.1 72.8593 33.1L61.806 33.1406C61.806 33.1406 54.7676 34.567 53.397 32.317C52.0265 30.0669 58.0264 30.658 59.3712 29.943C59.3712 29.943 62.2995 28.1762 63.8497 27.7506C65.159 27.3668 66.4069 26.7987 67.5561 26.0632C68.0949 25.6951 70.0311 25.3839 70.0311 25.3839C70.0311 25.3839 70.6747 23.6675 72.3554 23.2137C74.0362 22.7599 79.3879 21.4909 79.3879 21.4909L92.5027 22.5535C94.3026 21.9337 96.0108 21.074 97.581 19.9977C98.6242 19.2768 99.882 18.9331 101.147 19.0236C102.412 19.114 103.608 19.6331 104.538 20.4952L104.674 20.6217Z" fill="#E3A981"/>
<path d="M74.3563 28.7375L65.6662 28.8307L59.8265 30.0952" fill="#E3A981"/>
</svg>
