<svg width="67" height="67" viewBox="0 0 67 67" fill="none" xmlns="http://www.w3.org/2000/svg">
<path d="M65.0675 31.8977C56.901 31.9901 49.0321 28.8166 43.192 23.0753C37.3518 17.3339 34.0187 9.49502 33.926 1.28302C33.9237 1.01413 33.8153 0.757138 33.6246 0.568579C33.434 0.38002 33.1766 0.275332 32.9092 0.277541C32.7773 0.278646 32.6469 0.306051 32.5256 0.358171C32.4044 0.410292 32.2946 0.48609 32.2026 0.581179C32.1106 0.676268 32.0384 0.788757 31.9899 0.912134C31.9415 1.03551 31.9179 1.16732 31.9205 1.29994C31.9633 9.51534 28.7588 17.411 23.0122 23.2501C17.2655 29.0892 9.44728 32.3934 1.2774 32.4358C1.01291 32.4381 0.760139 32.5458 0.574702 32.7355C0.389265 32.9251 0.286348 33.1811 0.288592 33.4471L0.277489 33.4472C0.279613 33.7172 0.387621 33.9755 0.578049 34.166C0.768477 34.3564 1.02594 34.4636 1.29451 34.4643C5.3391 34.417 9.3534 35.1714 13.1081 36.6845C16.8628 38.1975 20.2844 40.4396 23.1774 43.2826C26.0704 46.1255 28.378 49.5137 29.9686 53.2536C31.5592 56.9935 32.4015 61.0117 32.4475 65.0789C32.4471 65.2115 32.4729 65.3429 32.5234 65.4655C32.5739 65.588 32.6481 65.6992 32.7417 65.7928C32.8352 65.8863 32.9463 65.9602 33.0684 66.0103C33.1906 66.0604 33.3214 66.0856 33.4533 66.0844C33.7207 66.0822 33.9763 65.9732 34.1638 65.7814C34.3513 65.5897 34.4554 65.3309 34.4531 65.062C34.4304 60.9947 35.2048 56.9628 36.732 53.1967C38.2593 49.4305 40.5094 46.0039 43.3539 43.1125C46.1985 40.2212 49.5817 37.9217 53.3103 36.3455C57.0389 34.7693 61.0398 33.9472 65.0846 33.9262C65.352 33.9239 65.6076 33.8149 65.7951 33.6232C65.9826 33.4314 66.0867 33.1726 66.0844 32.9037C66.0792 32.6338 65.9683 32.3768 65.7758 32.1885C65.5834 32.0003 65.3248 31.896 65.0564 31.8983L65.0675 31.8977Z" fill="white"/>
</svg>
